<mxfile host="65bd71144e">
    <diagram name="Esquema" id="jahxwv80Ce01JsiryU6Z">
        <mxGraphModel dx="746" dy="598" grid="1" gridSize="10" guides="1" tooltips="1" connect="1" arrows="1" fold="1" page="1" pageScale="1" pageWidth="827" pageHeight="1169" math="0" shadow="0">
            <root>
                <mxCell id="p4Bq-ALb1kUGbg0ZxvAY-0"/>
                <mxCell id="p4Bq-ALb1kUGbg0ZxvAY-1" parent="p4Bq-ALb1kUGbg0ZxvAY-0"/>
                <mxCell id="p4Bq-ALb1kUGbg0ZxvAY-2" value="TABLE" style="shape=table;startSize=30;container=1;collapsible=1;childLayout=tableLayout;fixedRows=1;rowLines=0;fontStyle=1;align=center;resizeLast=1;movable=1;resizable=1;rotatable=1;deletable=1;editable=1;connectable=1;swimlaneFillColor=default;fillColor=#a20025;fontColor=#ffffff;strokeColor=#6F0000;sketch=1;curveFitting=1;jiggle=2;swimlaneLine=1;rounded=1;shadow=1;" parent="p4Bq-ALb1kUGbg0ZxvAY-1" vertex="1">
                    <mxGeometry x="320" y="200" width="441" height="186" as="geometry">
                        <mxRectangle x="240" y="40" width="80" height="30" as="alternateBounds"/>
                    </mxGeometry>
                </mxCell>
                <mxCell id="p4Bq-ALb1kUGbg0ZxvAY-3" value="" style="shape=tableRow;horizontal=0;startSize=0;swimlaneHead=0;swimlaneBody=0;fillColor=none;collapsible=0;dropTarget=0;points=[[0,0.5],[1,0.5]];portConstraint=eastwest;top=0;left=0;right=0;bottom=1;" parent="p4Bq-ALb1kUGbg0ZxvAY-2" vertex="1">
                    <mxGeometry y="30" width="441" height="30" as="geometry"/>
                </mxCell>
                <mxCell id="p4Bq-ALb1kUGbg0ZxvAY-4" value="KEY" style="shape=partialRectangle;connectable=0;fillColor=none;top=0;left=0;bottom=0;right=0;fontStyle=1;overflow=hidden;align=center;" parent="p4Bq-ALb1kUGbg0ZxvAY-3" vertex="1">
                    <mxGeometry width="80" height="30" as="geometry">
                        <mxRectangle width="80" height="30" as="alternateBounds"/>
                    </mxGeometry>
                </mxCell>
                <mxCell id="p4Bq-ALb1kUGbg0ZxvAY-5" value="NAME" style="shape=partialRectangle;connectable=0;fillColor=none;top=0;left=0;bottom=0;right=0;align=center;spacingLeft=6;fontStyle=1;overflow=hidden;verticalAlign=middle;" parent="p4Bq-ALb1kUGbg0ZxvAY-3" vertex="1">
                    <mxGeometry x="80" width="232" height="30" as="geometry">
                        <mxRectangle width="232" height="30" as="alternateBounds"/>
                    </mxGeometry>
                </mxCell>
                <mxCell id="p4Bq-ALb1kUGbg0ZxvAY-6" value="TYPE" style="shape=partialRectangle;connectable=0;fillColor=none;top=0;left=0;bottom=0;right=0;align=center;spacingLeft=6;fontStyle=1;overflow=hidden;verticalAlign=middle;" parent="p4Bq-ALb1kUGbg0ZxvAY-3" vertex="1">
                    <mxGeometry x="312" width="129" height="30" as="geometry">
                        <mxRectangle width="129" height="30" as="alternateBounds"/>
                    </mxGeometry>
                </mxCell>
                <mxCell id="p4Bq-ALb1kUGbg0ZxvAY-7" value="" style="shape=tableRow;horizontal=0;startSize=0;swimlaneHead=0;swimlaneBody=0;fillColor=none;collapsible=0;dropTarget=0;points=[[0,0.5],[1,0.5]];portConstraint=eastwest;top=0;left=0;right=0;bottom=0;" parent="p4Bq-ALb1kUGbg0ZxvAY-2" vertex="1">
                    <mxGeometry y="60" width="441" height="30" as="geometry"/>
                </mxCell>
                <mxCell id="p4Bq-ALb1kUGbg0ZxvAY-8" value="PK" style="shape=partialRectangle;connectable=0;fillColor=none;top=0;left=0;bottom=0;right=0;editable=1;overflow=hidden;" parent="p4Bq-ALb1kUGbg0ZxvAY-7" vertex="1">
                    <mxGeometry width="80" height="30" as="geometry">
                        <mxRectangle width="80" height="30" as="alternateBounds"/>
                    </mxGeometry>
                </mxCell>
                <mxCell id="p4Bq-ALb1kUGbg0ZxvAY-9" value="Id_P" style="shape=partialRectangle;connectable=0;fillColor=none;top=0;left=0;bottom=0;right=0;align=left;spacingLeft=6;overflow=hidden;" parent="p4Bq-ALb1kUGbg0ZxvAY-7" vertex="1">
                    <mxGeometry x="80" width="232" height="30" as="geometry">
                        <mxRectangle width="232" height="30" as="alternateBounds"/>
                    </mxGeometry>
                </mxCell>
                <mxCell id="p4Bq-ALb1kUGbg0ZxvAY-10" value="stringÂ  auto" style="shape=partialRectangle;connectable=0;fillColor=none;top=0;left=0;bottom=0;right=0;align=left;spacingLeft=6;overflow=hidden;" parent="p4Bq-ALb1kUGbg0ZxvAY-7" vertex="1">
                    <mxGeometry x="312" width="129" height="30" as="geometry">
                        <mxRectangle width="129" height="30" as="alternateBounds"/>
                    </mxGeometry>
                </mxCell>
                <mxCell id="-G1qmT8y8Wbi2wVMC2wb-0" value="" style="shape=tableRow;horizontal=0;startSize=0;swimlaneHead=0;swimlaneBody=0;fillColor=none;collapsible=0;dropTarget=0;points=[[0,0.5],[1,0.5]];portConstraint=eastwest;top=0;left=0;right=0;bottom=0;" parent="p4Bq-ALb1kUGbg0ZxvAY-2" vertex="1">
                    <mxGeometry y="90" width="441" height="32" as="geometry"/>
                </mxCell>
                <mxCell id="-G1qmT8y8Wbi2wVMC2wb-1" value="" style="shape=partialRectangle;connectable=0;fillColor=none;top=0;left=0;bottom=0;right=0;editable=1;overflow=hidden;" parent="-G1qmT8y8Wbi2wVMC2wb-0" vertex="1">
                    <mxGeometry width="80" height="32" as="geometry">
                        <mxRectangle width="80" height="32" as="alternateBounds"/>
                    </mxGeometry>
                </mxCell>
                <mxCell id="-G1qmT8y8Wbi2wVMC2wb-2" value="_P" style="shape=partialRectangle;connectable=0;fillColor=none;top=0;left=0;bottom=0;right=0;align=left;spacingLeft=6;overflow=hidden;" parent="-G1qmT8y8Wbi2wVMC2wb-0" vertex="1">
                    <mxGeometry x="80" width="232" height="32" as="geometry">
                        <mxRectangle width="232" height="32" as="alternateBounds"/>
                    </mxGeometry>
                </mxCell>
                <mxCell id="-G1qmT8y8Wbi2wVMC2wb-3" value="" style="shape=partialRectangle;connectable=0;fillColor=none;top=0;left=0;bottom=0;right=0;align=left;spacingLeft=6;overflow=hidden;" parent="-G1qmT8y8Wbi2wVMC2wb-0" vertex="1">
                    <mxGeometry x="312" width="129" height="32" as="geometry">
                        <mxRectangle width="129" height="32" as="alternateBounds"/>
                    </mxGeometry>
                </mxCell>
                <mxCell id="AQWp28wg9QveweIYlrMQ-0" value="" style="shape=tableRow;horizontal=0;startSize=0;swimlaneHead=0;swimlaneBody=0;fillColor=none;collapsible=0;dropTarget=0;points=[[0,0.5],[1,0.5]];portConstraint=eastwest;top=0;left=0;right=0;bottom=0;" parent="p4Bq-ALb1kUGbg0ZxvAY-2" vertex="1">
                    <mxGeometry y="122" width="441" height="32" as="geometry"/>
                </mxCell>
                <mxCell id="AQWp28wg9QveweIYlrMQ-1" value="" style="shape=partialRectangle;connectable=0;fillColor=none;top=0;left=0;bottom=0;right=0;editable=1;overflow=hidden;" parent="AQWp28wg9QveweIYlrMQ-0" vertex="1">
                    <mxGeometry width="80" height="32" as="geometry">
                        <mxRectangle width="80" height="32" as="alternateBounds"/>
                    </mxGeometry>
                </mxCell>
                <mxCell id="AQWp28wg9QveweIYlrMQ-2" value="Creation_Date_P" style="shape=partialRectangle;connectable=0;fillColor=none;top=0;left=0;bottom=0;right=0;align=left;spacingLeft=6;overflow=hidden;" parent="AQWp28wg9QveweIYlrMQ-0" vertex="1">
                    <mxGeometry x="80" width="232" height="32" as="geometry">
                        <mxRectangle width="232" height="32" as="alternateBounds"/>
                    </mxGeometry>
                </mxCell>
                <mxCell id="AQWp28wg9QveweIYlrMQ-3" value="date Auto" style="shape=partialRectangle;connectable=0;fillColor=none;top=0;left=0;bottom=0;right=0;align=left;spacingLeft=6;overflow=hidden;" parent="AQWp28wg9QveweIYlrMQ-0" vertex="1">
                    <mxGeometry x="312" width="129" height="32" as="geometry">
                        <mxRectangle width="129" height="32" as="alternateBounds"/>
                    </mxGeometry>
                </mxCell>
                <mxCell id="AQWp28wg9QveweIYlrMQ-4" value="" style="shape=tableRow;horizontal=0;startSize=0;swimlaneHead=0;swimlaneBody=0;fillColor=none;collapsible=0;dropTarget=0;points=[[0,0.5],[1,0.5]];portConstraint=eastwest;top=0;left=0;right=0;bottom=0;" parent="p4Bq-ALb1kUGbg0ZxvAY-2" vertex="1">
                    <mxGeometry y="154" width="441" height="32" as="geometry"/>
                </mxCell>
                <mxCell id="AQWp28wg9QveweIYlrMQ-5" value="" style="shape=partialRectangle;connectable=0;fillColor=none;top=0;left=0;bottom=0;right=0;editable=1;overflow=hidden;" parent="AQWp28wg9QveweIYlrMQ-4" vertex="1">
                    <mxGeometry width="80" height="32" as="geometry">
                        <mxRectangle width="80" height="32" as="alternateBounds"/>
                    </mxGeometry>
                </mxCell>
                <mxCell id="AQWp28wg9QveweIYlrMQ-6" value="Update_Date_P" style="shape=partialRectangle;connectable=0;fillColor=none;top=0;left=0;bottom=0;right=0;align=left;spacingLeft=6;overflow=hidden;" parent="AQWp28wg9QveweIYlrMQ-4" vertex="1">
                    <mxGeometry x="80" width="232" height="32" as="geometry">
                        <mxRectangle width="232" height="32" as="alternateBounds"/>
                    </mxGeometry>
                </mxCell>
                <mxCell id="AQWp28wg9QveweIYlrMQ-7" value="date Auot" style="shape=partialRectangle;connectable=0;fillColor=none;top=0;left=0;bottom=0;right=0;align=left;spacingLeft=6;overflow=hidden;" parent="AQWp28wg9QveweIYlrMQ-4" vertex="1">
                    <mxGeometry x="312" width="129" height="32" as="geometry">
                        <mxRectangle width="129" height="32" as="alternateBounds"/>
                    </mxGeometry>
                </mxCell>
                <mxCell id="p4Bq-ALb1kUGbg0ZxvAY-11" value="" style="group" parent="p4Bq-ALb1kUGbg0ZxvAY-1" vertex="1" connectable="0">
                    <mxGeometry x="79" y="80" width="200" height="200" as="geometry"/>
                </mxCell>
                <mxCell id="p4Bq-ALb1kUGbg0ZxvAY-12" value="p&lt;br&gt;Table&lt;br&gt;SubTable" style="strokeWidth=1;shadow=0;dashed=0;align=center;html=1;shape=mxgraph.mockup.text.stickyNote2;fontColor=#666666;mainText=;fontSize=17;whiteSpace=wrap;fillColor=#ffffcc;strokeColor=#F62E00;" parent="p4Bq-ALb1kUGbg0ZxvAY-11" vertex="1">
                    <mxGeometry width="200" height="200" as="geometry"/>
                </mxCell>
                <mxCell id="p4Bq-ALb1kUGbg0ZxvAY-13" value="" style="dashed=0;outlineConnect=0;html=1;align=center;labelPosition=center;verticalLabelPosition=bottom;verticalAlign=top;shape=mxgraph.weblogos.json_2" parent="p4Bq-ALb1kUGbg0ZxvAY-11" vertex="1">
                    <mxGeometry x="30" y="150" width="80.4" height="25.200000000000003" as="geometry"/>
                </mxCell>
                <mxCell id="p4Bq-ALb1kUGbg0ZxvAY-14" value="" style="dashed=0;outlineConnect=0;html=1;align=center;labelPosition=center;verticalLabelPosition=bottom;verticalAlign=top;shape=mxgraph.weblogos.mongodb" parent="p4Bq-ALb1kUGbg0ZxvAY-11" vertex="1">
                    <mxGeometry x="140" y="130" width="31.2" height="56.2" as="geometry"/>
                </mxCell>
                <mxCell id="p4Bq-ALb1kUGbg0ZxvAY-15" value="" style="dashed=0;outlineConnect=0;html=1;align=center;labelPosition=center;verticalLabelPosition=bottom;verticalAlign=top;shape=mxgraph.weblogos.drawio2;fillColor=#1A5BA3" parent="p4Bq-ALb1kUGbg0ZxvAY-11" vertex="1">
                    <mxGeometry x="141.2" y="20" width="30" height="40" as="geometry"/>
                </mxCell>
                <mxCell id="p4Bq-ALb1kUGbg0ZxvAY-16" value="" style="shape=image;verticalLabelPosition=bottom;labelBackgroundColor=default;verticalAlign=top;aspect=fixed;imageAspect=0;image=data:image/png,iVBORw0KGgoAAAANSUhEUgAAAMAAAADACAYAAABS3GwHAAAACXBIWXMAAAsTAAALEwEAmpwYAAAnHElEQVR4Xu1dC5gVxZXu+5oHMDyU4SGDD9AkGB8DcUUTCZpVE4XER0xiIIn6bTYRzZqYGAXXLLprBNdEcfMtRM2ujw0Y8xCNsMasfopoomYN+IhjfOCDGQQGV2CAed3H/n97+9r3TndX9e3ue7vvrfq+Zobp6qpTp85fdc6pU1UxTSVPHJjS1taMApobc7lhI7PZsS3Z7JRRudzR+P1j+NtEPPs35HIto7LZ/VgR/q8/Vqk/FtP4MO2Kx3fiR7YnHu/aHY+/gr937YrFXsD/X8b/t+H/+/C+F8++TZ2dfZ4aUccfv89tlYQcgKCTVy0Q3tEQ7nFtmcwp+HnE2EymfVwmcwj+TiBULAEAue2JxOYdicRzAMSL3fH4+s5k8jUQQOD0KFDIdYUCgIBP0yZN2m9qOn1mayZz8qR0ehaEvU2OtdXJBVDs6Eom121OJFYDHH8CON5WYLDvCwWAEt5A4EdB2KdD6C+YOjg4B6P8/tURZX9qBSC2AwjPvpZM3r4plVqHUncAEFl/So9+KQoA6EOO8ocPDl40ZXBwHkb4aXY6evS7W9NeT6WexrOqM5FYs3HLlk210CYvbahbAEDo98co/+VpAwPfmpxOf9gLE6P67eZk8i8dDQ23vJ5M3tvR1dUV1XZ4obvuAPDJCRM+DcE///CBgXNreaR3IxQ0qDEr/PdLqdRyGNIPQkWydlO5KTQieesCABjtW6HiLICK83mM9kdFpG+qQiaM5u1PNTVdCzDcDSDsqAoRFay0pgFAwZ8+MPCD6f39F2O0j1eQr5GvCkDYg9ngkacaGxfCVng58g2yaUBNAqD9gAOOpOBDzfmCUnO8i+5LDQ33AQhXARQdteZBqikAQPCPOq6//0cQ/FO8d7sqoZQDAMIDAMJlmBFeqRXu1AQAoOocghF/IVSdb6gRP3jRBBDuARAWAQhvBF9bsDVEGgAIT2jBiP+vEPwLleAHKyilpUMd6tnQ2HjThoaGJVFeaY4kACD4ibZ0+rOn9vbehZXalsp2varNzAEAYeu6pqbLubgGIGSixp3IAQDqzkEQ/JUIU/hE1Jhdy/RCLboXatH3o7a6HBkAYNQfRj3/uL6+RVB3krUsTFFtG2aDHVhDuAZrCLdgNhiMQjsiAQB4d444pbd3FRaxjowCU+udxvxscClmg7fDzotQAwCjfgNWb8/7dG/vcjXqh12UiunDbNCN2eBqzAa3YjZIh5X60AIAuv5EeHhuhIfn3LAyT9El5gA8RXfSZYpgu3fEuSufI5QAgMpzzDl79/4u6rH4le/OcNaI2aDr18OHfwYq0YthozBUAIDKE0fQ2uWze3uvhsrTGDZmKXrK5wAiTvesa25eDJXo5jC5S0MDAAj/CKg8S+Hlubh8Nqsvw84B2AU3QSVaDBD0hIHWUAAA+v7kvG9/VhiYomgIlgNYNHvk983NX4NdsCXYmsSlVx0A0PdnQN9/kCctiMlVOWqFA7ALOmEXnAy74K/VbFNVAQDhb4fwPwLh18/MUam+OAAQbAEITqpmdGnVADBz4sQTIfy/hbGrYnnqS+6LWstYogeGDZvz9Dvv/LkabKgKAPLCv5anqVWj0arOcHEAHqLdmAlOBwierDRlFd8mOHf8+Esw8t+vhL/SXR3e+iALI+fv2bMesnFhpams6AxA4T91374fo5EqmK3SPR2R+n4/bNiFa7Ztu6VS5FYMAFR7gPLfoWG2C1yNo0ZpjaNHF9recuCBRXzoeTv0sVWV6rfQ1tPAPsRjTuZ+2/3WW460Qx3qhTo0C+rQs5VoZEUAAOE/DmrPGp6UbNWoSbNmaTMXLtT4U6Xa58CmNWu0xxct0npswAAQ7AIIPg4QvBQ0NwIHAFydH4bwPwBX52HmxnCUaF+wQDv64ouHjBhBN1qVHw4OdK1fr3WsXKl1rFo1hCCAoHvliBF/Axep85ThsSmBAgDCfxCE/yEIf+HowZaDDtJmAv3T5s3zRHpu504cBI4nn2IHH+ypPPWxPAdyb775QWaorDGT2ipfygc5d0O1fea664YAAS7SzZgJjgcIAju2MTAAILyhGTr/4xD+Y4ymcsQ/9sorpUd8Cnn2sce0DB4N02V240Zd6HXht0ipZcu05Le/XU4fqG8kOMC+GDjrLEv+6yDAIMSfsaOP1hInnqjF29s1NwMTgXDvnDlFqhGPd8dMcAzCJrolSHSdJRAA8DKJz+7btwr7dvVYfo76pyxfLqXjU7gzd96pZe67Txd+NykOpjc++qibT1ReFxwYuOACLXPHHS6+0LQYQJA8/3wtccYZ0mDgbPD00qWFehA7tA6LZacjgI634viaAlkHQFTnP5mF/+y1a4XCT2HvP+kkrW/MGG3wO99xLfy+ckUV5hsHcpi12Z99hxyi96/MoEYtgU4RI0GWZkOmrs3f0uMbbSzIdwDMHTduAUKa/8kY+Sn8I0vcmeYWUJ8kY2SZ42vrVWEV5UBhkAMYCAynRBCcvGJFIQtk6lIecOw3wb4CAEbvh2b39XHuilPtEQn/4DXX6CODzKjgd8NVedXjAAe9vunTNapUdvYcqZs2f37RTICNUjdCxg7xk3LfAACjtwUeH8b3jCSBc+Deshv5DQakr77az7aosiLGAdoT/QBCkVeppA2cCabMnav/lbsEIWPrIWuT/GqqbwDgEYXw+BxKwo6F/tZ6lPUx/Jz6qO6IpkC/GqjKCTcHdBUYIKDTwy5RFTJWlyFjkyBrN/hlD/gCAOj9F/F8TjaAqk87FresUkH4zX7kcPePoq4CHKAaRPdqGt4/q0ThPxZrR0aCrH2Zl534QZpnAEAnOxCI/IFBDBe5SmNB+E5Huo0P2Y+GqDKiz4FBuEvtNIP2iy4qkiucFfUzyJ6ucXhJngDAaYjTEaalCQYRk044wZIeXe1RI7+XvqqLb/VB0kZOCAIjwR4YhdMC7+UJ4V4Y4wkAuIjiYjxfNAig1W5l+NLbo4TfSzfVz7eUE3qHrNLRJgDwPY/KxHmxH+hGZbCpbABg+qExUlB9WLdVNCcbpLw9ZfRMHX9Ct7iVa5yq9dgS5wrWBy6DV+jwctlVNgAg/MtKT3JoPeKIIXQMKldnuX1T199Ra7BKpSo2VKEUjtT5Cc+RLYdhZQHg5PHjvwjV55zSCkvRydGfcT0qKQ645YDdLDASXsbShFCJT01Kp09yWwfzu96aCKQ1n9jTs6y0MivCgl7h1SMQ86G4jDpsuOmmcnigvpHkQGrxYt2WM9tzQdp26fvv1xoQ4GhOjSP1ddYhCV6hW7va2mYgYO5dyebo2VwDAEbHd6H6TJSpJO2wuCHzvV2eBNxlyfPO0xj9qVLlOMBBpjTaVg9ZRz8H4ejIWUQD20UXQCbpjl+4SdO+74YjrlQgGL6TsQhxmWwFOcH+T9lyjHwc8dkBDbffroTfLfMCys8+4YDEfnET+y9Djr7/w0XiYiwM4jYXn7iLBgXClgBpo2Ur8DvcIYkNL2rUl+V+ZfPpKigGJr+TGxULBvEIaCiXuKFBegbgqhsM3/luCvc7LzdVqBReDnBw8nsWMG97lWk5ZoFvQVY/IpOXeaQBgNHf2i8lW5MP+bzuPfWBBFVEhTngFC5tRQpmgWbI6g9514QMqVKZqPtj9Pe2i12GGpVHccAHDkBWz4aq/iGZoqQAEIbRX6YxKo/igMEB2AKXynBDCACM/hOAqK/JFKbyKA6EhQOUWXiEhLvHhADA6P/PaFQiLA1TdCgOyHAAtkAT16xEeR0Xwhhf0dbT8zlRIVF//yZWN09CuLaXNBr+cD4nwhMye/Zs/adK1eUAPELf3DBp0g04U8j2UFlHAGAa+RKMifHVbUZlaicI/EiP5VcvCYYzzzxTW4zwgYPVqXV+sNZ1GQyUw0kSX+/QNP2UEqvkqAJB/bnKda3qA50DOxEicAc2fR+CUy8uQHy7XwBT7HXHAWydPBuaTPFx1aYibAHwyQkTPi7rSnJHUv3lJhCoYhmzQ/1xoHotxqaZjzpFitoCAFOHlBupek2LVs2GnXGnCg+veMcdmk7Pxyxgqe5bAgDuo+GIsfZl133FWxvyCs9H4JiaCSrbSVwYgz1QfNtKngRLAED4v4gPAjk4t7JND2dtZ2Hjt7IJKtc3kOX41HTaMpDMclqYNjhY8cvKKseO6tdEA5mG8aMeTrJmGXzMQKLniR4n/lSpmAPTBga+8lJb23JsmOk3vxkyA2DldzwMh2MVA4s5cDX2NudyuSHPe++9p23YsEFbvXq1dh426cgmqkFuVSEK/M0336wb1GNwijY9TPzdeKbjhDX+nT+ZT80yH/QGZHoGZoKDS/tnCADa0umzZTtR5eOOzNFaO87Ap8+f3p433nhD2u9/jc3G71K+UvCZlwL/HRw1LgLORmwkYT7lgi3mJBw7hSN8jDdDAACL+atKsMvnAFUQzggEhSjJzAIUZo7onIEIBLfJcMGynHpPWBM4B96glK0KhJfDkOn4emeU1/ZzVqBKJKOL34+N33aJQkv1xqsqY7hg6x0E4zKZD0ENGmMLAHh/Pum189X373OAMwHVEFG6z+bgAENoyxn1repkOQSTX+WJ2hXG9wyQG5vJFC5sJI1FKhBcRWrTi489921c2CeaBSjoVkIZhLDK0ONj80NZFFT8L9vOAK2ZjPXJtqFsSviJMgxkEaWlKg4NXpHawxlmGQ4JoNFteKdoe/BvVsF3DMqjHVHvCVrOXPPdAoUZgFfPAADCDQT1zkC37Zcxhp977rmiYmm4OiWO5BR8/jQLO+vi37i+QK+UkZTwf8BNxLcdAFVonPGXwkIYhH+W285V+cUcOBp35oqSWQWi8DuN/gyl4CjvlAgKGuHMy9/VyF/ErQRU/c8hRPo2/rUAgLZM5nRRR6n3wXDADAA7o5g1U5g5mssm0UwiW06t5cNgPxtt0gGgq0A87xMLYN62RNUal6rUnlJ1yEwGd5mpzTXeOway/gnIfFMBAPhlGFBR0Iu8V6FKMDiwa9cuITMMoS6N7Sn98Ax1MJiQlzIZIOsHww7Qb5bRZwAgwtV5ijKVqDzvc0DkzWGeUbj4gUnko1ejv39SBWO4tQCA1mz2Y/4VrUoyc0AUt8O8soItWlNQnJfnAGzeU3QAQBdqBBoOk//UOmdDfhTzWk4tfc/RXyb8QMZVWkt8CUNbIPP6+aFUgUZjeVj6MFE74luPPDIM7QoVDTLuR/PxKaIRXgZMoWJAAMSU3kJUbhWQ+XYM/gkCoBlBQkMv93JZ8kfmqSgKM8sYjy+z/5e+eiMZZwvZsd7JQ+SyuyKbnRflWV3G6LZBDIzDN8PjsIYbDIvYbSFGfl6P2jareB3N7am+5dYdxu8o+DKBcKSdh2iZU+n/ze+4ACYylMPID79pOnnFCsvL2N3UA5kfhmd4HLoQb9cTHpFoVzjROGvp0iGv/b4cw03jqpWXwnnppZfqK7AyyVipNec1hzCUlmFsjJEpm3k4C0Vdbcpa3DLEa5J8AAFlf3Qyf9WpawBwKmpfsEA79sorLfsjLYhnke3EsORz8uZwWyTVExmPj7k9Vqu6BABBZDfScxagqiRaEWZAnWGDcEXYzXbNsPCcdGRAO++DK01T5s7VzsWdweuvuELbtHZtOSTHIPuHJEfmcofi68Lhty24hrL0LlZz6URf2wkn6BcWEwRWiaN/rV2PKrN7y00v2B2ZSOGm+uRkQPMdPUwMfCv1IJFOCr8ZjMaMFEUQ8KbRNGayJNpamiiLc+6+W9v99ts6CHrAk77duy27YQALkpvWrDG/y0H2D9TmtbZe/W8tLbvx5G5pa8vteustRNeWnzKPPprrHT06t0/TfH1YZlAJkZU5cKZiDzw/wqZAsKXoAWByLI/5+btTOzATCOv1mqHvjDN87XdDjgaXLfNKWu7p667LUc7zT/8FY8cupR401ZgBGjH62F1DKRrdaPTyqsx+7DoKwgCOSeyxFdEYhvdc9Lpd4jI5RnPKLJBRVeJoT11fZCBzJpBZmfbCpzg27geRBjErDuAoGTeX5pXSUaLZxJpyubHJlmyWV29b2gBUZZyEme94FWoG2/pEeb0yJWGKb/daVrW+p7oiK9gUfsb1+7En2GhvJU6q5kWGaUG4drn8pz3Ah5fx6Q9CzUX3xjncKppryOVGMxyazxAA9OEkgjB5cqJ+QyT1deruosUus3D4BQLWedNNN0l7p8oVUH7HmZpCGYQWYNBFu4CPTNIv98ZOOQugxACA/eOjsllGgQ65ASZUwo+p2/frN2W450MervRyJDe8N26LJAi4+4sCLKMSlZZv1C/rmnVLX2l+/eJsicMAvNYj+z1VJhtZjkH2p3Hk5wwQ2iuQKPgpF5tAZBkTZD4KqrE1kcLvx20x9AwRCLQf6CoVzSSG4LP+Sscasb8iYLPx7NtkkitiQQqDl7I5mjTCGAx69KcwycTtOLXlILiPjU3w5YzUsnziSG6M5jR8adQaIRKsn1swKfAigMjWV24+9pvuEPHp5p1y6XD6jncKx+AS2otMOghGohPPe+EF/ZveWHUPh9Z1Nwp/jXh/gujAsJdJ4Q8DCBoxC9IY7lq/Xrt3zhyDbXQZx6gCVVfSLXqRix664aKEP+wy7kgfB7EmqG1hVmFDAwAKOxnVhLCCFNxoIvdWpCWjzohPwvtFIDTAfnFwS1aaK/rA73hLZNAUUch1fy6MugR9umrED5rlVSufs0EC9gv7Oot1owzORM1ynal6NgJVoOoCgL5iLqLxGaQuBiZxtLAKfqpaz6mKfeEAF7DSCBOX9d/7Uqm4kBxVIB0JYUgcDQYxSvRhOZ3MUin6HKDAsz8ZxhA24afsJ/tjsb10B4WJ1QYQ+NOtASUTE2PXVmNHVpBuzDDxOWhaGMXJGJ6Qphxkfx8B0AMAjA0jkWmoQ7QTrEJh7ej14wI6w59Pnzp97pVeSApjX7ilKeTCrzeHAKAKRPU7tIkjSKWnTiPCkjuqeDsLrxqS2d8bWiZWmDDO3By8Qp7oBcrEd8Xjb4ecUD3MupqJq62cCfyYXarZjkrVPcgLBcu4zqlS9OXryUH2X00OxmLv4g9pPEUuUereaV7f49CQSrmwjOi/avuQeXAtbQyGNCu1yFpcKROV3A0oCpOhR9FGbhj/lkn2xWLd/KUUALo7UmIaY4P1bWsBu7gIxgasGVQ7GVcXVSPIrNptl6k/aHWVwsy9IQyPFwm/iN498fgbcRgCO5AxK8ps995Y4GC8BVf7vBJlV09OMv673Ha4+c64byvo3VVuaApL3rTNnWde6dNjwyBjfOgU8UPOoAK9Et8NFIA4fS2gH+oONxiXmwqbDwJY0a2UuiXbdoKANoFKJRyQOA3bLc8M4feqAne/+GJR1Rj8303ujsU6CwAA8asRLTcWxxzanfXZNHKkfjIXH6tTIfQQZqC0H54TPw0hv8qi7m6lv1OgDe+PbAfRHqCniLH/bhL38K5bt063J4x1C/MaBOP9eUBWFNcjghioKE9OI34nojx3QLi7n3/etht6MLAzGtScIPtvxmZOnHjU/D17/oAXw910IvMeu2iRNhOPVaLnxm9XWHNOvGhNl6WTasK4f9GZOjxHR+aiOrabgsuNKjLx91ZHljjxnJ4n0T5e0ul0E4yxD1mmbw37xi4vN+OINvdw1ddPEDB+iEF0VokCvx7yVyrYMm1FnszKESOOoAqkh+FIflSU7ZklS7Rf4IygfotpL8rxPBQ83rjodEqbwQjOGpwFnJKhLnGDu5vDs4xb3p2uTeJMQcG1e1if6LQIg3auddiVwzwi4S9HhkTf2MlRx6pVurZSpvCz2hxk/z0awWk8fSJC7N4ThWstDsb1w0gplyY/vjNue5fpdCehNkZVJyF2opff09awW4gjfU6zD4Xf6TZ6c91OM4kMH/zgu0wZtFMfvvBCy4FX5nvmYQiQsRLctz2ReFn2Q6t8RCH1sFpMnPZF6g0BYKd2UXj9OJ+Ts5JdOaIN7zKX5Tm1gf0aplPlHsaRnF4TZP41lLGXoRDv7kgkNnotkFNSLSYaoiIBY7tp1JYm6ud+CL9RLsFkpc6I7g6TUYOcQEIehGUG4OjvQe0pdBFk/vlNnZ3ZOP7ZB13oJa/CuyO/l9hrOWH8XiRgpLlU0DkjyGy0NwBGe0Pk9WGZVvaGzO2RolgmKwAbfREW4Sc9PRanRZcjM5D5v/I7/UCszkTikXIKMX/Dw0drNYn0bLa7VAUSCb9hYxhHnTC8gr+LPFR2dwSIZiknGyRK6o9fMrY9Hn+8AACggavBKjlwQGZ0Nn8uMjwZSmHlZRK5ae2MWqeLNUiXkxoUFfXHTwHtSiZfLwCAFnF3IrHVzwpqrSyRIWzWzUU6t2iPgegIRSu7grOUSFWxU4OcwCrjCo5aX0PWt4DmPQUAwA7o7UwmH45aQ8JKr5M+TZplPCpOKo2d21UEACs1iKO/0zqB21XusPaJmS7I+uO0ffm3Qgh0dzxOP+ZXotCAMNJoniG4iOaUeAOMaEZxWs22e2ccwGtXtzEzmet2sg24iixS/cLYFyKaYPM+YOQpAOD1VGqt1tsr+rZu34siP81CtUvgEPDqGrUbsUkDZwGnhTmqQcaozjY5qT8iwzqqwgAVSDeACyoQf4EdsBXG8M6oNipIuilwbgAgyhskrSKd3Tzii8IyZNy/QbYliLIh/G9u3LKFAaDFAIBOlMEs8JsgKo16mTJhDGHZISayL8wGutPagMzaQhT7FQB42kx30cUYryWTK6PYqKBpFi0isX6zG1Kk3wdJr6EGOdVhBL05zQC1qv68nkwWhZYW7QNmSARUIQ3HpATZR5Eqm14SkapQKnQ8Kt1Jz6eaEuSMwfKdaJaZ0UTrCpHqxA+ITUPLecpMexEAOrq63ts+ZkzH5HR6WkQb6CvZFGJ6bESpVO/mngSnRMCIVnxFdTq9pxrEtQQ7Y1m08lur6g+En+7PopCFIXeDbUqlfuGF+bXyLWNuGL8vE0tfqneLjEfOKrKeINHsY8Vv42Avp75wMtRrVv1JpYao+ENOh34plbp1dm9vdQ/iCRBFvNXdrvMp7FzEooogK3hWK7BG7JATeBjZ6XS8irGJhkAp5wQKujpl21DKbhGAA+yeIIvOWsW8DQEA1KCtm8eM+TPUoBlBUlOtsjmyi3ZwuaHN7s5f0W3vBCFPneNoS4EzDGf+nUJPQ9UAEMFCELhZlJIBoVU7Ze4fc8OfsOTdnEw+C/fnW6X0WN4P0JFK3QYArAgL8WGlw2m/Lkdgu8hNc3uoDok2rBi7wggCWQ8T81GYRWWX8la0jhDWvhDR1dHQcJtVHssLsmEs/JxbJUWF1vN7CopTyLPfhq6sQW7uE9GaQGn/kWa330RBBijLcH8Wwh/MNFsCAGrQnpcaGv4rCo2rBo10YdqpPmZ6qAbx8StxNJdZkzDqk9nHYKatVkd/DOgPUbWXngGYEYtiP/Or42qpHKo2DHaTVUV4wbVfoyptALf+eTcenRo1frW/pFL/bieDljMAM6/fuvUPMByKFg1qSZDdtoXCZ9z47vZbjtxe/f4czQk8N4Yw6ZQVapZbizMA4tu6sfmlEPxW2ne2AGBGrAn82m1n11p+Ch4FmNsVRfH2Tm2nvcAy3M4GnGk4i7gxgM10yKpBXtoW5j5/qqnpaix+8S5sy+R4SyTWBG47rq/vGoRGuD41rlpM4a0ubkdJM638dtSoUXqogt8uQZZNMBEM9NEzFNlwexo0UOANVYf1+yGYVIPokXJKboFZrf51Uy9G/x7I8N1O3whPhJvX2roEIFgoqth8y7yR1+/b5mWORhTRWY/vjdPenNruB9BYvt9HIxq3vBu0l9z27tidcOSs/um7757tlEl4T/CGhobrp/f3X4xZoKUehacW2swZxcusGFUePNXYuFhEu6MNwI/hPtqpXKIiNqr3YeMAZPY+rPy+IKJLCAAWgFngX/BDLYyJuKneh4YDGP2vkCFGCgBA0lYg6i6ZAlUexYFqcwCyej9k9hUZOqQAwIKIKCwp75QpVOVRHKgmByCrV8rWLw0AIGrHhsbGn8gWHEQ+v26JCYI2VWaeAz5fj8obh9wkjP6/haxKn3UrDYC8LfAjN7OAW+JFDU1X+b5gEX31/p63Avk+SMGDJZvg99+L0f9y2fzM5woA8Ajtxixwo3QFLoiXKTONxZxqX5otQ2c95gniSiwOoG4GUcjmjzH666c+yybhOkBpQUDYksMHBr4wMps9UlRJAmEEaWzu8DPx3rEMVlOTiLKMY9XXSLyRJuq30vjJp6DK4gify/cpf88+95zeH37eC1boUxe3jfKAZ3grb3HbbtcAQFxF+qEJEy74wt69T6CyJqcKeZkxR22/E5k9aBFmnEJdvENWpWA4kMFW0YEKXg3LC/JKU//u3ZaNe6yp6buQTR566yq5UoGMkhEp+ixirO8x17Tb4uIC3uvqZgpzRblFZnaQSsFxIIPYpUqmBC4ALE1W91jT8EXgZpE8ytJZFgBY+O+bmy+BQVy0x9KKuISPG0JkG6XyRZ8DHP2tVNrSgZaqDw1fjP4D5bS6bADQIEao6RJUWjhnpesJakXFSb/W3qUrq5yGqG9qiwOpxdZhPKUyBhlc7NbwNXOqbACwEBgdt2LTDPda6vHWm9asGdILFP6UzUXHtdVlqjV+cYDCbzn644K8Habb4Bnvg3Dn//RSrycAYNrJ/U9z8zegCumuJ4aqWl2anUBcO702KikOiDhAuzEJT59VMt8OCdVnM1Sf70MGy77jmnV4AgALwPTT+1Bz89fx604K/8blyy2JT2FXU8yFW0vEKPW+9jjAUb/BQVt4ZunSQqOh+iyE7PGuX0/JMwBY+8Pbtm3AIsQy/Jp9DgCwmgWYj5sbFAg89VfNfkzh1+XDZvG0Y+VKzTCAGZKzZts2Xy6m9gUA7BUukGFaeoLC/8wS2sZDE+0BNpIqkUqKAwYHOCg6CT+9i8boDxl70W24gxOnfQMAvEIDvx4+/AzYAy9TDeqEPWAHggbciWtn5SuxqC8O0EvoJPzkxjPXXaeP/pCtbsjYyZA1T3q/mcO+AYCFQifbyRU5/LrzkYsu0qzWBYzKaeg04ZQEFb5QXwJfGPXzKg9X753c5NQmOlbp2s7AOqw9Qca2+ckxXwFAwtZu3/4gDJTLgdi+1XPmOIKAwk8Q0PBRQPCzW8Nblu4Wh5uzEWcc0ePjlCj8T+fVacjUVdD7fT+633cAsEGrurtvQ6jEzwCCtAgEzM9VPwMIIqaEt2sVZY66NoSdo30jBjzO/qLFUbPwQ5Z+BZm6IQgOBwIAEspQCRgsjwAEGYLAapGstEEEAvVBMxhEjAqCKapMaw646Qvm5WDG0Z79yX6ViQqgE+XxhQsLIz9kaANk6byg+kR4LpCXitsPOKDxnL17H0LotB7V1A674Gg8Iw880FWxDL/NIgKUobd62C1Dckt2HulTK9cafN6D4IrQGs+sR+Fi9M6VBD7qwGDsPngfx/1ocXh1ynF303Gi24758iH8r8Lo/QT0/u6gWBsoAHShP+CAhvl79vwR5wrN4P95gNaxixZp0+bNC6pNqtyIcUB3c8LTkzd2deoh/K/Q4wPh3xxkcwIHAImfOXHiGMwETwAEhxuNIRA+AhBMmz/f9YwQJENU2ZXjAEd8+vfNIQ6sHe7OzRD+v336nXdeDZqaigAgD4LxAMGTAMHU0kbNuv56rX3BgqDbqsoPEQc2rlihrb/C8uie7pUjRlD4hYda+dGcigGAxM4ZN+6kT/f2/hK/ji0lnjPClNNP1xpU6LQf/RraMgZgu3U++WRRVKeJ2D0weL++Zvv2sja3lNPoigIgD4LTAALePrN/OQSrb2qTA1B7tq9ravpHCH9FL2apOADy6tBheXWotTa7U7XKDQfyIQ6nQe151s13fuQNbB3AiTgaNzByjoel/7YfjVBlRJcDEP5tkIW51RB+cq0qM4DRXXCRTsBM8CesE7RFtwsV5eVyAANgJ4T/VLg6O8otw+t3VQUAiQcIWgGCZwGCyV4bo76PDgcg/Fsg/Ke4OcYwiNZVHQBs1LRJk0ac2tt7z9TBwdODaKQqM1wcQGzP4/D2fBVhzVVXgUMBAHbPlLa2+HH9/dfjOqbLwtVdiho/OYCozp9gQ8tV2MtrfcKVn5VJlBUaABi0zh037pLZfX0/woJZSoJ+lSUiHICx2w8352Kc5HAjhH8wLGSHDgB5u4Bu0j/CLlBrBWGRFA90QN+np4f6fkVWd92QWhU3qIhAMOpVLIcfis3Pd4jyqvfh5gD68Ofoy/YwCj85F8oZwNylUIm+CdvgWswGQ8Inwt319U0dVB4el/MtnNl5B1SebFi5EXoA5FWi8QDBChzLflZYGano+oADOC3wTzgw7QKM+n8JO18iAQCTgfw9AGExZgN1Z3EIJQuj/j54eW7EkZnXYtTvDyGJQ0iKFADys8GHAYIbMRuoNYMQSRh8+49x62IYfPtu2BI5ALBxXDOYMjg478S+vpsxG+znpsEqr78cgIenG7r+33Ulk2t4Vqy/pQdfWiQBYLAFQBg2fWDgyun9/d8DEBxvqwmelfVVA9SdNDw8t2BR6wcQ/Pei2vpIA8BgOuKJDodadINSi4IXQwi+BsG/FXr+dVB3ii5ICb52/2uoCQCYgHAEgPBjAOFU/1mlSsQq7sM8lxPenQ21wo2aAoAJCDMAhB8CCJ+plY6qVjsw4mcg+PdgxL+eB9OG2adfDo9qEgAlM8L1ben0LOU6dSceEPwBqDr/AcG/AarOG+6+jk7umgaAyVjeD7PB32NWuAJAGBOd7qk8pVjE6sDq7a9w9dBPIfjvVJ6CytZYFwAwAaFlUjr9qY8ODv4D9h7MRsSp63uSK9s9lamNkZpQc1a/lkzeAXfmeqg5+ypTc/VrqSsAmICQgPBPBAi+NG1w8LzJ6bTw1vvqd5X/FGC0/3NHKnU7FrF+idF+u/81hL/EugSAuVuwltAAtehQ2AmnTU2nPw9QHB/+biuPQvrutycSL0PF+Q1UnLvw/zdrzah1y5m6B0AJGKgS7Y9V5tMOTafPHZvJzBiXyUT66BZ4bvZhhH8Q6s1dOxKJ5yH0W73erOhWyMKcXwHAoXcwO+zHzfoAwjGTM5nPwn6YCUBMCHOHYoT/P+jx/9sdj6+D4D/AA6dA7/YohilUgs8KAJJcBhgSyDoczygAYca4bHYmwHEYwHEkQDEZNsUwyaL8yJaFYO+BsHdhVH+ZJyl3JhKP4Odb+PtOVMCLy/cpoRezWgFAzCPLHABEM16Mzj8jAYCxAMRBLXhG5XIH4f+tnD3w/3HI0zDq/VilGP6u8bFKDDPgg5TdFY/3DSC8mAKNZweEe9OuWOz1nnj8dfz+Zl7Q9yAvN5fvgrAPlNmUuv7s/wEe7Bxzt7KFtAAAAABJRU5ErkJggg==;" parent="p4Bq-ALb1kUGbg0ZxvAY-11" vertex="1">
                    <mxGeometry x="10" y="20" width="40" height="40" as="geometry"/>
                </mxCell>
                <mxCell id="0" value="P" style="text;strokeColor=#6F0000;fillColor=#a20025;html=1;fontSize=24;fontStyle=1;verticalAlign=middle;align=center;rounded=1;glass=0;sketch=1;fontColor=#ffffff;gradientColor=none;shadow=1;" parent="p4Bq-ALb1kUGbg0ZxvAY-1" vertex="1">
                    <mxGeometry x="490.5" y="120" width="100" height="40" as="geometry"/>
                </mxCell>
            </root>
        </mxGraphModel>
    </diagram>
    <diagram id="s5tlBuPr0LCP311UnEXv" name="Entida RelaciÃ³n">
        <mxGraphModel dx="1865" dy="4803" grid="1" gridSize="10" guides="1" tooltips="1" connect="1" arrows="1" fold="1" page="1" pageScale="1" pageWidth="1169" pageHeight="827" background="none" math="0" shadow="0">
            <root>
                <mxCell id="0"/>
                <mxCell id="1" parent="0"/>
                <mxCell id="0WvfQL1xHhplHPzWFm92-3" value="Diagrama Entida RelaciÃ³n" style="shape=table;startSize=70;container=1;collapsible=0;childLayout=tableLayout;fixedRows=1;rowLines=1;fontStyle=1;labelBackgroundColor=none;labelBorderColor=none;hachureGap=4;fontFamily=Comic Sans MS;fontSize=30;rounded=1;fillColor=#e51400;strokeColor=#990000;swimlaneFillColor=#FFCCE6;fontColor=#ffffff;sketch=1;curveFitting=1;jiggle=2;arcSize=47;resizeLast=0;resizeLastRow=0;separatorColor=#990000;" parent="1" vertex="1">
                    <mxGeometry x="100" y="-3280" width="1020" height="782" as="geometry"/>
                </mxCell>
                <mxCell id="0WvfQL1xHhplHPzWFm92-7" value="" style="shape=tableRow;horizontal=0;startSize=0;swimlaneHead=0;swimlaneBody=0;top=0;left=0;bottom=0;right=0;collapsible=0;dropTarget=0;fillColor=none;points=[[0,0.5],[1,0.5]];portConstraint=eastwest;labelBackgroundColor=none;labelBorderColor=none;sketch=1;hachureGap=4;jiggle=2;curveFitting=1;fontFamily=Comic Sans MS;fontSize=30;fontColor=#FFFFFF;" parent="0WvfQL1xHhplHPzWFm92-3" vertex="1">
                    <mxGeometry y="70" width="1020" height="712" as="geometry"/>
                </mxCell>
                <mxCell id="0WvfQL1xHhplHPzWFm92-8" value="" style="shape=partialRectangle;html=1;whiteSpace=wrap;connectable=0;fillColor=none;top=0;left=0;bottom=0;right=0;overflow=hidden;labelBackgroundColor=none;labelBorderColor=none;sketch=1;hachureGap=4;jiggle=2;curveFitting=1;fontFamily=Comic Sans MS;fontSize=30;fontColor=#FFFFFF;" parent="0WvfQL1xHhplHPzWFm92-7" vertex="1">
                    <mxGeometry width="1020" height="712" as="geometry">
                        <mxRectangle width="1020" height="712" as="alternateBounds"/>
                    </mxGeometry>
                </mxCell>
                <mxCell id="EEqSX2tOunRe0dAk0HKY-2" value="&lt;font&gt;1 : 1&lt;/font&gt;" style="rounded=1;whiteSpace=wrap;html=1;sketch=1;hachureGap=4;jiggle=2;curveFitting=1;fontFamily=Comic Sans MS;fontSize=24;fillColor=#aa291d;strokeColor=#FFFFFF;labelBackgroundColor=none;labelBorderColor=none;shadow=1;fontStyle=1;strokeWidth=3;fontColor=#ffffff;" parent="1" vertex="1">
                    <mxGeometry x="798" y="-3170" width="80" height="40" as="geometry"/>
                </mxCell>
                <mxCell id="9LfOdyO7icO1XrmkJjpQ-17" style="edgeStyle=none;sketch=1;hachureGap=4;jiggle=2;curveFitting=1;html=1;entryX=0;entryY=0.5;entryDx=0;entryDy=0;fontFamily=Comic Sans MS;fontSize=24;fontStyle=1;fontColor=#FFFFFF;strokeColor=#990000;strokeWidth=3;exitX=1;exitY=0.5;exitDx=0;exitDy=0;" parent="1" source="5OdARO7A_S1EnH6ADHS4-1" target="-qnWodRMYXQPm7wnM18n-6" edge="1">
                    <mxGeometry relative="1" as="geometry">
                        <mxPoint x="818" y="-3060" as="sourcePoint"/>
                    </mxGeometry>
                </mxCell>
                <mxCell id="RxM9XD4o0YeJaacyj_vx-2" style="edgeStyle=none;sketch=1;hachureGap=4;jiggle=2;curveFitting=1;html=1;entryX=1;entryY=0.5;entryDx=0;entryDy=0;fontFamily=Comic Sans MS;fontSize=24;fontStyle=1;fontColor=#FFFFFF;strokeColor=#990000;strokeWidth=3;exitX=0;exitY=0.5;exitDx=0;exitDy=0;" parent="1" source="5OdARO7A_S1EnH6ADHS4-1" target="9LfOdyO7icO1XrmkJjpQ-7" edge="1">
                    <mxGeometry relative="1" as="geometry">
                        <mxPoint x="658" y="-3060" as="sourcePoint"/>
                    </mxGeometry>
                </mxCell>
                <mxCell id="RxM9XD4o0YeJaacyj_vx-12" style="edgeStyle=none;sketch=1;hachureGap=4;jiggle=2;curveFitting=1;html=1;exitX=0.146;exitY=1.011;exitDx=0;exitDy=0;entryX=1;entryY=0.5;entryDx=0;entryDy=0;fontFamily=Comic Sans MS;fontSize=24;fontStyle=1;fontColor=#FFFFFF;strokeColor=#990000;strokeWidth=3;exitPerimeter=0;" parent="1" source="5OdARO7A_S1EnH6ADHS4-1" target="kXoOxNy2Ls83WXHQIfjP-1" edge="1">
                    <mxGeometry relative="1" as="geometry">
                        <Array as="points">
                            <mxPoint x="653" y="-2980"/>
                        </Array>
                        <mxPoint x="658" y="-3040" as="sourcePoint"/>
                    </mxGeometry>
                </mxCell>
                <mxCell id="0WvfQL1xHhplHPzWFm92-13" style="edgeStyle=none;sketch=1;hachureGap=4;jiggle=2;curveFitting=1;html=1;entryX=0;entryY=0.5;entryDx=0;entryDy=0;fontFamily=Comic Sans MS;fontSize=30;fontColor=#FFFFFF;strokeColor=#990000;strokeWidth=3;exitX=0.5;exitY=0;exitDx=0;exitDy=0;" parent="1" source="5OdARO7A_S1EnH6ADHS4-1" target="EEqSX2tOunRe0dAk0HKY-2" edge="1">
                    <mxGeometry relative="1" as="geometry">
                        <mxPoint x="740.4444444444443" y="-3080" as="sourcePoint"/>
                        <Array as="points">
                            <mxPoint x="749" y="-3150"/>
                        </Array>
                    </mxGeometry>
                </mxCell>
                <mxCell id="RxM9XD4o0YeJaacyj_vx-11" style="edgeStyle=none;sketch=1;hachureGap=4;jiggle=2;curveFitting=1;html=1;entryX=0;entryY=0.5;entryDx=0;entryDy=0;fontFamily=Comic Sans MS;fontSize=24;fontStyle=1;fontColor=#FFFFFF;strokeColor=#990000;strokeWidth=3;exitX=1;exitY=0.5;exitDx=0;exitDy=0;" parent="1" source="KvpyyPjUs_sRztAU0ewq-1" target="RxM9XD4o0YeJaacyj_vx-4" edge="1">
                    <mxGeometry relative="1" as="geometry">
                        <mxPoint x="460" y="-2900" as="sourcePoint"/>
                        <Array as="points">
                            <mxPoint x="511" y="-2900"/>
                        </Array>
                    </mxGeometry>
                </mxCell>
                <mxCell id="RxM9XD4o0YeJaacyj_vx-13" style="edgeStyle=none;sketch=1;hachureGap=4;jiggle=2;curveFitting=1;html=1;fontFamily=Comic Sans MS;fontSize=24;entryX=0.5;entryY=1;entryDx=0;entryDy=0;fontStyle=1;fontColor=#FFFFFF;strokeColor=#990000;strokeWidth=3;exitX=0.5;exitY=0;exitDx=0;exitDy=0;" parent="1" source="KvpyyPjUs_sRztAU0ewq-1" target="kXoOxNy2Ls83WXHQIfjP-1" edge="1">
                    <mxGeometry relative="1" as="geometry">
                        <mxPoint x="379.99999999999955" y="-3000" as="targetPoint"/>
                        <mxPoint x="380" y="-2920" as="sourcePoint"/>
                    </mxGeometry>
                </mxCell>
                <mxCell id="RxM9XD4o0YeJaacyj_vx-22" style="edgeStyle=none;sketch=1;hachureGap=4;jiggle=2;curveFitting=1;html=1;entryX=0.5;entryY=0;entryDx=0;entryDy=0;fontFamily=Comic Sans MS;fontSize=24;fontStyle=1;fontColor=#FFFFFF;strokeColor=#990000;strokeWidth=3;" parent="1" source="KvpyyPjUs_sRztAU0ewq-1" target="RxM9XD4o0YeJaacyj_vx-20" edge="1">
                    <mxGeometry relative="1" as="geometry">
                        <mxPoint x="380" y="-2880" as="sourcePoint"/>
                    </mxGeometry>
                </mxCell>
                <mxCell id="0WvfQL1xHhplHPzWFm92-14" style="edgeStyle=none;sketch=1;hachureGap=4;jiggle=2;curveFitting=1;html=1;entryX=1;entryY=0.5;entryDx=0;entryDy=0;fontFamily=Comic Sans MS;fontSize=30;fontColor=#FFFFFF;strokeColor=#990000;strokeWidth=3;" parent="1" source="lhPklQ4vwMUZ_V3k96GU-1" target="EEqSX2tOunRe0dAk0HKY-2" edge="1">
                    <mxGeometry relative="1" as="geometry"/>
                </mxCell>
                <mxCell id="lhPklQ4vwMUZ_V3k96GU-1" value="Repositorys" style="text;strokeColor=#FFFFFF;fillColor=#e51400;fontSize=24;fontStyle=1;verticalAlign=middle;align=center;fontColor=#FFFFFF;sketch=1;curveFitting=1;jiggle=2;shadow=1;rounded=1;arcSize=50;html=1;fontFamily=Comic Sans MS;strokeWidth=3;" parent="1" vertex="1">
                    <mxGeometry x="948" y="-3170" width="150" height="40" as="geometry"/>
                </mxCell>
                <mxCell id="kXoOxNy2Ls83WXHQIfjP-1" value="1 : 1" style="rounded=1;whiteSpace=wrap;html=1;sketch=1;hachureGap=4;jiggle=2;curveFitting=1;fontFamily=Comic Sans MS;fontSize=24;fillColor=#fad7ac;strokeColor=#FF99CC;labelBackgroundColor=none;labelBorderColor=none;shadow=1;fontStyle=1;fontColor=#FFFFFF;strokeWidth=3;" parent="1" vertex="1">
                    <mxGeometry x="340" y="-3000" width="80" height="40" as="geometry"/>
                </mxCell>
                <mxCell id="9LfOdyO7icO1XrmkJjpQ-18" style="edgeStyle=none;sketch=1;hachureGap=4;jiggle=2;curveFitting=1;html=1;entryX=0;entryY=0.5;entryDx=0;entryDy=0;fontFamily=Comic Sans MS;fontSize=24;fontStyle=1;fontColor=#FFFFFF;strokeColor=#990000;strokeWidth=3;" parent="1" source="NVJZDQ0i7OWkfJXZfTMl-1" target="-qnWodRMYXQPm7wnM18n-12" edge="1">
                    <mxGeometry relative="1" as="geometry"/>
                </mxCell>
                <mxCell id="dDs-6-dp852NDUnf5HV8-4" style="edgeStyle=none;sketch=1;hachureGap=4;jiggle=2;curveFitting=1;html=1;entryX=0.5;entryY=0;entryDx=0;entryDy=0;fontFamily=Comic Sans MS;fontSize=24;exitX=0.75;exitY=1;exitDx=0;exitDy=0;fontStyle=1;fontColor=#FFFFFF;strokeColor=#990000;strokeWidth=3;" parent="1" source="NVJZDQ0i7OWkfJXZfTMl-1" target="dDs-6-dp852NDUnf5HV8-2" edge="1">
                    <mxGeometry relative="1" as="geometry">
                        <Array as="points">
                            <mxPoint x="778" y="-2690"/>
                            <mxPoint x="938" y="-2690"/>
                        </Array>
                    </mxGeometry>
                </mxCell>
                <mxCell id="RxM9XD4o0YeJaacyj_vx-6" style="edgeStyle=none;sketch=1;hachureGap=4;jiggle=2;curveFitting=1;html=1;entryX=1;entryY=0.5;entryDx=0;entryDy=0;fontFamily=Comic Sans MS;fontSize=24;fontStyle=1;fontColor=#FFFFFF;strokeColor=#990000;strokeWidth=3;" parent="1" source="NVJZDQ0i7OWkfJXZfTMl-1" target="9LfOdyO7icO1XrmkJjpQ-10" edge="1">
                    <mxGeometry relative="1" as="geometry"/>
                </mxCell>
                <mxCell id="RxM9XD4o0YeJaacyj_vx-7" style="edgeStyle=none;sketch=1;hachureGap=4;jiggle=2;curveFitting=1;html=1;entryX=0.5;entryY=0;entryDx=0;entryDy=0;fontFamily=Comic Sans MS;fontSize=24;exitX=0.086;exitY=0.972;exitDx=0;exitDy=0;exitPerimeter=0;fontStyle=1;fontColor=#FFFFFF;strokeColor=#990000;strokeWidth=3;" parent="1" source="NVJZDQ0i7OWkfJXZfTMl-1" target="Fo7LzMsEx8kWGaJliALY-2" edge="1">
                    <mxGeometry relative="1" as="geometry">
                        <Array as="points">
                            <mxPoint x="660" y="-2690"/>
                            <mxPoint x="538" y="-2690"/>
                        </Array>
                    </mxGeometry>
                </mxCell>
                <mxCell id="RxM9XD4o0YeJaacyj_vx-23" style="edgeStyle=none;sketch=1;hachureGap=4;jiggle=2;curveFitting=1;html=1;entryX=1;entryY=0.5;entryDx=0;entryDy=0;fontFamily=Comic Sans MS;fontSize=24;fontStyle=1;fontColor=#FFFFFF;strokeColor=#990000;strokeWidth=3;exitX=0.144;exitY=0.002;exitDx=0;exitDy=0;exitPerimeter=0;" parent="1" source="NVJZDQ0i7OWkfJXZfTMl-1" target="RxM9XD4o0YeJaacyj_vx-20" edge="1">
                    <mxGeometry relative="1" as="geometry">
                        <mxPoint x="717.6800000000001" y="-2800.52" as="sourcePoint"/>
                        <Array as="points">
                            <mxPoint x="670" y="-2820"/>
                        </Array>
                    </mxGeometry>
                </mxCell>
                <mxCell id="RxM9XD4o0YeJaacyj_vx-25" style="edgeStyle=none;sketch=1;hachureGap=4;jiggle=2;curveFitting=1;html=1;entryX=0.5;entryY=0;entryDx=0;entryDy=0;fontFamily=Comic Sans MS;fontSize=24;fontStyle=1;fontColor=#FFFFFF;strokeColor=#990000;strokeWidth=3;" parent="1" source="NVJZDQ0i7OWkfJXZfTMl-1" target="9jyIuWUcS2FYYi_NkXNU-3" edge="1">
                    <mxGeometry relative="1" as="geometry"/>
                </mxCell>
                <mxCell id="KvpyyPjUs_sRztAU0ewq-11" value="" style="edgeStyle=none;sketch=1;hachureGap=4;jiggle=2;curveFitting=1;html=1;strokeColor=#990000;strokeWidth=3;fontFamily=Comic Sans MS;fontSize=30;fontColor=#FFFFFF;" parent="1" source="NVJZDQ0i7OWkfJXZfTMl-1" target="0WvfQL1xHhplHPzWFm92-68" edge="1">
                    <mxGeometry relative="1" as="geometry"/>
                </mxCell>
                <mxCell id="NVJZDQ0i7OWkfJXZfTMl-1" value="Participants" style="text;strokeColor=#990000;fillColor=#a20025;html=1;fontSize=24;fontStyle=1;verticalAlign=middle;align=center;fontFamily=Comic Sans MS;labelBorderColor=none;rounded=1;glass=0;sketch=1;curveFitting=1;jiggle=2;shadow=1;fontColor=#FFFFFF;arcSize=50;strokeWidth=3;" parent="1" vertex="1">
                    <mxGeometry x="653" y="-2763" width="160" height="40" as="geometry"/>
                </mxCell>
                <mxCell id="9LfOdyO7icO1XrmkJjpQ-6" style="edgeStyle=none;sketch=1;hachureGap=4;jiggle=2;curveFitting=1;html=1;entryX=0.5;entryY=1;entryDx=0;entryDy=0;fontFamily=Comic Sans MS;fontSize=24;fontStyle=1;fontColor=#FFFFFF;strokeColor=#990000;strokeWidth=3;" parent="1" source="Fo7LzMsEx8kWGaJliALY-1" target="Fo7LzMsEx8kWGaJliALY-2" edge="1">
                    <mxGeometry relative="1" as="geometry"/>
                </mxCell>
                <mxCell id="Fo7LzMsEx8kWGaJliALY-1" value="Senioritys" style="text;strokeColor=#990000;fillColor=#e51400;fontSize=24;fontStyle=1;verticalAlign=middle;align=center;fontFamily=Comic Sans MS;html=1;fontColor=#FFFFFF;rounded=1;sketch=1;curveFitting=1;jiggle=2;shadow=1;arcSize=50;strokeWidth=3;" parent="1" vertex="1">
                    <mxGeometry x="460" y="-2570" width="160" height="40" as="geometry"/>
                </mxCell>
                <mxCell id="Fo7LzMsEx8kWGaJliALY-2" value="1 : N" style="rounded=1;whiteSpace=wrap;html=1;sketch=1;hachureGap=4;jiggle=2;curveFitting=1;fontFamily=Comic Sans MS;fontSize=24;fillColor=#fad7ac;strokeColor=#990000;labelBackgroundColor=none;labelBorderColor=none;shadow=1;fontStyle=1;fontColor=#FFFFFF;strokeWidth=3;" parent="1" vertex="1">
                    <mxGeometry x="498" y="-2650" width="80" height="40" as="geometry"/>
                </mxCell>
                <mxCell id="-qnWodRMYXQPm7wnM18n-13" style="edgeStyle=none;sketch=1;hachureGap=4;jiggle=2;curveFitting=1;html=1;entryX=0.5;entryY=0;entryDx=0;entryDy=0;fontFamily=Comic Sans MS;fontSize=24;fontStyle=1;fontColor=#FFFFFF;strokeColor=#990000;strokeWidth=3;" parent="1" source="-qnWodRMYXQPm7wnM18n-1" target="-qnWodRMYXQPm7wnM18n-12" edge="1">
                    <mxGeometry relative="1" as="geometry"/>
                </mxCell>
                <mxCell id="9LfOdyO7icO1XrmkJjpQ-16" style="edgeStyle=none;sketch=1;hachureGap=4;jiggle=2;curveFitting=1;html=1;entryX=0.5;entryY=1;entryDx=0;entryDy=0;fontFamily=Comic Sans MS;fontSize=24;fontStyle=1;fontColor=#FFFFFF;strokeColor=#990000;strokeWidth=3;" parent="1" source="-qnWodRMYXQPm7wnM18n-1" target="-qnWodRMYXQPm7wnM18n-6" edge="1">
                    <mxGeometry relative="1" as="geometry"/>
                </mxCell>
                <mxCell id="nWNK8VHhcUO-3SSryQJw-1" value="" style="edgeStyle=none;sketch=1;hachureGap=4;jiggle=2;curveFitting=1;html=1;fontFamily=Architects Daughter;fontSource=https%3A%2F%2Ffonts.googleapis.com%2Fcss%3Ffamily%3DArchitects%2BDaughter;fontSize=16;strokeColor=#990000;strokeWidth=3;" parent="1" source="-qnWodRMYXQPm7wnM18n-1" target="0WvfQL1xHhplHPzWFm92-45" edge="1">
                    <mxGeometry relative="1" as="geometry"/>
                </mxCell>
                <mxCell id="-qnWodRMYXQPm7wnM18n-1" value="States" style="text;strokeColor=#FFFFFF;fillColor=#e51400;fontSize=24;fontStyle=1;verticalAlign=middle;align=center;fontColor=#FFFFFF;glass=0;rounded=1;shadow=1;sketch=1;curveFitting=1;jiggle=2;arcSize=50;fontFamily=Comic Sans MS;html=1;strokeWidth=3;" parent="1" vertex="1">
                    <mxGeometry x="978" y="-2913" width="120" height="40" as="geometry"/>
                </mxCell>
                <mxCell id="-qnWodRMYXQPm7wnM18n-6" value="1 : N" style="rounded=1;whiteSpace=wrap;html=1;sketch=1;hachureGap=4;jiggle=2;curveFitting=1;fontFamily=Comic Sans MS;fontSize=24;fillColor=#aa291d;strokeColor=#FFFFFF;labelBackgroundColor=none;labelBorderColor=none;shadow=1;fontStyle=1;strokeWidth=3;fontColor=#ffffff;" parent="1" vertex="1">
                    <mxGeometry x="998" y="-3080" width="80" height="40" as="geometry"/>
                </mxCell>
                <mxCell id="-qnWodRMYXQPm7wnM18n-12" value="1 : N" style="rounded=1;whiteSpace=wrap;html=1;sketch=1;hachureGap=4;jiggle=2;curveFitting=1;fontFamily=Comic Sans MS;fontSize=24;fillColor=#fad7ac;strokeColor=#990000;labelBackgroundColor=none;labelBorderColor=none;shadow=1;fontStyle=1;fontColor=#FFFFFF;strokeWidth=3;" parent="1" vertex="1">
                    <mxGeometry x="998" y="-2760" width="80" height="40" as="geometry"/>
                </mxCell>
                <mxCell id="9LfOdyO7icO1XrmkJjpQ-8" style="edgeStyle=none;sketch=1;hachureGap=4;jiggle=2;curveFitting=1;html=1;entryX=0.5;entryY=1;entryDx=0;entryDy=0;fontFamily=Comic Sans MS;fontSize=24;fontStyle=1;fontColor=#FFFFFF;strokeColor=#990000;strokeWidth=3;" parent="1" source="9LfOdyO7icO1XrmkJjpQ-1" target="9LfOdyO7icO1XrmkJjpQ-7" edge="1">
                    <mxGeometry relative="1" as="geometry"/>
                </mxCell>
                <mxCell id="9LfOdyO7icO1XrmkJjpQ-11" style="edgeStyle=none;sketch=1;hachureGap=4;jiggle=2;curveFitting=1;html=1;entryX=0.5;entryY=0;entryDx=0;entryDy=0;fontFamily=Comic Sans MS;fontSize=24;fontStyle=1;fontColor=#FFFFFF;strokeColor=#990000;strokeWidth=3;" parent="1" source="9LfOdyO7icO1XrmkJjpQ-1" target="9LfOdyO7icO1XrmkJjpQ-10" edge="1">
                    <mxGeometry relative="1" as="geometry"/>
                </mxCell>
                <mxCell id="9LfOdyO7icO1XrmkJjpQ-1" value="Skills" style="text;strokeColor=#FFFFFF;fillColor=#a20025;html=1;fontSize=24;fontStyle=1;verticalAlign=middle;align=center;rounded=1;glass=0;sketch=1;fontColor=#FFFFFF;gradientColor=none;shadow=1;arcSize=50;fontFamily=Comic Sans MS;strokeWidth=3;" parent="1" vertex="1">
                    <mxGeometry x="130" y="-2920" width="120" height="40" as="geometry"/>
                </mxCell>
                <mxCell id="9LfOdyO7icO1XrmkJjpQ-7" value="N : N" style="rounded=1;whiteSpace=wrap;html=1;sketch=1;hachureGap=4;jiggle=2;curveFitting=1;fontFamily=Comic Sans MS;fontSize=24;fillColor=#aa291d;strokeColor=#FFFFFF;labelBackgroundColor=none;labelBorderColor=none;shadow=1;fontStyle=1;strokeWidth=3;fontColor=#ffffff;" parent="1" vertex="1">
                    <mxGeometry x="150" y="-3080" width="80" height="40" as="geometry"/>
                </mxCell>
                <mxCell id="9LfOdyO7icO1XrmkJjpQ-10" value="N : N" style="rounded=1;whiteSpace=wrap;html=1;sketch=1;hachureGap=4;jiggle=2;curveFitting=1;fontFamily=Comic Sans MS;fontSize=24;fillColor=#fad7ac;strokeColor=#FF99CC;labelBackgroundColor=none;labelBorderColor=none;shadow=1;fontStyle=1;fontColor=#FFFFFF;strokeWidth=3;" parent="1" vertex="1">
                    <mxGeometry x="150" y="-2760" width="80" height="40" as="geometry"/>
                </mxCell>
                <mxCell id="dDs-6-dp852NDUnf5HV8-3" style="edgeStyle=none;sketch=1;hachureGap=4;jiggle=2;curveFitting=1;html=1;fontFamily=Comic Sans MS;fontSize=24;fontStyle=1;fontColor=#FFFFFF;strokeColor=#990000;strokeWidth=3;" parent="1" source="dDs-6-dp852NDUnf5HV8-1" target="dDs-6-dp852NDUnf5HV8-2" edge="1">
                    <mxGeometry relative="1" as="geometry"/>
                </mxCell>
                <mxCell id="dDs-6-dp852NDUnf5HV8-1" value="SocialNetworks" style="text;strokeColor=#990000;fillColor=#a20025;html=1;fontSize=24;fontStyle=1;verticalAlign=middle;align=center;rounded=1;glass=0;sketch=1;fontColor=#FFFFFF;gradientColor=none;shadow=1;arcSize=50;fontFamily=Comic Sans MS;strokeWidth=3;" parent="1" vertex="1">
                    <mxGeometry x="838" y="-2570" width="200" height="40" as="geometry"/>
                </mxCell>
                <mxCell id="dDs-6-dp852NDUnf5HV8-2" value="1 : N" style="rounded=1;whiteSpace=wrap;html=1;sketch=1;hachureGap=4;jiggle=2;curveFitting=1;fontFamily=Comic Sans MS;fontSize=24;fillColor=#fad7ac;strokeColor=#990000;labelBackgroundColor=none;labelBorderColor=none;shadow=1;fontStyle=1;fontColor=#FFFFFF;strokeWidth=3;" parent="1" vertex="1">
                    <mxGeometry x="893" y="-2650" width="80" height="40" as="geometry"/>
                </mxCell>
                <mxCell id="9jyIuWUcS2FYYi_NkXNU-6" style="edgeStyle=none;sketch=1;hachureGap=4;jiggle=2;curveFitting=1;html=1;entryX=0.601;entryY=1.049;entryDx=0;entryDy=0;entryPerimeter=0;fontFamily=Comic Sans MS;fontSize=24;fontStyle=1;fontColor=#FFFFFF;strokeColor=#990000;strokeWidth=3;" parent="1" source="9jyIuWUcS2FYYi_NkXNU-1" target="9jyIuWUcS2FYYi_NkXNU-3" edge="1">
                    <mxGeometry relative="1" as="geometry"/>
                </mxCell>
                <mxCell id="9jyIuWUcS2FYYi_NkXNU-1" value="Roles" style="text;strokeColor=#990000;fillColor=#a20025;html=1;fontSize=24;fontStyle=1;verticalAlign=middle;align=center;rounded=1;glass=0;sketch=1;fontColor=#FFFFFF;gradientColor=none;shadow=1;arcSize=50;fontFamily=Comic Sans MS;strokeWidth=3;" parent="1" vertex="1">
                    <mxGeometry x="678" y="-2570" width="120" height="40" as="geometry"/>
                </mxCell>
                <mxCell id="9jyIuWUcS2FYYi_NkXNU-3" value="1 : N" style="rounded=1;whiteSpace=wrap;html=1;sketch=1;hachureGap=4;jiggle=2;curveFitting=1;fontFamily=Comic Sans MS;fontSize=24;fillColor=#fad7ac;strokeColor=#990000;labelBackgroundColor=none;labelBorderColor=none;shadow=1;fontStyle=1;fontColor=#FFFFFF;strokeWidth=3;" parent="1" vertex="1">
                    <mxGeometry x="693" y="-2650" width="80" height="40" as="geometry"/>
                </mxCell>
                <mxCell id="RxM9XD4o0YeJaacyj_vx-4" value="1 : 1" style="rounded=1;whiteSpace=wrap;html=1;sketch=1;hachureGap=4;jiggle=2;curveFitting=1;fontFamily=Comic Sans MS;fontSize=24;fillColor=#fad7ac;strokeColor=#FF99CC;labelBackgroundColor=none;labelBorderColor=none;shadow=1;fontStyle=1;fontColor=#FFFFFF;strokeWidth=3;" parent="1" vertex="1">
                    <mxGeometry x="535" y="-2920" width="80" height="40" as="geometry"/>
                </mxCell>
                <mxCell id="RxM9XD4o0YeJaacyj_vx-20" value="1 : 1" style="rounded=1;whiteSpace=wrap;html=1;sketch=1;hachureGap=4;jiggle=2;curveFitting=1;fontFamily=Comic Sans MS;fontSize=24;fillColor=#fad7ac;strokeColor=#FF99CC;labelBackgroundColor=none;labelBorderColor=none;shadow=1;fontStyle=1;fontColor=#FFFFFF;strokeWidth=3;" parent="1" vertex="1">
                    <mxGeometry x="340" y="-2840" width="80" height="40" as="geometry"/>
                </mxCell>
                <mxCell id="0WvfQL1xHhplHPzWFm92-19" value="Roles" style="text;strokeColor=#990000;fillColor=#a20025;html=1;fontSize=24;fontStyle=1;verticalAlign=middle;align=center;rounded=1;glass=0;sketch=1;fontColor=#FFFFFF;gradientColor=none;shadow=1;arcSize=50;fontFamily=Comic Sans MS;strokeWidth=3;" parent="1" vertex="1">
                    <mxGeometry x="678" y="-2570" width="120" height="40" as="geometry"/>
                </mxCell>
                <mxCell id="0WvfQL1xHhplHPzWFm92-20" value="SocialNetworks" style="text;strokeColor=#990000;fillColor=#a20025;html=1;fontSize=24;fontStyle=1;verticalAlign=middle;align=center;rounded=1;glass=0;sketch=1;fontColor=#FFFFFF;gradientColor=none;shadow=1;arcSize=50;fontFamily=Comic Sans MS;strokeWidth=3;" parent="1" vertex="1">
                    <mxGeometry x="838" y="-2570" width="200" height="40" as="geometry"/>
                </mxCell>
                <mxCell id="0WvfQL1xHhplHPzWFm92-21" value="Senioritys" style="text;strokeColor=#990000;fillColor=#e51400;fontSize=24;fontStyle=1;verticalAlign=middle;align=center;fontFamily=Comic Sans MS;html=1;fontColor=#FFFFFF;rounded=1;sketch=1;curveFitting=1;jiggle=2;shadow=1;arcSize=50;strokeWidth=3;" parent="1" vertex="1">
                    <mxGeometry x="460" y="-2570" width="160" height="40" as="geometry"/>
                </mxCell>
                <mxCell id="0WvfQL1xHhplHPzWFm92-23" value="Roles" style="text;strokeColor=#FFFFFF;fillColor=#a20025;html=1;fontSize=24;fontStyle=1;verticalAlign=middle;align=center;rounded=1;glass=0;sketch=1;fontColor=#FFFFFF;gradientColor=none;shadow=1;arcSize=50;fontFamily=Comic Sans MS;strokeWidth=3;" parent="1" vertex="1">
                    <mxGeometry x="678" y="-2570" width="120" height="40" as="geometry"/>
                </mxCell>
                <mxCell id="0WvfQL1xHhplHPzWFm92-24" value="SocialNetworks" style="text;strokeColor=#FFFFFF;fillColor=#a20025;html=1;fontSize=24;fontStyle=1;verticalAlign=middle;align=center;rounded=1;glass=0;sketch=1;fontColor=#FFFFFF;gradientColor=none;shadow=1;arcSize=50;fontFamily=Comic Sans MS;strokeWidth=3;" parent="1" vertex="1">
                    <mxGeometry x="838" y="-2570" width="200" height="40" as="geometry"/>
                </mxCell>
                <mxCell id="0WvfQL1xHhplHPzWFm92-25" value="Senioritys" style="text;strokeColor=#FFFFFF;fillColor=#e51400;fontSize=24;fontStyle=1;verticalAlign=middle;align=center;fontFamily=Comic Sans MS;html=1;fontColor=#FFFFFF;rounded=1;sketch=1;curveFitting=1;jiggle=2;shadow=1;arcSize=50;strokeWidth=3;" parent="1" vertex="1">
                    <mxGeometry x="460" y="-2570" width="160" height="40" as="geometry"/>
                </mxCell>
                <mxCell id="0WvfQL1xHhplHPzWFm92-30" value="1 : N" style="rounded=1;whiteSpace=wrap;html=1;sketch=1;hachureGap=4;jiggle=2;curveFitting=1;fontFamily=Comic Sans MS;fontSize=24;fillColor=#fad7ac;strokeColor=#FF99CC;labelBackgroundColor=none;labelBorderColor=none;shadow=1;fontStyle=1;fontColor=#FFFFFF;strokeWidth=3;" parent="1" vertex="1">
                    <mxGeometry x="693" y="-2650" width="80" height="40" as="geometry"/>
                </mxCell>
                <mxCell id="0WvfQL1xHhplHPzWFm92-31" value="1 : N" style="rounded=1;whiteSpace=wrap;html=1;sketch=1;hachureGap=4;jiggle=2;curveFitting=1;fontFamily=Comic Sans MS;fontSize=24;fillColor=#fad7ac;strokeColor=#FF99CC;labelBackgroundColor=none;labelBorderColor=none;shadow=1;fontStyle=1;fontColor=#FFFFFF;strokeWidth=3;" parent="1" vertex="1">
                    <mxGeometry x="498" y="-2650" width="80" height="40" as="geometry"/>
                </mxCell>
                <mxCell id="0WvfQL1xHhplHPzWFm92-32" value="1 : N" style="rounded=1;whiteSpace=wrap;html=1;sketch=1;hachureGap=4;jiggle=2;curveFitting=1;fontFamily=Comic Sans MS;fontSize=24;fillColor=#fad7ac;strokeColor=#FF99CC;labelBackgroundColor=none;labelBorderColor=none;shadow=1;fontStyle=1;fontColor=#FFFFFF;strokeWidth=3;" parent="1" vertex="1">
                    <mxGeometry x="893" y="-2650" width="80" height="40" as="geometry"/>
                </mxCell>
                <mxCell id="0WvfQL1xHhplHPzWFm92-33" value="1 : N" style="rounded=1;whiteSpace=wrap;html=1;sketch=1;hachureGap=4;jiggle=2;curveFitting=1;fontFamily=Comic Sans MS;fontSize=24;fillColor=#fad7ac;strokeColor=#FF99CC;labelBackgroundColor=none;labelBorderColor=none;shadow=1;fontStyle=1;fontColor=#FFFFFF;strokeWidth=3;" parent="1" vertex="1">
                    <mxGeometry x="998" y="-2760" width="80" height="40" as="geometry"/>
                </mxCell>
                <mxCell id="0WvfQL1xHhplHPzWFm92-38" value="1 : N" style="rounded=1;whiteSpace=wrap;html=1;sketch=1;hachureGap=4;jiggle=2;curveFitting=1;fontFamily=Comic Sans MS;fontSize=24;fillColor=#fad7ac;strokeColor=#FFFFFF;labelBackgroundColor=none;labelBorderColor=none;shadow=1;fontStyle=1;fontColor=#FFFFFF;strokeWidth=3;" parent="1" vertex="1">
                    <mxGeometry x="498" y="-2650" width="80" height="40" as="geometry"/>
                </mxCell>
                <mxCell id="0WvfQL1xHhplHPzWFm92-39" value="1 : N" style="rounded=1;whiteSpace=wrap;html=1;sketch=1;hachureGap=4;jiggle=2;curveFitting=1;fontFamily=Comic Sans MS;fontSize=24;fillColor=#fad7ac;strokeColor=#FFFFFF;labelBackgroundColor=none;labelBorderColor=none;shadow=1;fontStyle=1;fontColor=#FFFFFF;strokeWidth=3;" parent="1" vertex="1">
                    <mxGeometry x="693" y="-2650" width="80" height="40" as="geometry"/>
                </mxCell>
                <mxCell id="0WvfQL1xHhplHPzWFm92-40" value="1 : N" style="rounded=1;whiteSpace=wrap;html=1;sketch=1;hachureGap=4;jiggle=2;curveFitting=1;fontFamily=Comic Sans MS;fontSize=24;fillColor=#fad7ac;strokeColor=#FFFFFF;labelBackgroundColor=none;labelBorderColor=none;shadow=1;fontStyle=1;fontColor=#FFFFFF;strokeWidth=3;" parent="1" vertex="1">
                    <mxGeometry x="893" y="-2650" width="80" height="40" as="geometry"/>
                </mxCell>
                <mxCell id="0WvfQL1xHhplHPzWFm92-41" value="1 : N" style="rounded=1;whiteSpace=wrap;html=1;sketch=1;hachureGap=4;jiggle=2;curveFitting=1;fontFamily=Comic Sans MS;fontSize=24;fillColor=#fad7ac;strokeColor=#FFFFFF;labelBackgroundColor=none;labelBorderColor=none;shadow=1;fontStyle=1;fontColor=#FFFFFF;strokeWidth=3;" parent="1" vertex="1">
                    <mxGeometry x="998" y="-2760" width="80" height="40" as="geometry"/>
                </mxCell>
                <mxCell id="0WvfQL1xHhplHPzWFm92-42" value="N : N" style="rounded=1;whiteSpace=wrap;html=1;sketch=1;hachureGap=4;jiggle=2;curveFitting=1;fontFamily=Comic Sans MS;fontSize=24;fillColor=#fad7ac;strokeColor=#FFFFFF;labelBackgroundColor=none;labelBorderColor=none;shadow=1;fontStyle=1;fontColor=#FFFFFF;strokeWidth=3;" parent="1" vertex="1">
                    <mxGeometry x="150" y="-2760" width="80" height="40" as="geometry"/>
                </mxCell>
                <mxCell id="0WvfQL1xHhplHPzWFm92-43" value="1 : 1" style="rounded=1;whiteSpace=wrap;html=1;sketch=1;hachureGap=4;jiggle=2;curveFitting=1;fontFamily=Comic Sans MS;fontSize=24;fillColor=#fad7ac;strokeColor=#FFFFFF;labelBackgroundColor=none;labelBorderColor=none;shadow=1;fontStyle=1;fontColor=#FFFFFF;strokeWidth=3;" parent="1" vertex="1">
                    <mxGeometry x="340" y="-2840" width="80" height="40" as="geometry"/>
                </mxCell>
                <mxCell id="0WvfQL1xHhplHPzWFm92-45" value="1 : N" style="rounded=1;whiteSpace=wrap;html=1;sketch=1;hachureGap=4;jiggle=2;curveFitting=1;fontFamily=Comic Sans MS;fontSize=24;fillColor=#aa291d;strokeColor=#FFFFFF;labelBackgroundColor=none;labelBorderColor=none;shadow=1;fontStyle=1;strokeWidth=3;fontColor=#ffffff;" parent="1" vertex="1">
                    <mxGeometry x="851" y="-2920" width="86" height="40" as="geometry"/>
                </mxCell>
                <mxCell id="0WvfQL1xHhplHPzWFm92-46" value="1 : 1" style="rounded=1;whiteSpace=wrap;html=1;sketch=1;hachureGap=4;jiggle=2;curveFitting=1;fontFamily=Comic Sans MS;fontSize=24;fillColor=#fad7ac;strokeColor=#FFFFFF;labelBackgroundColor=none;labelBorderColor=none;shadow=1;fontStyle=1;fontColor=#FFFFFF;strokeWidth=3;" parent="1" vertex="1">
                    <mxGeometry x="535" y="-2920" width="80" height="40" as="geometry"/>
                </mxCell>
                <mxCell id="0WvfQL1xHhplHPzWFm92-47" value="1 : 1" style="rounded=1;whiteSpace=wrap;html=1;sketch=1;hachureGap=4;jiggle=2;curveFitting=1;fontFamily=Comic Sans MS;fontSize=24;fillColor=#fad7ac;strokeColor=#FFFFFF;labelBackgroundColor=none;labelBorderColor=none;shadow=1;fontStyle=1;fontColor=#FFFFFF;strokeWidth=3;" parent="1" vertex="1">
                    <mxGeometry x="340" y="-3000" width="80" height="40" as="geometry"/>
                </mxCell>
                <mxCell id="0WvfQL1xHhplHPzWFm92-48" value="N : N" style="rounded=1;whiteSpace=wrap;html=1;sketch=1;hachureGap=4;jiggle=2;curveFitting=1;fontFamily=Comic Sans MS;fontSize=24;fillColor=#aa291d;strokeColor=#FFFFFF;labelBackgroundColor=none;labelBorderColor=none;shadow=1;fontStyle=1;strokeWidth=3;fontColor=#ffffff;" parent="1" vertex="1">
                    <mxGeometry x="693" y="-3000" width="80" height="40" as="geometry"/>
                </mxCell>
                <mxCell id="0WvfQL1xHhplHPzWFm92-52" value="1 : N" style="rounded=1;whiteSpace=wrap;html=1;sketch=1;hachureGap=4;jiggle=2;curveFitting=1;fontFamily=Comic Sans MS;fontSize=24;fillColor=#fad7ac;strokeColor=#FFFFFF;labelBackgroundColor=none;labelBorderColor=none;shadow=1;fontStyle=1;fontColor=#FFFFFF;strokeWidth=3;" parent="1" vertex="1">
                    <mxGeometry x="693" y="-2650" width="80" height="40" as="geometry"/>
                </mxCell>
                <mxCell id="0WvfQL1xHhplHPzWFm92-53" value="1 : N" style="rounded=1;whiteSpace=wrap;html=1;sketch=1;hachureGap=4;jiggle=2;curveFitting=1;fontFamily=Comic Sans MS;fontSize=24;fillColor=#fad7ac;strokeColor=#FFFFFF;labelBackgroundColor=none;labelBorderColor=none;shadow=1;fontStyle=1;fontColor=#FFFFFF;strokeWidth=3;" parent="1" vertex="1">
                    <mxGeometry x="893" y="-2650" width="80" height="40" as="geometry"/>
                </mxCell>
                <mxCell id="0WvfQL1xHhplHPzWFm92-54" value="1 : N" style="rounded=1;whiteSpace=wrap;html=1;sketch=1;hachureGap=4;jiggle=2;curveFitting=1;fontFamily=Comic Sans MS;fontSize=24;fillColor=#fad7ac;strokeColor=#FFFFFF;labelBackgroundColor=none;labelBorderColor=none;shadow=1;fontStyle=1;fontColor=#FFFFFF;strokeWidth=3;" parent="1" vertex="1">
                    <mxGeometry x="498" y="-2650" width="80" height="40" as="geometry"/>
                </mxCell>
                <mxCell id="0WvfQL1xHhplHPzWFm92-55" value="N : N" style="rounded=1;whiteSpace=wrap;html=1;sketch=1;hachureGap=4;jiggle=2;curveFitting=1;fontFamily=Comic Sans MS;fontSize=24;fillColor=#fad7ac;strokeColor=#FFFFFF;labelBackgroundColor=none;labelBorderColor=none;shadow=1;fontStyle=1;fontColor=#FFFFFF;strokeWidth=3;" parent="1" vertex="1">
                    <mxGeometry x="150" y="-2760" width="80" height="40" as="geometry"/>
                </mxCell>
                <mxCell id="0WvfQL1xHhplHPzWFm92-56" value="1 : N" style="rounded=1;whiteSpace=wrap;html=1;sketch=1;hachureGap=4;jiggle=2;curveFitting=1;fontFamily=Comic Sans MS;fontSize=24;fillColor=#fad7ac;strokeColor=#FFFFFF;labelBackgroundColor=none;labelBorderColor=none;shadow=1;fontStyle=1;fontColor=#FFFFFF;strokeWidth=3;" parent="1" vertex="1">
                    <mxGeometry x="998" y="-2760" width="80" height="40" as="geometry"/>
                </mxCell>
                <mxCell id="0WvfQL1xHhplHPzWFm92-58" value="1 : 1" style="rounded=1;whiteSpace=wrap;html=1;sketch=1;hachureGap=4;jiggle=2;curveFitting=1;fontFamily=Comic Sans MS;fontSize=24;fillColor=#fad7ac;strokeColor=#FFFFFF;labelBackgroundColor=none;labelBorderColor=none;shadow=1;fontStyle=1;fontColor=#FFFFFF;strokeWidth=3;" parent="1" vertex="1">
                    <mxGeometry x="340" y="-2840" width="80" height="40" as="geometry"/>
                </mxCell>
                <mxCell id="0WvfQL1xHhplHPzWFm92-59" value="1 : 1" style="rounded=1;whiteSpace=wrap;html=1;sketch=1;hachureGap=4;jiggle=2;curveFitting=1;fontFamily=Comic Sans MS;fontSize=24;fillColor=#fad7ac;strokeColor=#FFFFFF;labelBackgroundColor=none;labelBorderColor=none;shadow=1;fontStyle=1;fontColor=#FFFFFF;strokeWidth=3;" parent="1" vertex="1">
                    <mxGeometry x="535" y="-2920" width="80" height="40" as="geometry"/>
                </mxCell>
                <mxCell id="0WvfQL1xHhplHPzWFm92-63" value="1 : N" style="rounded=1;whiteSpace=wrap;html=1;sketch=1;hachureGap=4;jiggle=2;curveFitting=1;fontFamily=Comic Sans MS;fontSize=24;fillColor=#aa291d;strokeColor=#B20000;labelBackgroundColor=none;labelBorderColor=none;shadow=1;fontStyle=1;strokeWidth=3;fontColor=#ffffff;" parent="1" vertex="1">
                    <mxGeometry x="693" y="-2650" width="80" height="40" as="geometry"/>
                </mxCell>
                <mxCell id="0WvfQL1xHhplHPzWFm92-64" value="1 : N" style="rounded=1;whiteSpace=wrap;html=1;sketch=1;hachureGap=4;jiggle=2;curveFitting=1;fontFamily=Comic Sans MS;fontSize=24;fillColor=#aa291d;strokeColor=#B20000;labelBackgroundColor=none;labelBorderColor=none;shadow=1;fontStyle=1;strokeWidth=3;fontColor=#ffffff;" parent="1" vertex="1">
                    <mxGeometry x="893" y="-2650" width="80" height="40" as="geometry"/>
                </mxCell>
                <mxCell id="0WvfQL1xHhplHPzWFm92-65" value="1 : N" style="rounded=1;whiteSpace=wrap;html=1;sketch=1;hachureGap=4;jiggle=2;curveFitting=1;fontFamily=Comic Sans MS;fontSize=24;fillColor=#aa291d;strokeColor=#B20000;labelBackgroundColor=none;labelBorderColor=none;shadow=1;fontStyle=1;strokeWidth=3;fontColor=#ffffff;" parent="1" vertex="1">
                    <mxGeometry x="498" y="-2650" width="80" height="40" as="geometry"/>
                </mxCell>
                <mxCell id="0WvfQL1xHhplHPzWFm92-66" value="N : N" style="rounded=1;whiteSpace=wrap;html=1;sketch=1;hachureGap=4;jiggle=2;curveFitting=1;fontFamily=Comic Sans MS;fontSize=24;fillColor=#aa291d;strokeColor=#FFFFFF;labelBackgroundColor=none;labelBorderColor=none;shadow=1;fontStyle=1;strokeWidth=3;fontColor=#ffffff;" parent="1" vertex="1">
                    <mxGeometry x="150" y="-2760" width="80" height="40" as="geometry"/>
                </mxCell>
                <mxCell id="0WvfQL1xHhplHPzWFm92-67" value="1 : N" style="rounded=1;whiteSpace=wrap;html=1;sketch=1;hachureGap=4;jiggle=2;curveFitting=1;fontFamily=Comic Sans MS;fontSize=24;fillColor=#aa291d;strokeColor=#FFFFFF;labelBackgroundColor=none;labelBorderColor=none;shadow=1;fontStyle=1;strokeWidth=3;fontColor=#ffffff;" parent="1" vertex="1">
                    <mxGeometry x="998" y="-2760" width="80" height="40" as="geometry"/>
                </mxCell>
                <mxCell id="0WvfQL1xHhplHPzWFm92-68" value="1 : N" style="rounded=1;whiteSpace=wrap;html=1;sketch=1;hachureGap=4;jiggle=2;curveFitting=1;fontFamily=Comic Sans MS;fontSize=24;fillColor=#aa291d;strokeColor=#FFFFFF;labelBackgroundColor=none;labelBorderColor=none;shadow=1;fontStyle=1;strokeWidth=3;fontColor=#ffffff;" parent="1" vertex="1">
                    <mxGeometry x="698" y="-2840" width="80" height="40" as="geometry"/>
                </mxCell>
                <mxCell id="0WvfQL1xHhplHPzWFm92-69" value="1 : 1" style="rounded=1;whiteSpace=wrap;html=1;sketch=1;hachureGap=4;jiggle=2;curveFitting=1;fontFamily=Comic Sans MS;fontSize=24;fillColor=#aa291d;strokeColor=#B20000;labelBackgroundColor=none;labelBorderColor=none;shadow=1;fontStyle=1;strokeWidth=3;fontColor=#ffffff;" parent="1" vertex="1">
                    <mxGeometry x="340" y="-2840" width="80" height="40" as="geometry"/>
                </mxCell>
                <mxCell id="0WvfQL1xHhplHPzWFm92-70" value="1 : 1" style="rounded=1;whiteSpace=wrap;html=1;sketch=1;hachureGap=4;jiggle=2;curveFitting=1;fontFamily=Comic Sans MS;fontSize=24;fillColor=#aa291d;strokeColor=#FFFFFF;labelBackgroundColor=none;labelBorderColor=none;shadow=1;fontStyle=1;strokeWidth=3;fontColor=#ffffff;" parent="1" vertex="1">
                    <mxGeometry x="535" y="-2920" width="80" height="40" as="geometry"/>
                </mxCell>
                <mxCell id="0WvfQL1xHhplHPzWFm92-71" value="1 : 1" style="rounded=1;whiteSpace=wrap;html=1;sketch=1;hachureGap=4;jiggle=2;curveFitting=1;fontFamily=Comic Sans MS;fontSize=24;fillColor=#aa291d;strokeColor=#FFFFFF;labelBackgroundColor=none;labelBorderColor=none;shadow=1;fontStyle=1;strokeWidth=3;fontColor=#ffffff;" parent="1" vertex="1">
                    <mxGeometry x="340" y="-3000" width="80" height="40" as="geometry"/>
                </mxCell>
                <mxCell id="0WvfQL1xHhplHPzWFm92-75" value="1 : N" style="rounded=1;whiteSpace=wrap;html=1;sketch=1;hachureGap=4;jiggle=2;curveFitting=1;fontFamily=Comic Sans MS;fontSize=24;fillColor=#aa291d;strokeColor=#B20000;labelBackgroundColor=none;labelBorderColor=none;shadow=1;fontStyle=1;strokeWidth=3;fontColor=#ffffff;" parent="1" vertex="1">
                    <mxGeometry x="495.5" y="-2650" width="80" height="40" as="geometry"/>
                </mxCell>
                <mxCell id="0WvfQL1xHhplHPzWFm92-76" value="1 : N" style="rounded=1;whiteSpace=wrap;html=1;sketch=1;hachureGap=4;jiggle=2;curveFitting=1;fontFamily=Comic Sans MS;fontSize=24;fillColor=#aa291d;strokeColor=#B20000;labelBackgroundColor=none;labelBorderColor=none;shadow=1;fontStyle=1;strokeWidth=3;fontColor=#ffffff;" parent="1" vertex="1">
                    <mxGeometry x="690.5" y="-2650" width="80" height="40" as="geometry"/>
                </mxCell>
                <mxCell id="0WvfQL1xHhplHPzWFm92-77" value="1 : N" style="rounded=1;whiteSpace=wrap;html=1;sketch=1;hachureGap=4;jiggle=2;curveFitting=1;fontFamily=Comic Sans MS;fontSize=24;fillColor=#aa291d;strokeColor=#B20000;labelBackgroundColor=none;labelBorderColor=none;shadow=1;fontStyle=1;strokeWidth=3;fontColor=#ffffff;" parent="1" vertex="1">
                    <mxGeometry x="890.5" y="-2650" width="80" height="40" as="geometry"/>
                </mxCell>
                <mxCell id="0WvfQL1xHhplHPzWFm92-78" value="1 : N" style="rounded=1;whiteSpace=wrap;html=1;sketch=1;hachureGap=4;jiggle=2;curveFitting=1;fontFamily=Comic Sans MS;fontSize=24;fillColor=#aa291d;strokeColor=#B20000;labelBackgroundColor=none;labelBorderColor=none;shadow=1;fontStyle=1;strokeWidth=3;fontColor=#ffffff;" parent="1" vertex="1">
                    <mxGeometry x="493" y="-2650" width="80" height="40" as="geometry"/>
                </mxCell>
                <mxCell id="0WvfQL1xHhplHPzWFm92-79" value="1 : N" style="rounded=1;whiteSpace=wrap;html=1;sketch=1;hachureGap=4;jiggle=2;curveFitting=1;fontFamily=Comic Sans MS;fontSize=24;fillColor=#aa291d;strokeColor=#B20000;labelBackgroundColor=none;labelBorderColor=none;shadow=1;fontStyle=1;strokeWidth=3;fontColor=#ffffff;" parent="1" vertex="1">
                    <mxGeometry x="688" y="-2650" width="80" height="40" as="geometry"/>
                </mxCell>
                <mxCell id="0WvfQL1xHhplHPzWFm92-80" value="1 : N" style="rounded=1;whiteSpace=wrap;html=1;sketch=1;hachureGap=4;jiggle=2;curveFitting=1;fontFamily=Comic Sans MS;fontSize=24;fillColor=#aa291d;strokeColor=#B20000;labelBackgroundColor=none;labelBorderColor=none;shadow=1;fontStyle=1;strokeWidth=3;fontColor=#ffffff;" parent="1" vertex="1">
                    <mxGeometry x="888" y="-2650" width="80" height="40" as="geometry"/>
                </mxCell>
                <mxCell id="0WvfQL1xHhplHPzWFm92-81" value="1 : N" style="rounded=1;whiteSpace=wrap;html=1;sketch=1;hachureGap=4;jiggle=2;curveFitting=1;fontFamily=Comic Sans MS;fontSize=24;fillColor=#aa291d;strokeColor=#FFFFFF;labelBackgroundColor=none;labelBorderColor=none;shadow=1;fontStyle=1;strokeWidth=3;fontColor=#ffffff;" parent="1" vertex="1">
                    <mxGeometry x="493" y="-2650" width="80" height="40" as="geometry"/>
                </mxCell>
                <mxCell id="0WvfQL1xHhplHPzWFm92-82" value="1 : N" style="rounded=1;whiteSpace=wrap;html=1;sketch=1;hachureGap=4;jiggle=2;curveFitting=1;fontFamily=Comic Sans MS;fontSize=24;fillColor=#aa291d;strokeColor=#FFFFFF;labelBackgroundColor=none;labelBorderColor=none;shadow=1;fontStyle=1;strokeWidth=3;fontColor=#ffffff;" parent="1" vertex="1">
                    <mxGeometry x="688" y="-2650" width="80" height="40" as="geometry"/>
                </mxCell>
                <mxCell id="0WvfQL1xHhplHPzWFm92-83" value="1 : N" style="rounded=1;whiteSpace=wrap;html=1;sketch=1;hachureGap=4;jiggle=2;curveFitting=1;fontFamily=Comic Sans MS;fontSize=24;fillColor=#aa291d;strokeColor=#FFFFFF;labelBackgroundColor=none;labelBorderColor=none;shadow=1;fontStyle=1;strokeWidth=3;fontColor=#ffffff;" parent="1" vertex="1">
                    <mxGeometry x="888" y="-2650" width="80" height="40" as="geometry"/>
                </mxCell>
                <mxCell id="0WvfQL1xHhplHPzWFm92-84" value="1 : 1" style="rounded=1;whiteSpace=wrap;html=1;sketch=1;hachureGap=4;jiggle=2;curveFitting=1;fontFamily=Comic Sans MS;fontSize=24;fillColor=#aa291d;strokeColor=#FFFFFF;labelBackgroundColor=none;labelBorderColor=none;shadow=1;fontStyle=1;strokeWidth=3;fontColor=#ffffff;" parent="1" vertex="1">
                    <mxGeometry x="340" y="-2840" width="80" height="40" as="geometry"/>
                </mxCell>
                <mxCell id="KvpyyPjUs_sRztAU0ewq-7" value="" style="edgeStyle=none;sketch=1;hachureGap=4;jiggle=2;curveFitting=1;html=1;strokeColor=#990000;strokeWidth=3;fontFamily=Comic Sans MS;fontSize=30;fontColor=#FFFFFF;entryX=0.5;entryY=0;entryDx=0;entryDy=0;" parent="1" source="5OdARO7A_S1EnH6ADHS4-1" target="0WvfQL1xHhplHPzWFm92-48" edge="1">
                    <mxGeometry relative="1" as="geometry"/>
                </mxCell>
                <mxCell id="5OdARO7A_S1EnH6ADHS4-1" value="Projects" style="text;strokeColor=#FFFFFF;fillColor=#a20025;fontSize=24;fontStyle=1;verticalAlign=middle;align=center;rounded=1;shadow=1;glass=0;sketch=1;fontColor=#ffffff;fontFamily=Comic Sans MS;labelBackgroundColor=none;labelBorderColor=none;arcSize=50;strokeWidth=3;" parent="1" vertex="1">
                    <mxGeometry x="633" y="-3080" width="200" height="40" as="geometry"/>
                </mxCell>
                <mxCell id="KvpyyPjUs_sRztAU0ewq-6" value="" style="edgeStyle=none;sketch=1;hachureGap=4;jiggle=2;curveFitting=1;html=1;strokeColor=#990000;strokeWidth=3;fontFamily=Comic Sans MS;fontSize=30;fontColor=#FFFFFF;entryX=0.5;entryY=1;entryDx=0;entryDy=0;" parent="1" source="wxILQ9sCKDCoy9e699GJ-1" target="0WvfQL1xHhplHPzWFm92-48" edge="1">
                    <mxGeometry relative="1" as="geometry">
                        <mxPoint x="738" y="-2953" as="targetPoint"/>
                    </mxGeometry>
                </mxCell>
                <mxCell id="KvpyyPjUs_sRztAU0ewq-8" value="" style="edgeStyle=none;sketch=1;hachureGap=4;jiggle=2;curveFitting=1;html=1;strokeColor=#990000;strokeWidth=3;fontFamily=Comic Sans MS;fontSize=30;fontColor=#FFFFFF;" parent="1" source="wxILQ9sCKDCoy9e699GJ-1" target="0WvfQL1xHhplHPzWFm92-70" edge="1">
                    <mxGeometry relative="1" as="geometry"/>
                </mxCell>
                <mxCell id="KvpyyPjUs_sRztAU0ewq-9" value="" style="edgeStyle=none;sketch=1;hachureGap=4;jiggle=2;curveFitting=1;html=1;strokeColor=#990000;strokeWidth=3;fontFamily=Comic Sans MS;fontSize=30;fontColor=#FFFFFF;" parent="1" source="wxILQ9sCKDCoy9e699GJ-1" target="0WvfQL1xHhplHPzWFm92-45" edge="1">
                    <mxGeometry relative="1" as="geometry"/>
                </mxCell>
                <mxCell id="KvpyyPjUs_sRztAU0ewq-10" value="" style="edgeStyle=none;sketch=1;hachureGap=4;jiggle=2;curveFitting=1;html=1;strokeColor=#990000;strokeWidth=3;fontFamily=Comic Sans MS;fontSize=30;fontColor=#FFFFFF;" parent="1" source="wxILQ9sCKDCoy9e699GJ-1" target="0WvfQL1xHhplHPzWFm92-68" edge="1">
                    <mxGeometry relative="1" as="geometry"/>
                </mxCell>
                <mxCell id="wxILQ9sCKDCoy9e699GJ-1" value="Teams" style="text;strokeColor=#FFFFFF;fillColor=#a20025;fontSize=24;fontStyle=1;verticalAlign=middle;align=center;html=1;fontColor=#ffffff;sketch=1;curveFitting=1;jiggle=2;shadow=1;glass=0;rounded=1;arcSize=50;fontFamily=Comic Sans MS;strokeWidth=3;" parent="1" vertex="1">
                    <mxGeometry x="681.5" y="-2923" width="113" height="40" as="geometry"/>
                </mxCell>
                <mxCell id="KvpyyPjUs_sRztAU0ewq-1" value="Inscriptions" style="text;strokeColor=#FFFFFF;fillColor=#a20025;fontSize=24;fontStyle=1;verticalAlign=middle;align=center;rounded=1;shadow=1;glass=0;labelBackgroundColor=none;labelBorderColor=none;sketch=1;hachureGap=4;jiggle=2;curveFitting=1;fontFamily=Comic Sans MS;html=1;fontColor=#ffffff;arcSize=50;strokeWidth=3;" parent="1" vertex="1">
                    <mxGeometry x="289.5" y="-2923" width="181" height="40" as="geometry"/>
                </mxCell>
            </root>
        </mxGraphModel>
    </diagram>
    <diagram id="zZyZ-m2vZYpSDQ8pteQ-" name="Api Relations">
        <mxGraphModel dx="746" dy="598" grid="1" gridSize="10" guides="1" tooltips="1" connect="1" arrows="1" fold="1" page="1" pageScale="1" pageWidth="1169" pageHeight="827" math="0" shadow="0">
            <root>
                <mxCell id="0"/>
                <mxCell id="1" parent="0"/>
                <mxCell id="LQQNJIsiJIo3_5g7R6dQ-74" value="&amp;nbsp;Api Rest Full" style="swimlane;whiteSpace=wrap;html=1;sketch=1;hachureGap=4;jiggle=2;curveFitting=1;fontFamily=Architects Daughter;fontSource=https%3A%2F%2Ffonts.googleapis.com%2Fcss%3Ffamily%3DArchitects%2BDaughter;fontSize=20;startSize=29;swimlaneFillColor=#999999;shadow=1;rounded=1;arcSize=29;fillColor=#e51400;fontColor=#ffffff;strokeColor=#990000;" parent="1" vertex="1">
                    <mxGeometry x="300" y="123.36999999999999" width="480" height="475.25" as="geometry"/>
                </mxCell>
                <mxCell id="LQQNJIsiJIo3_5g7R6dQ-27" style="edgeStyle=none;sketch=1;hachureGap=4;jiggle=2;curveFitting=1;html=1;fontFamily=Architects Daughter;fontSource=https%3A%2F%2Ffonts.googleapis.com%2Fcss%3Ffamily%3DArchitects%2BDaughter;fontSize=16;strokeColor=#990000;" parent="1" source="LQQNJIsiJIo3_5g7R6dQ-2" target="LQQNJIsiJIo3_5g7R6dQ-25" edge="1">
                    <mxGeometry relative="1" as="geometry">
                        <mxPoint x="490" y="268" as="targetPoint"/>
                    </mxGeometry>
                </mxCell>
                <mxCell id="LQQNJIsiJIo3_5g7R6dQ-2" value="" style="fontColor=#0066CC;verticalAlign=top;verticalLabelPosition=bottom;labelPosition=center;align=center;html=1;outlineConnect=0;fillColor=#6666FF;strokeColor=#CCCCFF;gradientColor=none;gradientDirection=north;strokeWidth=2;shape=mxgraph.networks.pc;hachureGap=4;fontFamily=Architects Daughter;fontSource=https%3A%2F%2Ffonts.googleapis.com%2Fcss%3Ffamily%3DArchitects%2BDaughter;fontSize=20;" parent="1" vertex="1">
                    <mxGeometry x="333.75" y="170" width="117.5" height="80" as="geometry"/>
                </mxCell>
                <mxCell id="LQQNJIsiJIo3_5g7R6dQ-68" style="edgeStyle=none;sketch=1;hachureGap=4;jiggle=2;curveFitting=1;html=1;fontFamily=Architects Daughter;fontSource=https%3A%2F%2Ffonts.googleapis.com%2Fcss%3Ffamily%3DArchitects%2BDaughter;fontSize=16;exitX=0.85;exitY=0.5;exitDx=0;exitDy=0;exitPerimeter=0;strokeColor=#990000;" parent="1" source="LQQNJIsiJIo3_5g7R6dQ-7" target="LQQNJIsiJIo3_5g7R6dQ-25" edge="1">
                    <mxGeometry relative="1" as="geometry">
                        <mxPoint x="470" y="380" as="sourcePoint"/>
                    </mxGeometry>
                </mxCell>
                <mxCell id="LQQNJIsiJIo3_5g7R6dQ-7" value="" style="fontColor=#0066CC;verticalAlign=top;verticalLabelPosition=bottom;labelPosition=center;align=center;html=1;outlineConnect=0;fillColor=#CCCCCC;strokeColor=#7F00FF;gradientColor=none;gradientDirection=north;strokeWidth=2;shape=mxgraph.networks.laptop;hachureGap=4;fontFamily=Architects Daughter;fontSource=https%3A%2F%2Ffonts.googleapis.com%2Fcss%3Ffamily%3DArchitects%2BDaughter;fontSize=20;" parent="1" vertex="1">
                    <mxGeometry x="329.75" y="321" width="118" height="80" as="geometry"/>
                </mxCell>
                <mxCell id="LQQNJIsiJIo3_5g7R6dQ-40" style="edgeStyle=none;sketch=1;hachureGap=4;jiggle=2;curveFitting=1;html=1;fontFamily=Architects Daughter;fontSource=https%3A%2F%2Ffonts.googleapis.com%2Fcss%3Ffamily%3DArchitects%2BDaughter;fontSize=16;exitX=0.015;exitY=0.985;exitDx=0;exitDy=0;exitPerimeter=0;strokeColor=#990000;" parent="1" source="LQQNJIsiJIo3_5g7R6dQ-12" target="LQQNJIsiJIo3_5g7R6dQ-25" edge="1">
                    <mxGeometry relative="1" as="geometry"/>
                </mxCell>
                <mxCell id="LQQNJIsiJIo3_5g7R6dQ-12" value="" style="points=[[0.015,0.015,0],[0.985,0.015,0],[0.985,0.985,0],[0.015,0.985,0],[0.25,0,0],[0.5,0,0],[0.75,0,0],[1,0.25,0],[1,0.5,0],[1,0.75,0],[0.75,1,0],[0.5,1,0],[0.25,1,0],[0,0.75,0],[0,0.5,0],[0,0.25,0]];verticalLabelPosition=bottom;html=1;verticalAlign=top;aspect=fixed;align=center;pointerEvents=1;shape=mxgraph.cisco19.cell_phone;fillColor=#CC99FF;strokeColor=#B20000;hachureGap=4;fontFamily=Architects Daughter;fontSource=https%3A%2F%2Ffonts.googleapis.com%2Fcss%3Ffamily%3DArchitects%2BDaughter;fontSize=20;fontColor=#ffffff;" parent="1" vertex="1">
                    <mxGeometry x="706.5" y="180" width="30" height="60" as="geometry"/>
                </mxCell>
                <mxCell id="LQQNJIsiJIo3_5g7R6dQ-47" style="edgeStyle=none;sketch=1;hachureGap=4;jiggle=2;curveFitting=1;html=1;fontFamily=Architects Daughter;fontSource=https%3A%2F%2Ffonts.googleapis.com%2Fcss%3Ffamily%3DArchitects%2BDaughter;fontSize=16;exitX=0.015;exitY=0.015;exitDx=0;exitDy=0;exitPerimeter=0;strokeColor=#990000;" parent="1" source="LQQNJIsiJIo3_5g7R6dQ-64" target="LQQNJIsiJIo3_5g7R6dQ-25" edge="1">
                    <mxGeometry relative="1" as="geometry">
                        <mxPoint x="692" y="461.42625386996906" as="sourcePoint"/>
                    </mxGeometry>
                </mxCell>
                <mxCell id="LQQNJIsiJIo3_5g7R6dQ-26" style="edgeStyle=none;sketch=1;hachureGap=4;jiggle=2;curveFitting=1;html=1;fontFamily=Architects Daughter;fontSource=https%3A%2F%2Ffonts.googleapis.com%2Fcss%3Ffamily%3DArchitects%2BDaughter;fontSize=16;strokeColor=#990000;" parent="1" source="LQQNJIsiJIo3_5g7R6dQ-25" target="LQQNJIsiJIo3_5g7R6dQ-2" edge="1">
                    <mxGeometry relative="1" as="geometry"/>
                </mxCell>
                <mxCell id="LQQNJIsiJIo3_5g7R6dQ-39" style="edgeStyle=none;sketch=1;hachureGap=4;jiggle=2;curveFitting=1;html=1;entryX=0;entryY=0.5;entryDx=0;entryDy=0;entryPerimeter=0;fontFamily=Architects Daughter;fontSource=https%3A%2F%2Ffonts.googleapis.com%2Fcss%3Ffamily%3DArchitects%2BDaughter;fontSize=16;strokeColor=#990000;" parent="1" source="LQQNJIsiJIo3_5g7R6dQ-25" target="LQQNJIsiJIo3_5g7R6dQ-33" edge="1">
                    <mxGeometry relative="1" as="geometry"/>
                </mxCell>
                <mxCell id="LQQNJIsiJIo3_5g7R6dQ-41" style="edgeStyle=none;sketch=1;hachureGap=4;jiggle=2;curveFitting=1;html=1;entryX=0.015;entryY=0.985;entryDx=0;entryDy=0;entryPerimeter=0;fontFamily=Architects Daughter;fontSource=https%3A%2F%2Ffonts.googleapis.com%2Fcss%3Ffamily%3DArchitects%2BDaughter;fontSize=16;strokeColor=#990000;" parent="1" source="LQQNJIsiJIo3_5g7R6dQ-25" target="LQQNJIsiJIo3_5g7R6dQ-12" edge="1">
                    <mxGeometry relative="1" as="geometry"/>
                </mxCell>
                <mxCell id="LQQNJIsiJIo3_5g7R6dQ-48" style="edgeStyle=none;sketch=1;hachureGap=4;jiggle=2;curveFitting=1;html=1;fontFamily=Architects Daughter;fontSource=https%3A%2F%2Ffonts.googleapis.com%2Fcss%3Ffamily%3DArchitects%2BDaughter;fontSize=16;entryX=0.015;entryY=0.015;entryDx=0;entryDy=0;entryPerimeter=0;strokeColor=#990000;" parent="1" source="LQQNJIsiJIo3_5g7R6dQ-25" target="LQQNJIsiJIo3_5g7R6dQ-64" edge="1">
                    <mxGeometry relative="1" as="geometry">
                        <mxPoint x="680" y="480" as="targetPoint"/>
                    </mxGeometry>
                </mxCell>
                <mxCell id="LQQNJIsiJIo3_5g7R6dQ-58" style="edgeStyle=none;sketch=1;hachureGap=4;jiggle=2;curveFitting=1;html=1;fontFamily=Architects Daughter;fontSource=https%3A%2F%2Ffonts.googleapis.com%2Fcss%3Ffamily%3DArchitects%2BDaughter;fontSize=16;strokeColor=#990000;" parent="1" source="LQQNJIsiJIo3_5g7R6dQ-25" target="LQQNJIsiJIo3_5g7R6dQ-53" edge="1">
                    <mxGeometry relative="1" as="geometry"/>
                </mxCell>
                <mxCell id="LQQNJIsiJIo3_5g7R6dQ-66" style="edgeStyle=none;sketch=1;hachureGap=4;jiggle=2;curveFitting=1;html=1;entryX=0.5;entryY=1;entryDx=0;entryDy=0;entryPerimeter=0;fontFamily=Architects Daughter;fontSource=https%3A%2F%2Ffonts.googleapis.com%2Fcss%3Ffamily%3DArchitects%2BDaughter;fontSize=16;strokeColor=#990000;" parent="1" source="LQQNJIsiJIo3_5g7R6dQ-25" target="LQQNJIsiJIo3_5g7R6dQ-56" edge="1">
                    <mxGeometry relative="1" as="geometry"/>
                </mxCell>
                <mxCell id="LQQNJIsiJIo3_5g7R6dQ-69" style="edgeStyle=none;sketch=1;hachureGap=4;jiggle=2;curveFitting=1;html=1;entryX=0.85;entryY=0.5;entryDx=0;entryDy=0;entryPerimeter=0;fontFamily=Architects Daughter;fontSource=https%3A%2F%2Ffonts.googleapis.com%2Fcss%3Ffamily%3DArchitects%2BDaughter;fontSize=16;strokeColor=#990000;" parent="1" source="LQQNJIsiJIo3_5g7R6dQ-25" target="LQQNJIsiJIo3_5g7R6dQ-7" edge="1">
                    <mxGeometry relative="1" as="geometry"/>
                </mxCell>
                <mxCell id="LQQNJIsiJIo3_5g7R6dQ-71" style="edgeStyle=none;sketch=1;hachureGap=4;jiggle=2;curveFitting=1;html=1;fontFamily=Architects Daughter;fontSource=https%3A%2F%2Ffonts.googleapis.com%2Fcss%3Ffamily%3DArchitects%2BDaughter;fontSize=16;strokeColor=#990000;" parent="1" source="LQQNJIsiJIo3_5g7R6dQ-25" target="LQQNJIsiJIo3_5g7R6dQ-59" edge="1">
                    <mxGeometry relative="1" as="geometry"/>
                </mxCell>
                <mxCell id="LQQNJIsiJIo3_5g7R6dQ-25" value="" style="pointerEvents=1;shadow=0;dashed=0;html=1;strokeColor=#990000;fillColor=#DF8C42;labelPosition=center;verticalLabelPosition=bottom;verticalAlign=top;align=center;outlineConnect=0;shape=mxgraph.veeam2.restful_api;hachureGap=4;fontFamily=Architects Daughter;fontSource=https%3A%2F%2Ffonts.googleapis.com%2Fcss%3Ffamily%3DArchitects%2BDaughter;fontSize=20;aspect=fixed;" parent="1" vertex="1">
                    <mxGeometry x="520" y="321" width="80" height="80" as="geometry"/>
                </mxCell>
                <mxCell id="LQQNJIsiJIo3_5g7R6dQ-38" style="edgeStyle=none;sketch=1;hachureGap=4;jiggle=2;curveFitting=1;html=1;fontFamily=Architects Daughter;fontSource=https%3A%2F%2Ffonts.googleapis.com%2Fcss%3Ffamily%3DArchitects%2BDaughter;fontSize=16;exitX=0;exitY=0.5;exitDx=0;exitDy=0;exitPerimeter=0;strokeColor=#990000;" parent="1" source="LQQNJIsiJIo3_5g7R6dQ-33" target="LQQNJIsiJIo3_5g7R6dQ-25" edge="1">
                    <mxGeometry relative="1" as="geometry"/>
                </mxCell>
                <mxCell id="LQQNJIsiJIo3_5g7R6dQ-33" value="" style="points=[[0.015,0.015,0],[0.985,0.015,0],[0.985,0.985,0],[0.015,0.985,0],[0.25,0,0],[0.5,0,0],[0.75,0,0],[1,0.25,0],[1,0.5,0],[1,0.75,0],[0.75,1,0],[0.5,1,0],[0.25,1,0],[0,0.75,0],[0,0.5,0],[0,0.25,0]];verticalLabelPosition=bottom;html=1;verticalAlign=top;align=center;pointerEvents=1;shape=mxgraph.cisco19.cell_phone;fillColor=#CCFF99;strokeColor=#990000;hachureGap=4;fontFamily=Architects Daughter;fontSource=https%3A%2F%2Ffonts.googleapis.com%2Fcss%3Ffamily%3DArchitects%2BDaughter;fontSize=20;gradientColor=none;" parent="1" vertex="1">
                    <mxGeometry x="682.5" y="332" width="78" height="58" as="geometry"/>
                </mxCell>
                <mxCell id="LQQNJIsiJIo3_5g7R6dQ-57" style="edgeStyle=none;sketch=1;hachureGap=4;jiggle=2;curveFitting=1;html=1;fontFamily=Architects Daughter;fontSource=https%3A%2F%2Ffonts.googleapis.com%2Fcss%3Ffamily%3DArchitects%2BDaughter;fontSize=16;strokeColor=#990000;" parent="1" source="LQQNJIsiJIo3_5g7R6dQ-53" target="LQQNJIsiJIo3_5g7R6dQ-25" edge="1">
                    <mxGeometry relative="1" as="geometry"/>
                </mxCell>
                <mxCell id="LQQNJIsiJIo3_5g7R6dQ-53" value="" style="shadow=0;dashed=0;html=1;strokeColor=#990000;fillColor=#e51400;labelPosition=center;verticalLabelPosition=bottom;verticalAlign=top;align=center;outlineConnect=0;shape=mxgraph.veeam.2d.restful_apis;hachureGap=4;fontFamily=Architects Daughter;fontSource=https%3A%2F%2Ffonts.googleapis.com%2Fcss%3Ffamily%3DArchitects%2BDaughter;fontSize=20;fontColor=#ffffff;" parent="1" vertex="1">
                    <mxGeometry x="530" y="501.19" width="60" height="57.62" as="geometry"/>
                </mxCell>
                <mxCell id="LQQNJIsiJIo3_5g7R6dQ-65" style="edgeStyle=none;sketch=1;hachureGap=4;jiggle=2;curveFitting=1;html=1;fontFamily=Architects Daughter;fontSource=https%3A%2F%2Ffonts.googleapis.com%2Fcss%3Ffamily%3DArchitects%2BDaughter;fontSize=16;strokeColor=#990000;" parent="1" source="LQQNJIsiJIo3_5g7R6dQ-56" target="LQQNJIsiJIo3_5g7R6dQ-25" edge="1">
                    <mxGeometry relative="1" as="geometry"/>
                </mxCell>
                <mxCell id="LQQNJIsiJIo3_5g7R6dQ-56" value="" style="html=1;dashed=0;whitespace=wrap;fillColor=#2875E2;strokeColor=#FFFFFF;points=[[0.005,0.63,0],[0.1,0.2,0],[0.9,0.2,0],[0.5,0,0],[0.995,0.63,0],[0.72,0.99,0],[0.5,1,0],[0.28,0.99,0]];verticalLabelPosition=bottom;align=center;verticalAlign=top;shape=mxgraph.kubernetes.icon;prIcon=api;hachureGap=4;fontFamily=Architects Daughter;fontSource=https%3A%2F%2Ffonts.googleapis.com%2Fcss%3Ffamily%3DArchitects%2BDaughter;fontSize=20;" parent="1" vertex="1">
                    <mxGeometry x="523.12" y="175.53" width="73.75" height="68.94" as="geometry"/>
                </mxCell>
                <mxCell id="LQQNJIsiJIo3_5g7R6dQ-70" style="edgeStyle=none;sketch=1;hachureGap=4;jiggle=2;curveFitting=1;html=1;fontFamily=Architects Daughter;fontSource=https%3A%2F%2Ffonts.googleapis.com%2Fcss%3Ffamily%3DArchitects%2BDaughter;fontSize=16;strokeColor=#990000;" parent="1" source="LQQNJIsiJIo3_5g7R6dQ-59" target="LQQNJIsiJIo3_5g7R6dQ-25" edge="1">
                    <mxGeometry relative="1" as="geometry"/>
                </mxCell>
                <mxCell id="LQQNJIsiJIo3_5g7R6dQ-59" value="" style="outlineConnect=0;dashed=0;verticalLabelPosition=bottom;verticalAlign=top;align=center;html=1;shape=mxgraph.aws3.fire_tv;fillColor=#5294CF;gradientColor=none;sketch=0;hachureGap=4;jiggle=2;curveFitting=1;fontFamily=Architects Daughter;fontSource=https%3A%2F%2Ffonts.googleapis.com%2Fcss%3Ffamily%3DArchitects%2BDaughter;fontSize=20;strokeColor=#990000;" parent="1" vertex="1">
                    <mxGeometry x="330" y="490" width="125" height="80" as="geometry"/>
                </mxCell>
                <mxCell id="LQQNJIsiJIo3_5g7R6dQ-64" value="" style="sketch=0;points=[[0.015,0.015,0],[0.985,0.015,0],[0.985,0.985,0],[0.015,0.985,0],[0.25,0,0],[0.5,0,0],[0.75,0,0],[1,0.25,0],[1,0.5,0],[1,0.75,0],[0.75,1,0],[0.5,1,0],[0.25,1,0],[0,0.75,0],[0,0.5,0],[0,0.25,0]];verticalLabelPosition=bottom;html=1;verticalAlign=top;align=center;pointerEvents=1;shape=mxgraph.cisco19.cell_phone;fillColor=#e3c800;strokeColor=#B09500;hachureGap=4;jiggle=2;curveFitting=1;fontFamily=Architects Daughter;fontSource=https%3A%2F%2Ffonts.googleapis.com%2Fcss%3Ffamily%3DArchitects%2BDaughter;fontSize=20;fontColor=#000000;" parent="1" vertex="1">
                    <mxGeometry x="711.5" y="518" width="20" height="24" as="geometry"/>
                </mxCell>
            </root>
        </mxGraphModel>
    </diagram>
    <diagram id="55ftzjVeDL-uVrbzgLZA" name="restful-rest-diagram-api">
        <mxGraphModel dx="746" dy="598" grid="1" gridSize="10" guides="1" tooltips="1" connect="1" arrows="1" fold="1" page="1" pageScale="1" pageWidth="1169" pageHeight="827" math="0" shadow="0">
            <root>
                <mxCell id="0"/>
                <mxCell id="1" parent="0"/>
                <mxCell id="38iz5i1JmC2QnZ9sDYZD-1" value="" style="shape=image;verticalLabelPosition=bottom;labelBackgroundColor=default;verticalAlign=top;aspect=fixed;imageAspect=0;image=data:image/jpeg,/9j/4QAYRXhpZgAASUkqAAgAAAAAAAAAAAAAAP/sABFEdWNreQABAAQAAABLAAD/4QMraHR0cDovL25zLmFkb2JlLmNvbS94YXAvMS4wLwA8P3hwYWNrZXQgYmVnaW49Iu+7vyIgaWQ9Ilc1TTBNcENlaGlIenJlU3pOVGN6a2M5ZCI/PiA8eDp4bXBtZXRhIHhtbG5zOng9ImFkb2JlOm5zOm1ldGEvIiB4OnhtcHRrPSJBZG9iZSBYTVAgQ29yZSA1LjMtYzAxMSA2Ni4xNDU2NjEsIDIwMTIvMDIvMDYtMTQ6NTY6MjcgICAgICAgICI+IDxyZGY6UkRGIHhtbG5zOnJkZj0iaHR0cDovL3d3dy53My5vcmcvMTk5OS8wMi8yMi1yZGYtc3ludGF4LW5zIyI+IDxyZGY6RGVzY3JpcHRpb24gcmRmOmFib3V0PSIiIHhtbG5zOnhtcD0iaHR0cDovL25zLmFkb2JlLmNvbS94YXAvMS4wLyIgeG1sbnM6eG1wTU09Imh0dHA6Ly9ucy5hZG9iZS5jb20veGFwLzEuMC9tbS8iIHhtbG5zOnN0UmVmPSJodHRwOi8vbnMuYWRvYmUuY29tL3hhcC8xLjAvc1R5cGUvUmVzb3VyY2VSZWYjIiB4bXA6Q3JlYXRvclRvb2w9IkFkb2JlIFBob3Rvc2hvcCBDUzYgKFdpbmRvd3MpIiB4bXBNTTpJbnN0YW5jZUlEPSJ4bXAuaWlkOjEwQkZENTQwRURFRTExRTVBMjg4OUMxNDg2QTVCNTQ1IiB4bXBNTTpEb2N1bWVudElEPSJ4bXAuZGlkOjEwQkZENTQxRURFRTExRTVBMjg4OUMxNDg2QTVCNTQ1Ij4gPHhtcE1NOkRlcml2ZWRGcm9tIHN0UmVmOmluc3RhbmNlSUQ9InhtcC5paWQ6MTBCRkQ1M0VFREVFMTFFNUEyODg5QzE0ODZBNUI1NDUiIHN0UmVmOmRvY3VtZW50SUQ9InhtcC5kaWQ6MTBCRkQ1M0ZFREVFMTFFNUEyODg5QzE0ODZBNUI1NDUiLz4gPC9yZGY6RGVzY3JpcHRpb24+IDwvcmRmOlJERj4gPC94OnhtcG1ldGE+IDw/eHBhY2tldCBlbmQ9InIiPz7/7gAmQWRvYmUAZMAAAAABAwAVBAMGCg0AABjyAABCWAAAWf0AAG0r//4ALE9wdGltaXplZCBieSBKUEVHbWluaSAzLjEzLjMuOCAweDQ1YjViODRhAP/bAEMAAwICAgICAwICAwUDAwMFCwQDAwQFDQUFBQsODhEPDwcPDxATFxULCxcTCA0NHA0NGg8PHQ8PEREhEREhEREREf/bAEMBAwQEBgYGDQgIDRQPDQ8UFhEREREWEhEREREREhIRERERERESEREREREREREREREREREREREREREREREREREREf/CABEIASICvAMBEQACEQEDEQH/xAAcAAEAAgMBAQEAAAAAAAAAAAAABQYCAwQBBwj/xAAUAQEAAAAAAAAAAAAAAAAAAAAA/9oADAMBAAIQAxAAAAH9UgAAAAAAAAAAAAAAAAAAAAAAAAAAAAAAAAAAAAAAAAAAAAAAAAAAAAAAAAAAAAAAAAAAAAAAAAAAAAAAAAAAAAAAAAAAAAAAAAAAAAAAAAAAAAAAAAAAAAAAAAAAAAAAAAAAAAFCJQ8NBAliMiIJU2HCXcAAArp8zMzqOg4zaXEt4AAAABHEEQJbCwAAAAAAAjSFMizGwAAAAAHzolSbO0iTrJMAAAAA+WlHLIcxmThDGR6Shwn2AAAAFcI4mSJJM2E0AAAAAD5gQB2k6fRAAAAAADw+UlkI4u52gAAAAHMfJzmKydRKl9LoAAAAADhN4N4AAAAAABUAV8sJEHYXkAAAAAAAAAAAAAAAAAAAAAAGszMT09B6AAAAAAAAAAAAAAAAAAAAAAAAAAAAAAAAAAAAAAAAAAAAAAADEqZvAAAAAAAJElgAAAAAADUQAAAAAAABuJ4AAAAAAAAAAAAAAAAAAEcaSXAAAAAAAK6WIAAAAAAArJZgAAAAAADjOEmgAAAAAAACtHoAAAAAAAOIt5kRxpJcAAAAAAArpYgAAAAAACuFjAAAAAAABXCxgAAAAAAAFdLEAAAAAAACNPSRI40kuAAAAAAAV0sQAAAAAABXCxgrBWzcYm4jzYX0kAAAVwsYAAAAAAABXSxAAAAAAAAjT0kSONJLgAAAAAAFdLEAAAAAAAVwsYOMjzE1EcSwJM0EkAAVwsYAAAAAAABXSxAAAAAAAAjT0kSONJLgp52AiC7mwpRJgii7gFdLEAAAAAAAVwsYAPlRicZIGs4yUPppkACuFjAAAAAAAAK6WIAoJLFbNp0npoN52GBZTvBGnpIkcaSXBXiwggjnIw6S3grRZQCuliI0jAAAAD5EfXiyArhYwACGKsdRrOk5zUfQAAVwsYNRzAAAAFWJYsIBXSxAFdLEU8rh1llKiQp9JJAEkCNPSRI40kuCtHKdxwlsMymnYDhLoAV0sRVD50fTwAAARRcDcCuFjAAIw4zIjzuOY5C5HoBXCxg5SglwAAABVCWLaAV0sQB8oJ8AAAEcXIlwRp6SJHGklwCuFjAAAAAK6WI8IAsAAAAAAK4WMAArJRTrIsljgB9fMwCuFjBBnzA+kAAAAHaSwBXSxA8KqUg3nIWg1keDpLkYE0CNPSRI40kuAVwsZVzcAZk+AAV0sQAAAAPD0AFcLGACnmRFkqcRtNBeTMAFcLGAAAAAAAAV0sQPCqliIQ6zE9BHkoDWTQI09JEjjSS4BGEaVA+qAFaLKAAV0sQBWCGOc1nMdJrJsuoAK4WMAFRBqOswNZ4W4yABXCxg+ekGbTsOcyOgmSunOdZoLgWgFdLEDwqpaz5sVktBAE4cB9YIo1k0CNPSRI40kuAAVg2gGwngACuliB4fMTYXEqh0m81GBZCZAK4WMAArBRDsIsliPPT7EegFcLGCDIU2EiR5mZHaR51A1k4doK6WIA+Vk+AAACPLeSwI09JEjjSS4AAAAAABXSxAHCYGJkaTcZGg7TpAK4WMAAjSKOojCbI84i4GQBXCxggSAJUyPDwyOs0HKbTEsJ0ArpYgCukKUs6C5FYK8Wk2ltJEkgRp6SJHGklwAAAAAACuliAAAAAAAK4WMAAiCumw5zaaT0vh6AVwsYAAAAAAABXSxAFDJcAHgBxGRYjvBGnpIkcaSXAAAAAAAK6WIAAAAAAArhYwARR0nYAAAACuFjAAAAAAAAK6WIAAAAAAAEaekiRxpJcAAAAAAArpYgAAAAAACuFjAB4D0AAAAFcLGAAAAAAAAV0sQAAAAAAAI09JE5ivE6AAAAAADWRhZAAAAAAACuFjAAAAAAAPCvFiAAAAAAAAK4WMAAAAAAAEOdh2A4jlAAAAAABmSgAAAAAAAIwjzIAAAAAAHMWgyAAAAAAAAIo4gAAAAAAAYlkAAAAAAAAAAAAAAAAAAAAAAAAAAAAAAAAAAAAAAAAAAAAAAB8QJ4xOUspBHGTJrPpgAAAAAAAAAAAAAAAAAAAAAAAAAAAAAAAAAAAAAANBClaBZDiB0HEThMAAAAAAAAAAA+YlsMzWdJwmZJlMOgmiIJEtIAAAAAAAAAAAAAAAAAAAABgfCC1npIFWNJYSAOo+wgAAAAAAAAAA+Qm0kTkNZvNxaCkm81HCW4uwAAAAAAAAAAAAAAAAAAAABzlXBuO06CKMDAkSfAAAAAAAAAAAAAAAAAAAAAAAAAAAAAAAAAAAAAAAAAAAAAAAAAAAAAAAAAAAAAAAAAAAAAAAAAAAAAAAAAIEwAAAAAAAAAMSHJcyMTMAAAAAAAAAAAA4y2gAAAAAAAFZNoAANJwEoYmYAABzlpK6WIAAAAAAAAAwPkBIHIdp9QAAAAAAAAAAAAK8WEAAAAAAAArZZAAAVIrhpI0+wm8AAFdLERxHgAAAAAAAAAAAAAAAAAAAAAAAHpYAAAAAAAACHOYAAAAAAAA2k4AAAAAAAAAAAAAAAAAAAAAAAAAAAAAAAAAAAAAAAAAAAAAAAAAAAAAAAAAAAAAAAAAAAAAAAAAAAAAAAAAAAAAAAAAAAAAAAAAAAAAAAAAAAAAAAAAAAAAAAAAAAAAAAAAAAAf/xAAzEAABAwQBAgYCAQIFBQAAAAAFAAMEAQIGFTUQFBESExYwQCA2JgdQMTIzYIAiJCU0cP/aAAgBAQABBQL/AIF5YdniGXclExxMXJRUtuDloQjIin5bzUzKBUKYRyUaLdJZcyPM2GYzDw7JRZNyHmQCe7+Z2dJhQYpKSIauPGqp6dMjOkzrsEddIJSHrz5RBHCnd/GRnMDIArImigQdmT0hBi9hln5qkoFG7cqx+5UykBcy242838lmWS5q9wVun0IsNQO4j+SScGRxY8lCKR/jeEHCmTzYBMIIIWTCb460gYG6Ur28O+djk85HNySUeEWF2kgJSaqWzzpywORtxL4J04dDI1OgIi3Yn1vdA5yXU6JpF3IvuvkzTvSF7e2FlMTxusgRhFLrYPzQcant1jwiLA6/H5Tr0KHHHxPjkt1ej41kwYICK30kGXvMzfUfCvElBzdhHE5IiSH+SVBiTqPsNSWGGGorHzk8ftJyahH6TmMM9OGQCPy74eMSxzjGNUaK/wBurZZdd4UVbbbrfLSlF4Up/uG66ltGbzBVrsTq7E6uxOrsTq7E6uxOrsTq7E6uxOrsTq7E6uxOrsTq7E6uzPWIbNums/O660w3vWL6bpbpbpbpbpbpbpbpbpbpbpbpbpbpMmobj39mI8eI4n5xvIfPOstmFvnmRGJ0YNIdlC/ozrpMyd7dD1XtwMvbgZe3Ay9uBl7cDL24GXtwMvbgZe3Ay9uBl7cDL24GXtwMvbgZe3AqlwqhmrbqX2ojx4jifnG8h89/7F9DHuH+jF5v6BPjRvHIjx4jifnG8h89/wCxdDRG+DVjKiD0WOdKSJ9uVSWYNckltzPdEt5iXkxKxse5Jdhflj3D/Ri839Anxo3jkR48RxPzjeQ+e/8AYulYjF0qOEExV2IeQ/NERHqDoACQRZBB46ssDu1ixY8JiUShQnfxx7h/oxeb+gT40bxyI8eI4npIgRZ5726GXt0Mi4MUwLb/ANNRIWwkaRhaRhToWvv6jeQ+e/8AYvwuEzX6aMnt3cdMdrFCSo0hrHyLLUbG5rlHxhWKNp41p+GPcP8ARi831EjHJwzRJukd6RHsgvxr2BTdsWNAmvtNwXSVkcU43HFR5bUwPcxDgX3uwehPjRvHIjx4jiejf7B0O8K2On+mTBF5rGNsvR2ehv8Ay9RvIKZOpDW8tW8tW8tW8tW8tW8tW8tW8tW8tRX+pkvHzIQ3Ycj9L/2L8S8t2FCdy6xq1jKo8h+PldjqcySnd3ZT6Y+89KkR/wAMe4fo460zb30Jd9CXfQl30Jd9CXfQl30Jd9CXfQkYy8QCvHZCDL06xeb647wKhDio6rmIy6x/anmaGD5MCTXFpjLdMcLUFhBzw5klxwzjehPjRvHIjx4jiekiOUsJyp5yIvUyBTmsgmw7aeW1M1LQJGwMLYGFJqWIOdRvII9ko3HGQn9SrcjJb2At7AW9gLewFvYC3sBb2At7AUaRj0N1l2x9rpf+xfjMjR3rnAY51i4NDvesxYM2zEBDYV9uOC7I5KAE9OlPCnXHuH6SGI0ht8rg7MvTiFphC0whaYQtMIWmELTCFphCNYQIOVFYnjYWvWLzfUDXL3Avhm68M3Xhm68M3Xhm68M3Xhm68M3RH3paPEXecT0J8aN45EePEcT1M/4/GN5DpUAG775L/wBi/E7ZdJalDzVsZqOYbmxG8gaZjxzBCf6JjTS2ZtRNlKUs649w/QsEFnY7X9LhI0h7dCr26FXt0KvboVe3Qq9uhV7dCr26FXt0KogofBc6xeb64p+tziBJrJR7pSTIo69UTPq+MxHJilY7HuMt6j+WvxyDmQlYbBbiQnDdCfGjeORHjxHE9TP+KK+u7P096096096AvPSBH4jeQ+KlaV/G/wDYvwuyKyyVdksPuY+V20aj5LBmVj5Na63TLIHpz8glWjLa1ut/DHuH+jF5vrin63dGj30o2C7xpgPDYvnDHkzEDNJu0NGYkPgosp0bHell+JCcN0J8aN45EePEcT1IQLCDWmdQ4A8EMdcc4T8RvIdcgjyJEQa8VZIkd467T3HbVh7ImGXGj9GnbcjvlB7f++/C/wDYvwpjrdGfbcLu78VG3tUAt2P+2x9VHxmIxc/jMV1z/LT8Me4foSyKVDLs5ZPcY3pS22Zk0iG1caJxWaZIXuZknZ8a+aXlMzmcgJTXx+QF7b2zZCRY3kxGxBCE6ZXpF5vrin62pwWbIvdx4h6zePTGXK4gRvYmY9M89MeKRw6L8SE4boT40bxyI8eI4n8SlJDc7bPrbPrbPoEw9GE/iN5DpXx8IOTEKQZGU+NguZbJjNZY87dXJnfM1lEZ6PFyV1+2HkMojURKdmQut/7F+J+vqx5Tx9qM1MM2zYZM5ayxKME59J5bTTHf/G0rS6nXHuH6FyEEfGcNgmnXckYot3E9O3JYz91MnFeG/HtWuGx7cL3UGtvqfgUdcPjWmrsjHWswpkchF6Reb6gLcsbC/wA0X80X80X80X80X80X80X80RGmYXDxFvkE9CfGjeORHjxHE/ON5Dr2MKrdg6A23fDu9S8dAcrcIF3tVGj6u1gQau2ChzdI0ZmIx1v/AGL8SMy0fDrkghMmxsl33aA9DaQPGzIhN7E7IvQgW181vXHuH6FAsIxa9ijL1vt0f5bsfhXWtY6NYbYxwbHcpj8DyUDwKR7QcRt1vGRbVzGOj2HLscgXNsM0js9IvN9cd4EjeV9ywRzE1iULiRL8ZGzIFosq08BGHScYQRNkRpO4yUHQa957fGcb0J8aN45EePEcT843kPnv/Yvxnwr5rkjFmXo9uN0tkvYr4x64x4Sq4te4Nexl++ynj4dce4f6MXm+ogi5CGbtbtbtbtbqi3VFu1KnRptJpa56HAsvag9CfGjeORHjxHE/ON5D57/2L8KlR1ExMiybvix7h/oxeb+gT40bxyI8eI4n5xvIfPf+xfh4U+THuH+jF5v6BPjRvHKS168cORi0g97CXewl3sJd7CXewl3sJd7CXewl3sJd7CXewl3sJd7CXewleRHtWhvM99B7/pyH6GPcN9FmtLD/ANAw7YyJht3Mw+j8KHKrqBK1AlagStQJWoErUCVqBK1AlagStQJWoErUCVqBK1AlWihdl30J8G2c3bXIrF58gXnyBefIF58gXnyBefIF58gXnyBefIF58gXnyBefIF58gXnyBOwy5G2222y36M8fZOp6WQWr08hXp5CvTyFenkK9PIV6eQr08hXp5CvTyFenkK9PIV6eQr08hXp5CvTyFUFyJD3+3pGT0lZLNyYuzQhk5dijs294iNLlCdsfLZd84eRI2DouRk6vCciMynv9nPtUfZvAC7hwnEWmaCsRZZo0BHMvxMXGw7IuLC410bHh8ZRsSExmrBMJt/6xDLpUJyfkIcW88dGMzbchDXT7TIy5imTA7l7jEdrAIwyjEXMWXajssiuhXsiDMMw8rguDrTbckl/a77rW7PCZHxA1lMqBJjkyTZEAdnECRg28PysOTNRXLciL2378lAlvGCRON9amGu2Nv41LvKakrvhWPl7GBgI60q44RYx0yLMFahh9B0KLhrrEBgIZDvsY+aCOUxUgPdDgdaR/tchhuVHh4qKhuXYqJvlPY0LeQ0NDFuMC4Ud17Ghj0a/FxV0X2oIpEaCxW7v/AJGZdkNRtcQWuILXEFriC1xBa4gtcQWuILXEFriC1xBa4gtcQWuILXEFriC1xBa4gtcQVR86lID2zr2E3w109dhN8NcQWuILXEFriC1xBa4gtcQWuILXEFriC1xBa4gtcQWuILXEFriC1xBa4gtcQWuILXEFriC1xBa4gtcQV1s+FP8Aok75d0/XEFriC1xBa4gtcQWuIJ6JKjt232Xt66eroE22muILXEFriC1xBa4gtcQWuIKN3scujf8AofTvp42VBnnIcHGq1kOY0Yvhwcbu7j7JH/3/AKM3m/yyKM8+0UbmT6WxjW9dCEqwGPL6H5XfsKnwrJ7GqfWqfWqfWqfWqfWqfWqfWqfWqfWqfWqfWqfWqfWqfWqfWqfWqfWqfWqfWqfWqfWqfWqfWqfWqfWqfWqfWqfWqfWqfWqfWqfWqfWqfWqfWqfWqfWqfWqfWqfWqfWqfWqfWqfWqfWqfWqfWqfWqfTYjwk/RnDbZruqfWqfWqfWqfWqfWqfWqfWqfWqfWqfWqfWqfWqfWqfWqfWqfWqfUUXSPL/AOBP/8QAFBEBAAAAAAAAAAAAAAAAAAAAsP/aAAgBAwEBPwFLj//EABQRAQAAAAAAAAAAAAAAAAAAALD/2gAIAQIBAT8BS4//xABNEAABAwIBBAwKCAQFBAMBAAABAgMEABESBRMhMSI0NUFRc5KTorHR0hAUIDIzQGFxgZEjQlJ0lKGywQYVMGIkQ3KC8FBTYOElcIDx/9oACAEBAAY/Av8A8Fx4+R2UyJ8pRLTLmrCkXUf295qLlqS7m4szDml2v51SlpUtswkZ2Qy80WnEj7VjvaKZjRnF/wCJF4rq2iht32A759lSFypKI+byv4g0c1jxpvbN+w/3UuAc6881tgR2FPZq/DbVSm5Qes2nG883HU402OEkDRUHJ4aW+xLZL+eZaLvutbXrrKzs2ajMQCkuJzeDMbG9ifra76PdTjDJcbeaRniy+0WVlP29OsVGbjOrKZmiO+WVJaUfsX+1o1f0LZPbL0yQc1EbHD9r3DXppvJDzzmTx46oLekWeWEYcWvhurXQY8bzUpEYLaYzGzkLUo4R7NCRcaNd9FS57TecUFOygkoxWw2bHw846N6kGLPXMU8FOIlpCUp2I8wbE3Ps1+2pKn3VB91hhgQlJu0cXnLtwbM/Knn47l1Npdz0HNaI9tCP917fOpsPKL/jPi4RZ3N5vSRp+Gr+pIyhJNmo6C4unMr5hTCmMQkRF+e2U/VrJ7uUcmLhRcqEJhSs6HUknSAbaqfeQ2W8w+uMQTe+E2v/AFy6X04UuZgm/wBb7PvohMwHD5wwnRXjKZqC2ThC+H/lqS80oLQsYkLTpB9v9VcjIuSHp8FslPjiVpRnLfZB84U9k9qKcbUIT05xWbve/wBH/b5uump2UVtwwtIUvG6MCSd6+/SHc4nA56NWLQqpGWA+h6NGSVLW0sK1fV99JkwnUupULnCrEU+z3/1JWVESl5NbiNiJBUG0uZ0HSpWnVvD4VGyO82ZCYWWGlZPWbIEhJOLD7NJI4Kytl1yI5BjNZLXETnxhccOu9uAWr+GsmpgOR0wC1KflrtmbJT9XhJvTifFlXP8AEAmgf2YgcfurKbLmTn5jc6SZcaRGAVe4GwPBa2vVaspMvR5kht1vDklEV7NRtWnFp134b6K/hnKC4TsjxGGYsxhmxdQSE/Pza/iIsM6X5DMmIhZsl/AEnD0be+mMqeIvQWYMZbZ8YASt1SrbH3bHXX8OwPFyH4j7C5De+ix0n+iyqWMLiGFumQTZLSRa/wC1eOsrxma+I7i2xc4rb/wFPMeNIxx0lb2nzQNZpmJDOfziC+46NCUJH1vb8KEwyU5oqzY4b/Ztw03C8ZTnnRdCOH/37P6uT/4dychK3JTvjEkO3DWBGmx95sKytHys20kZajKkMiMSpvGlNiNO+RY/CsiTspzX5KYzSHosJYCGmjb2DTb21lDELf8AyDx0/wCr+vkpyUtxRS+qZPaLt2kHSbW96qystKf8ZLccdYTi+Cf0islRkurjMZOilBfZIxFWgW/I6aZgxU4WWE5ttP8AUdZScJWkpCuCo+SMtPiBNycjMSIruhZtvj7Q39F6yy+gHC7kLEm4sdaq/h5+c6xHhfytKI7s5jPR0r0X39iq2+faKyZFTJbyjFey0F/QN4GEA3+jH9v5aa/ibJ8CMAh/JYc8XQjYqVstPvpg5JzexQkSA2nCQq2/7f6rQlthzMOB9q/1VDUqnIz6cbbqcDiDvjgpuNHTgaaTgbQN4cHqDzzrtkutpYwYb2AViPz1UJ6JOy8a8ZUhSNBGHDh+W/TkB15CkYS209hOcsTdW/bTq0WqW6zKzKn0obbsLYQk3w+43totTUmHJbLyXFrXnGro2dtWnQRgAp2a4pDzTj/jYCgc4lXztvcH/TwspBI1HwYVC44KAA0DVV60f+QlStAGkmhMjvIhMObKOnN5xxQ+0eDhtW6g/DDtrdQfhh21uoPww7a3UH4YdtbqD8MO2t1B+GHbW6g/DDtrdQfhh21uoPww7a3UH4YdtbqD8MO2t1B+GHbW6g/DDtrdQfhh21iTlFCyNSVx9ifzpeeRmn2V5qQ3rAPZpv6gp55YQhAupajYCsUeNIeQdTiGDY/OtoyuZraMrma2jK5mtoyuZraMrma2jK5mtoyuZraMrma2jK5mtoyuZraMrma2jK5mtoyuZraMrmaRHdC4zrno0PtlvF2/9HlcUeqoXEp6vUMqcaP0j1CHBd0tISZSkbyiLAfqv6guLJTiQ4LH2e331GefN3CmziuE8PqSclR3CwgIz0p5Hn23kDg1HTWyYxH7SnCo1tbpGtrdI1tbpGtrdI1tbpGtrdI1tbpGtrdI1tbpGtrdI1tbpGtrdI1tbpGtrdI1tbpGlZRyYpYQwMciIpZW2tO/a+pXuoLTqVpHglcUeqoXEp6vUMqcaP0j1Bj7qv8AUn1GP8ev1KfxaP39RlcUrqqLxQ6vBK4o9VQuJT1eoZU40fpHqDH3Vf6k+GMhs2xKLr1hi2CRc/sPjSZH8vtny34sSSlBxm1rkaxr0XFR2M20hKc6iai99KCNI9mypjKGUYqWUTGS9EQhzESd5r/Ub0pp6KgR2pCYTriXLrxKSDe3BsrfnSC/HzPjTaJUQtO4lYSsCx4DsxUkpjIbSUvJhu48Ru3fSRwaKZdl4Q6tN14PN8uP8ev1KfxaP39RlcUrqqLxQ6vBK4o9VQuJT1eoZU40fpHqDH3Vf6k+ETVC7oRmgd63/BREeMlAKgvDvAjV7qUgMtqdjuZ1ejSlR36h5w4IuTlZ5EcDY3Go/D2U/lOPhkSVESc4RpRiTo/Ie+ncxEbRnyFOWTrsb/8Aumc2hDmJa80UpxC/1vdv0mNEQG2keagahTDEp0NrkqwMJP1jweVH+PX6lP4tH7+oyuKV1VF4odXglcUeqoXEp6vC4iWjOBEZJQMRFtKuytr9I1tfpGpbzTGFaGypCgs6KT7vBOcfkP7CQW0JQ8UJAsK2xJ/EKrbEn8Qqob0eQ/dUhKFBTxUCODyMqcaP0j1Bj7qv9SfJizpUIy0uOOPS4Cl4SCrzVcBsE2+NKfzGkvl3x/Of5eG3i9v+DfpCEoBCcxnmQoHOhKbFOnRrIOnRoqEt+IubHbawNNuuDFFOK9+Dg1adFqEeE2Ii0OvK8ZSqwViCsK+kKShUPxSNnGi7Ez+PFhvic/MD22qPCixc8GZ2fQgOgYEBdwNPVQJFvZ5Mf49fqU/i0fv5EWY9lCXnHmwtdnrCt0JnP0pliTlJ1tC80uUlf0QI3v2vqvXjispy2Gc2l7OOyAkAK6qbWvLjyUvaWiZY2fbUiLGytKU7FXm328/pH/L1IyUnKU0PRUZx0l2yf+aR86W83lx5SGtDixLFk0H4uVZLravNcRIxJNPvIyhMxNoKk/TVHccN1LbBUeHwyuKV1VF4odXglcUeqoXEp6vC/wDdUfqV4Z3EqpP/AMm9q+wjspLUbLT0dYWFZ0ITcfL96mMyHzJcTJIW+sBJVoHB4YX3tHkZU40fpHgTdl17H/2UY7VtKXzBraUvmDW0pfMGtpS+YNbSl8wa2lL5g1tKXzBraUvmDW0pfMGjkydBMptYxtFAzT49hTw/KvGERJMS31ZTWaP/AL8LH3Vf6k+UpyPYvrUGmArUSTb96BMVQzrqmIhW4EB3De6vYNjUdtDJQh9rP4njmz8B9Y6N6kZ6I4znwh2Lcg5xKlBOL2HZDRQhMRVOOF5TJOIJSnCASv3bKk5TeiKbZkKCYGJYu9fUf7eHTvVAnQsLTa5QiymXE4idNtB/O/kx/j1+HE6sIHCo2rbDfLFbYb5YrbDfLFbYb5YrbDfLFbYb5YrbDfLFbYb5YrbDfLFNnKCj4u7o8ab+kQk8BtqoHJs5qRf6qV7L5eRP4tH7+RA4keBUJhbKoJcU4lSr51IUb4fbr100lEhOdYDOC10BRQCNe951OJIbRjiORQkku4Ss3xXNSiooW1IUHQf8wGwFvdsb14742p2VicckNf5a8Y0pHR18FMFbTOeDceOiOhGxslQViV/6qQZJRnZT5kLS15ib735fOpXFK6qicUnq8MrildVReKHV4JXFHqqFxKerwqmwksrQtkNKDqygixPs/upnHGjnPOBpNnzo6NbXi8+ru09EzMVOeTgxZ5Rt0aCeDwTEtwM+h57OocS6E/8ANVblK59NblK59NRW1ZPzCG30urcU8Da3kZU40fpHgD2UA6Qrzc00V/8A8+NGPk+GWYrIxyH3AXHPcEp6zWp78MvsrU9+GX2Vqe/DL7K1Pfhl9lanvwy+ytT34ZfZWp78MvsrU9+GX2U5IjRVIddON14RF41fG1JeRfCrSMQwnwsfdV/qT5TEiSrCmIrPC5snVr/Om2AlTeZWXWXG1lK0E6zf/caZeeLjuYsW0uOlSbj63v8AbTrAaVhdSGxdwktgaQkfZF9OikusNnGlSl41LKiSrWfypURIXmScbTedNmSN9P2fhUWFlOYtBSvHHxyihajw69NW4PIj/Hr8OGW2hxsbKzgxD30jJ6ExpEtw4URY7QecPy1fGtosc0K2ixzQraLHNCtosc0K2ixzQraLHNCtosc0K2ixzQptqQMzFRpVGjoDWcPCT+1JXk3J7TTifNew4nPmfIn8Wj9/IhLimAGS0M2FpXit2152TuSuvOydyV152TuSuvOydyV152TuSuvOydyV152TuSuvOydyV1JU4rJ+ENHFZK76qhL+0yk/l4ZXFK6qi8UOrwSuKPVULiU9XkQPvSf3/qZU40fpHhRlNERDUtvVIbGBf5a/j/VY+6r/AFJ8qPk5KMQlvBL3AEjSf02+NMvqMhYdkrOUEBRWvDdWAAAjY6tVQNk/MWGgha30lpKNf0mg2J1XSq5pTiGpf0TbapqHV3U64FgqKfZa+qw1Cm3JKZDMYyHXM2peDRYYb23tZtWBDcpM4OJ/mylkqLo+tg06v9NtGimclOR5EpuXiD8ox7ust39Fp033rne00kDQLaAfIj/Hr8IiZVYD7QOIJJtSMo5FeUwRoXGe+laWODhHvraqa2qmtqpraqa2qmtqpraqa2qmtqpouxGQ2sixI8ifxaP38jJ3Einih51uMzKaaccKx4s2kpGxI4TfXwkVlF1MhTakuPNsPuyQppuxIGw4KypHckyo8/JzPjKleNZ1J2Jsb8Gx1G3uqTJYlOqdDOdD7q8axSzEd0iI86HEOWwlIFCAgRnZCnm20vpJzVlgn57D5EaqXGAQ81hdDasOb2TYuRr0je3qjGWy0t7KDQMEN3w4z/l9K9+AGpl/+wrqqBxCerwyuKV1VF4odXglcUeqoXEp6vIgfek/v4IENt9bCHcRcLWgmwrdCVyx2VuhK5Y7K3QlcsdlRnZC844U7JZ1nysqcaP0j+no8lj7qv8AUnyXI+YW8c6WY6GRiWvCBiV7AMVqVEQhy4UWUvFP0WO183fhrOzm7YktZlDWlS1LTfD+VMJhNuyFPDGpKEeiF7aeDSD8qaflNmI2pxxC84L3CL7Lo79YlsSEOYkpRHU19IrF5p92g1/OMnobzLVw+xJuh4qBtmh/dve+gojDf6p3vJj/AB6/Up/Fo/fyMncSKcC2kqDvpbp87tqUfF2UvNC8t4tgedwms2yhhlmRrSkBKXL9dPQrpfzSgxIjgYsN963BppxmOywjDoeQhIFr8NZxoMNMheLEmyUYuH308t5lsPAJL72a3lbG9+DRUaU5f/CegZ/ywdWL36bVN4lXVUDiE9XhlcUrqqLxQ6vBK4o9VQuJT1eQhtbi2i2sOIcaNlA1unL5SeyoOdylIm5zHZDyrob93kRfd+/lZU40fpHkMmPnPon0urDBssj/AJvU4vKa1oZ2WfU8QGNewwfCpcvJ7y1MYkJZS3YjB9ZQ4VUzmlOPuZggY0ZlCTpso8O8LfGlOhEp1q5S2h0DP3w6/dirPvrkWLiEvNs2xhOAXI9uL42vUtKVupTmyIicN0KGDRp3l4qxR0lEfxNsKBFtPbbyWPuq/wBSfJihMl1uRFxESmzZSsWlV/ZRlF13DnPGPF8X0WO1s57/AMr6aS2FLBRgzTl7lOAWB/PfpmUzJdaebTmnFosM6L3sRb271qwOKcW1iWtLKlbEYwQU+7ZGkuOPvSHEKSpLrq7q2OpPu2Rpl1uS+yWHFvowKFsSvraRroAn2XO/5Mf49fhMFhCVoSk4goWUDgKr+0aLXppSnYyA6sJMzArNJugqw+8YR86M7MqK1Jzoi6bJ+ivh+dQ1MuNTC4buLbRhQsYgNGnXstWmlLUoSXmS8FbEpCLKAFxv6FX91KdZQ06hhC3FOhBs+EkDRwazw6RWeZAebkvFCRrDCBoz3+nX8xUaKQmE26VXefGLHa2xFt83vprMEBFnk40NghbH0mHNq4bjTUSIW0uDNJWsvKwuvXvq+VrVk+T401gexeMoQ2bJNtDXsNNN4EE5oHxdQJdP0eLO3+zfY08zPSkONBKgpsFKTiF7eGfxaP38jJ3EjwTWkNpcSZaJ6Eun6N8WAzR5PVTcPxJh0rjPbFXoY+NYISNG98KWmzTmJ5p8ytTisOG4PIvT0UoYT9C4yZAOzl4lXur5e3TUoQUNCM++l0xhZFxgtwHCb/lSoa8LzrsNuDdJ1G52Xu2Xgm8SrqqBxCerwyuKV1VF4odXglcUeqoXEp6vKgzGY65CGcQcS1bELj21uZK+Se9W5kr5J71bmSvknvVGZkIzbiU7JB3vKypxo/SPDopD0yOHVqaTIWpLgSkY1EJb/LWaKXMnZ7NAmSjOAhNlYdHD+VL+h8XUwstONA3AIqMkZOWVSGxIKEKxlKSbA+/fox0xP8Vnc2mMt3ARoJxHg8320iSlohLiglIJsfMx3/K1Kcch5tDLAlSvpMSkAi4A+0dFREiKqJ4w6NkvZJUnCVaPbotQcftnELU0sjUbG1/y8hj7qv8AUnymcmjXOdDJtrw61fkk01JXIdS1IkrTKVbDmEgqwgWGgatOmoCXn1S1raGJtlJaSDp+kNxpTq4D7KU9nJLwbbbdyhnGLFpeMY0DRpFr6Bf302EOvtRVSHT6PN4kgJwjVoGvTWebfkKnFxIyqhbeHxYb+HR+YxaNNZKl5RV4083MCmJCGlKUEBXu4N/RQI3/ACI/x6/DiyiDmHNg4bXAFFDqVJ/l2LA4WzhGEaQOE2NfRtkYQrOh4FCm7W0W/wB9SHkIcU1HOEuhGxVvaOGleLIUWwhtxEg+jVjNvnSrZw2IDYDZ+lubXTwi+im1IFo+bLrrlsOZF7afz+RoTlKJbNihATdxVzYG1OtrcKVMgld08GtPv0000sLSpy1yUaG8WgX4L027dSs6EqbSlF1KxaB1UuQcebSvNIXg0OH7I4dVNzIqsbTouk+GfxaP38iEiL4iWg0M3jx4q1ZP+a61ZP8AmutWT/mutWT/AJrrVk/5rrVk/wCa61ZP+a61ZP8AmupKXPEMJaOKxXfVUJH2WUj8vDK4pXVUXih1eCVxR6qhcSnq9Qypxo/SPILJYRm1JzakYdBH2fdpoNIjthAGAJwaLcH71iYeLCSbrbQlNle3VTRXHbOY9DsfMpTK4jRQs4lpKNBoPmM3nAMAXg0gcFNvlhGcZGBpeHSkcFJSywloIXnU5sYdNJjx04UI1DyGPuq/1J8pyYUZwo8xsa1E6LfnS7OlZQvMkIbKrqGtI4fNOqm2YzueLiQ4C2kqSAdRPBq36TJEglpeySsNq0ga1/6dPnaqtnh6UR/9x02/OlyUOktIOEOZs2cOqyftfCjlWFH8aiNAmQvOZpaLfVsfrezRQVw8PkR/j1+FKZeLQko2CsNwdYqcVvKLksrLenYNYtF7cPtpQczjinL5x1bl1qvbuinG8boQpzPIbC9i2b3uODXSGmsYQhKW8OPXhNxWcRjNlBTQUu4bsb4RwCn2lYlNP+e0TotcnD7rqOikRsGxbtgVfZCxuE34KkOsLca8ZJUtKVaLnWqmi3jCWrXbx7FyxuL8Ok3rODOKKSkt43LhGHUn3aaWzicDZczzSMehlWu6eDXSWUkqCdF1a/DP4tH7+RA4kVHRk0o2oorS/fB5w4N+v4admJWtyUCmWrOK2VkHsr+IlxkLQYkXFFIcVsCUq1U+7Is21IwliGlwvBrRpNzw8FZHZQ8mRJS62mQhRxuJ06/fSkxZQfWiM44WlNaYygqwvw3vv8F6jQA+XVJW2h8LQEh3EbXHbqo5envZ6IiQtt+OhqxSm5SD7Te3zpf8wIMkxyX8IsAbaqicUnq8MrildVReKHV4JXFHqqFxKer1DKnGj9I9QY+6r/Unyomys0w7nnE76rah87GoyEu/SxHVvtLWjGnZXuCP91RHkupaTEFglhnNFX9v+jT5tR2YsxTCmo3iDq8AVjR+x0a6QpqWpERDqZHimHfSnDr4NHzpvJb0wuNRVJXAu3pbw6gftcG9UVDMtDKY6i6plMYZpxX27cP76a06fIj/AB6/Up/Fo/fyIsN6BKzjLYQuzVxW0JfM1tCXzNbQl8zW0JfM1tCXzNbQl8zW0JfM02mTk6WtLas4E5rRf9/jT7KIEvEtBSn6Go7bgspDYCh4ZXFK6qi8UOrwSuKPVULiU9XqGVONH6R6gx91X+pPk6ZCPrb/ANnzvlSkMOhZSApQB1X1H+nH+PX6lP4tH7+oyuKV1VF4odXglcUeqoXEp6vUMqcaP0j1Bj7qv9SfUY/x6/Up/Fo/f1GVxSuqovFDq8DrF7ZxJTemYb7iWZMVAZfYWcKkkft7a9O3y69O3y69O3y69O3y69O3y69O3y69O3y69O3y69O3y69O3y69O3y69O3y69O3y69O3y6K3JLaUjWSsVLyhhKUS3cbF9BKbAYvyv7vUIqlfXjrQn26U+oxT9pOMfH1KU2rW6wlaPgT2j1GY4vUGjTDS/OQgJPhBksIdI1FaMVbSZ5oVtJnmhW0meaFbSZ5oVtJnmhW0meaFbSZ5oVtJnmhW0meaFbSZ5oVtJnmhW0meaFbSZ5oVtJnmhQWiGykjUQ2PUUjGWnWlY2H0+cg8P8A64KwqTFd/vxKbv8ACxr0Mbnld2vQxueV3a9DG55Xdr0Mbnld2vQxueV3a9DG55Xdr0Mbnld2vQxueV3a9DG55Xdr0Mbnld2vQxueV3a9DG55Xdr0Mbnld2vQxueV3aMfKDjbEZXpW45KluD7N94e6ghAsBoAG96khWNTL7JxMSEecjtHsNWEqOv+5TBv+qvTxeYV3q9PF5hXer08XmFd6vTxeYV3q9PF5hXer08XmFd6vTxeYV3q9PF5hXer08XmFd6vTxeYV3q9PF5hXer08XmFd6vTxeYV3q9PF5hXer08XmFd6kP5VkZ8NHG3HbRm2geH2/H/AMfiPRZ4TGYmfy7xFK/T3Bu6RwXsB7iayjOjR2VQcmyAwrEo517Ve3AdlasqTosZlUHJTwZVjUc69quBwHZVOGyebl5Qbyc03nCjCEjEpWj40MrISwxkok4S6Tnikf5nANWrgoMKzTjDzC5DT6W1thGHf0+cNOtNZETl5aXVyz44pxKlILaQkr08OsC2qsnSJ8dpmFlQKUwkK+maATiCj8E71ZIM+My01ldCloQ2olxuwvi93/h7jBUUhxOEqQbKFM5LDWBiPhLIToKcOkdVJk5TWpyQXzLfZQ4fFlLvfHbh1fKhIyktTj631TH2EuHxdS73Crb51fKmpCEnGy8uSm6vrK1n86ejNqeMR5JbMFTpLCQdYA3qLiy7JUWDDJkOlzYH6tMee94s2plnPLx2Sr6vRtSmruujMmKznXSvMoP1E8HXUWQhNlQmjHji+hINu6PV5shENLsCA+mI6vO2eWTbULafP1V4vNkYF2xL2JUED7R+yPaa/l6nCp/QFJQ2VhF9VyNXxoZNTJBfKs0NBwFX2L6sXs10zJS+C2+74syq3nKvbD+RqRaUMMS/jLmE4EW0Wvw+ylTFOqQ2lWb2bSkKJO8BbT8K8ZguZxF8CtGEpP2TwH31ldT7BbbyavAyQcRkacOj4ptUPKmVR4o7MBKIqLvL0e7XUeQqSFIlpxxy2C5iH2tG97aayjNVm0ylr8TbaSXVuJB8+w916yfEyfhfYmMqlKfB1JFrfq/6YVq0BIuTSP4qTNkJyi9/iGkl4qbXiVsWsPBZQGilGFm5DTDiWX2g0tRuTbDj1A7LVWW8oSZbIybFXmG0rB2JCe1dqlZOmIScy0l5LyWVMa77Gyv9OujPcecECABEejI0hxS0qUNH2tCR8ayguQrxqdOmiJHjrX9CyrDiP+0X3uCnslLZZcykJIiMrQSGFXRjx/Ab3D76yjKlBL0lchGTIzbd1MghOIuW122eoadFqZgSEFtbmUG2EyWkKZS8nzyQDpHmlPq4yshDX87TNMzPYtiQVej5Oj31lDPxxLi5TcxOO+OKYsm1sBSPO1UibEaTAbDl5TyJBWmUgCwTgt52rT7N+sm5LnpaTFyU7ns+hWJck6bG31fOudemsjxZaGUx8klS1lLhUp9ViAvVo88n31kuGxm3JUF9Mx9pSrNvG5JTf3qvf2Vk3KK46c5DUsuQUyS2dIsFBQ3+2lBDGYdeUXnkZ4vXVw3OvUKivLdvlCLHUAjF9Cpw3IV8Cs1EeyY2zJKICYBzq83miPr+0G+rQdAofygMybwhEDzys3m1Ak4/aCV6vZUF2O0JQYgphKCJSoikEaSq41g/tSn0NpZjtxUxYrKFFeHSSrrH/THYzvmPJKF20Uw59LIMTagkPF1LXuG976MlQctn/HBHzpzIX9u3DUsKCwiarOPNpcITi/7g4FbEaRT77BWt6TbPvOrLi121VIeS3dcl3xh0q2Wyta/s80UY1lo+nMxLyF2dSs/Wv8be6m4yA42pp3xhElDhD+LfXffOm1eKNBxuzxlIfQ6c8lZ1rv8AGoji1uvuQyVMuPOFatOj/wCpGxGczK3XktZwC5FzW6j3IR2Vuo9yEdlbqPchHZW6j3IR2Vuo9yEdlbqPchHZW6j3IR2Vuo9yEdlbqPchHZW6j3IR2Vuo9yEdlbqPchHZW6j3IR2Vuo9yEdlbqPchHZW6j3IR2Vuo9yEdlbqPchHZW6j3IR2Vc5VdAGs4EdlHxLLD7gAxYswEpI4RsdI91Yv5q7bhwI7K3Ue5COysX81dtw4EdlbqPchHZW6j3IR2Vuo9yEdlbqPchHZW6j3IR2Vuo9yEdlbqPchHZW6j3IR2Vuo9yEdlbqPchHZW6j3IR2Vuo9yEdlbqPchHZW6j3IR2Vuo9yEdlbqPchHZW6j3IR2Vuo9yEdlbqPchHZW6j3IR2Vuo9yEdlbqPchHZW6j3IR2Vuo9yEdlbqPchHZUFKpy3231lDja0JH1Sd4ez1KDDjSDHS9iLikpCibe/31uo9yEdlbqPchHZW6j3IR2Vuo9yEdlbqPchHZW6j3IR2Up5/K7jbadKlrSgAflWdRl8qQQVBSc2Ro173trdR7kI7KurKro3tKEdlbqPchHZW6j3IR2Vuo9yEdlbqPchHZW6j3IR2Vuo9yEdlbqPchHZXib0tUltTGcstIFjf2e/wRvvLf6vVFC2LR5p36lwoqFQ4ZbTmoTsjO6QrSgH6qLDDY/KoS5Mc5hlxx1cd5SVBJIFtA0W0E24amxsfoUiNk36Tz28WIg8BOhHwqC5IjkMMuOPLYeUkhBNrWA0W0E24dPrWS+OP6FepZM9znUPLhvNseNIiyA+/GGtY0/M6Qbeyky8mQnY5Ed5KbpDa8RCbH8vyp9x5b6fpCY+BJUytvDoRrsNPsveksvokyUqjtPyUrdxLLiVbLf8AOtwaKbwpKRh0JX5w8tH3U/qHgzC1qbsoOJcbNlAit05XQ7tbpyuh3a3TldDu1unK6HdrdOV0O7W6crod2t05XQ7tbpyuh3a3TldDu1unK6HdrdOV0O7W6crod2t05XQ7tbpyuh3a3TldDu1unK6HdrdOV0O7W6crod2t05XQ7tbpyuh3a3TldDu1unK6HdrdOV0O7W6crod2t05XQ7tbpyuh3a3TldDu1unK6HdrdOV0O7W6crod2t05XQ7tbpyuh3a3TldDu1unK6HdrdOV0O7W6crod2t05XQ7tbpyuh3a3TldDu1unK6HdrdOV0O7W6crod2t05XQ7tbpyuh3a3TldDu1unK6HdrdOV0O7W6crod2t05XQ7tMyXpj7+YOJtDhGHVbeHt9SZfz7jDjF8C2iN/31unK6HdrdOV0O7W6crod2t05XQ7tbpyuh3a3TldDu1unK6HdrdOV0O7W6crod2t05XQ7tbpyuh3a3TldDu1unK6HdrdOV0O7W6crod2t05XQ7tbpyuh3a8cXJekOYM0M6RYD4D/8Ff/EAC0QAAICAQMCBQQDAQEBAQAAAAERACExQVFh8PEQcYGRwSAwQKFQsdHhYIBw/9oACAEBAAE/If8A4LfK5hy6mqADgmS/CakGAViV/uIq6zNljyjLLFH2TwgbLztHkbMOhCmVpq1hoUpCOk4nmjauH7xOGyIGvlDQ85UUsApYlcbxxBAIhIbgPuI4LaG0ARssazfEjo94WTdS+wWc0kdToABxClrPeonh+DBGQ0WkHlIDglgAO+BYbSOrR3m//pEDNd5VWCmBLAg0OiN3tVC2BgQN6hoIM754zYmSChYIIgBOAGKMgBdELOS2bIZ+4wIb1QDXnpPWGvlHzQPkRKFJOtTWM861UEfb0j2GvviUNI1l71KFTXURTxNVlwXoFRRp1V0RYpR6sgJnRuPuYsygWp1iJMdRDq4SOVCkwATy3K9pUcOYj29jFaz0pi3q33qC/uaTsWti3KgD5BAYDZYtj7mmOaKivkGC1FQxDyTaQ0HCDGT4izNBOkZ1JmxTAYjA4ALQEubhIAv9ZB78QMDY6ktIeltC4OdNBtJQTDe0AgfqWiEiiQlxUvhGYcDjZXqBX0k0ygEsbNTWcwNAu6SM+lePsgoMBnOOzJ9sNKEUTYOADPK4gsATKDUGCtViFbI4MeyGrA2GCwGRF/ebllXNBOftgwOCAbWtPu6nmjGDOAwMFEfJa+EgREFJ1604NBJkHMCRCIiJ3v7xKBKfEFJiMdAg1V2NnMD1i2W9KiKWRYYM4FUWFNraaAr1+55vE0DMTUkBIovWSHWiTugPYVLQ3jMEW8diNGAKAWiICVnAQYIjZzZrUEBI9JBoBGMRi6EPlVeVWA081/dEBQHmfMEFiLYgwR/aCigsYIIfp+Bp5hgleaDyCBkKTgZv8gCtxxHNIFOC4WbAGI7uIWsHhAKE4INkrFrAtWcysOQAQkmnDKrU+ENxYEsq5/j8sI8MiMsjNGHwpaJhiAIgwFQiDpe8DBAB2Vr/AOhJ0ixgS+Cx2ywgNoOjn79ixYsWLFixYsWLFixxjijgKb2lsJCFXsdSAAdj+BWy5h78QDBMYB+o/PEXr/MXr/MXr/MXr/MXr/MXr/MXr/MXr/MXr/MXr/MXr/MXr/MXr/MXr/MJkpeTEE0XAL4/iMup7P4AfcL951ndGjcA6fgU7EMHg2DIO9zyimio/o/wsIP7MJBGosOSHLBsG1ir6k3OF0czhdHM4XRzOF0czhdHM4XRzOF0czhdHM4XRzOF0czhdHM4XRzOF0czhdHM4HRzEcyGF6CFigpK2D2MTN/HLqez+RH6Oo5fwa/Rt06Ds8cup7P4MfoLbcLTXrlRGlgu/cgNgLE1iPVdai9aGRWeJUDKBoJa4CeCJh5BJwksDybIAKDqLE0ahTCJDpwgLGcXSicoM1zAOgojJ/b6+o5fwa/Rt06Ds8cup7P4MfocRMw0Ishej2gVDBC4ZAbDdKCkh5TX6iEfJSjaROr5wGS1TQTPdAF9xl2Mx5F0Eh5AHAU7hQGAJUnnhqF61K8qe3J0dzRNdfq6jl/Br9G3ToOzxy6ns8WamkBnGjw9pxevmcXr5i23iSQGcwiSmyQZ8EHCIGVCB5nWXzOsvmBZO5+KJAmx+SP0CmnZRAonR08tI9UKmlkrUyQFtu4rAW4J6sSC6MjNW9UtgiALgBgu+APg5FsECN04x/1s2gbBpZsIhD6uzlq2oeiobISGdnH09Ry/GX1M5OCPKhxF6nxCurM+abJAVAOBy767DQe6tf3AlwXQDDGzSotx4X0Dtit71A/SUNOxVkWeTeEEkC07AJ09Z8lzzAEGHEq9gPaPObuojPj0bdOg7PHLqez6iHUNpScSU4iAoNQED2yHEMM9KeRUHp49V3+ofrNmX1lj7TTTTTTTTTQWRj4c6hvkLC6hIEauXy2civs6A04hewemXkI9CeUGH6o7LFQCja1KLBMDsea42LUHQxXA4naPmgVjGAMBOzzuAKvsNqTah1BBdWtvPUUtFwR9PUcvGwbqo8vtYYYYYYYYYDWSKv1ibmlzDNrAb/Yev2F+q7eAxywgcGoqxqlaQdIUYRUCFgbgiwQICIFeALyCLZxcCfMIIZpb6rN+sGDRsAUQBp6IxFY4+LClgf0mQZZcLBAeVYK863ViVOvbp0LZ49G3ToOzxy6ns8Tt1SkQ6Jj4QsGvyo68K8AF5y68U9012RPwKBOjsQQKRwY6p+Z1T8wt4AZhbAyfqHjVAwf+or1BHLrKIwgKPIv19mRIkSJEiRIKR+wM6m0ykE2vsGx6/Z0Vl3LFg3Ac+cEbCsMkgCw8GEVC6BTPgUm7m0MCEAtTN0UBL8hFfGVmHs2SuYN7BsIMW3BLx24moyoz01iBS5isSSiZLP0dRy8T85WHD6v7jka9h6PM0CnWfxOk/idJ/E6T+J0n8TpP4nSfxOk/iewikoAZHBDW6WVsol7h+tfEfDAhVTR/Sp1X8zqv5nVfzOq/mdV/M6r+Z1X8zqv5jChkaJuYcwFTejx6NunQdnjl1PZ9HV9vvB5AIRsHIjSobq3B0OGH4eglRZg8l7AjLAwp9JcAAGSMFLKUNWAbf80GgAuD6TcTwU2QjkiiNVUeGLZrHJ9RAZ/S3EcAA8H+1OJE30AItaFJG4BBMkCZA+jqOXi4moinejK415v2n1Bg1PeP+zux/wBndj/s7sf9ndj/ALO7H/Z3Y/7O7H/Z3Y/7G1QUcbfWucHwMbrdwZDmsUYi4FCKYIE0rQIZ2esT7igxBEZkirRFqgvCQNTpE2FQhEDVO8nESRQjB5mI2TsjKXeacWtBYCyDFmEpUWBmF3kLRaGo2+sXnnS9vj0bdOg7PHLqez6Or7eBgPmAwwWDV/QUKFCjPMup+dfgj8gfl9rQCeXHgFaBAOTmYqkHMfbg8nT0lqHOxB2qmsqhLakVHMudAQZtnMPdQK4MgRgZ+zmWcSZX0jcp6EFqZnwigCDTA6hTdw5kgZycPp6jl+KucHwNdmkAELv6BmLKgiqNJskWeCN4ScfH57sQAFNWxLcA8KCxVpLGAGGtdIHr9CEw4bXmKtjYSSkCS7AeIdYw5GgUMK0EGiJqdD3Tpe3x6NunQdnjl1PZ9CcgGK8wd9fBKIbtH0mgyMrP0fuf7faHvFldOmwN8uKfSuNi1a29VBMLnsrZfI/qKhefqfX3zGi1qIgKqKSZZtKijzsoYmzV4uPms8CGZblERtcXnTWHF+DTXQ8lD6fZ0eUNrwAN0AQQSKKOoEWSDIjBCfg6ElPYR/D6BpbgRogbC5VhinWVFErEkTDVSxEwqbOR11g79agB8YGo3JLcAgaDXWUICDIB0BMCYejJ9LqOXiAigdAAjejoAZThXxKs3VsmE2loMBGbCQwDzhkjfrBFVlBRG6tslOoHOg4FywHJX1iOkAuQ3yzeojXLwCch63Bhlk0MrliNYjiDGohiWJpqysHJlFT4MwxkEYiXyQlBvaoqYkGWJCS2gh1emk0ukSumDbt1AC4bhqmosf59S5wfEyoSRADMiRewR7pSB8HIdB/QGylAkANuFCtbd2bPrLlCfosKkCzlpQZGeYA1MCAJIDLBiMOKlEAffSBLzWIAgp0PdOl7fHo26dB2eOXU9n1GuJtABsKr6MWLkStaYE3arW9PsjyAiLOgw4TLSIxNWNeld4l+x3BrsNZb0bYhHQHttwjIt6TTm4reIuhIUABnSFCoIlLhlIoQZCQ70UA1Ae3+sX7TBWlSEAAwcQ6ZirwAPUqrurjYwh0c6eDb7Wi7ZHpLUPYesxdpZccSRMtFYbgGTqDjDt87EeULfSQjD9hgAHKCmcDZfE2SS1EQsz1TNE1DAYse/EEd+ucJoXgUZNTGUDGn0dRy8Su4AaJb48rmt0qXbtyoaeUrTbGo0EjsAWNIw1mkHBZjoIIeIKQoegpDimDr6wo5smRoeCWHnqDGv47QMLSy2wJpBdBIQCFmQSQvOEDGVqJ6RAR/hgf2GZLyTFMCESVH/cpW7gOYucw2uUyG1G5hzg1wvOl9a9tBAgRarXyjgHAOAcA4BwDgHAAlASVQ0fBdt6PHo26dB2eOXU9n4g8kdhqVce4rmInrYIz9D91wjL629SZF6QslqZH0DYViKmPoSb/swna+wqL0IkeRUwuZDgdhxAuYjohrXmQsIqIWZPfrybb+1oMDVFEwg8kgIGh5mm5SFxZaEJMVRGAE7aMShIktBLRxT+2EecwQTQA9oF4gdvRmwpRdhZwwqItYEVmcr5VrAgAQjQI/R1HLxUDF3mCvJKHPMaxgSqsDaK8xgOdtBVCz5CHA84En+nRZiKsXiDGu5kC3O5Bd7FRdimFDQ50teQ0ETNCLmBPMyyVIriDURKRGFuAiFbVMIED9gHglPazVwajwI3EMOwgaewEDChAIIRItgepTVC5j3QqsWQoKaKGZ/Wv1XaCWeXOd/wBNIflqAXIBvDA3eIF1coWI2zQxCzUzdeYckquTL6hTypLUcjMGnqC3VZq2CCJ7K14IDKBwQK3EEicBjWqD6IqqCJbiASwcDHpOhbPHo26dB2eOXU9n8MP0ABRO2R6BiKnhnEcqRjF0aBgpsRBIFuDlZn5wx3TZstD5IHnBiFEwCWImuoleZ6Q4E5H541R8r3hOW2BpYJsNGT7EAABsrOH9HUcvxlw8+QkAW9jmdT/udT/udT/udT/uXPq+sUSQ456mI3dv3wQKb4GGGAaapgwDpCowY3Eecac3dCBjx6NunQdnjl1PZ/Cj9DNZKet5owl9IgL8gp/b6jl/Br9G3ToOzxy6ns/hR+jggAGB9vqOX8Gv0bdOg7PBOegphP8AcFnAWEJ3kkwFKdqTtSdqTtSdqTtSdqTtSdqTtSdqTtSdqTtSXlZCgIZcBpRAIcN7bPwEMEOcnL2D/AJADNAZMAvhD0kiQf3+EZSttwCejUfgmTXqdY89POf1BMjxFH1CiHvOr/idX/E6v+J1f8Tq/wCJ1f8AE6v+J1f8Tq/4nV/xOr/idX/E6v8AidX/ABDADY0Rzj8H5+samRZBKiREAUTDzlge5+/YsWLFixYsWLFixYsVpO5IiAzVGqYgAA6ZDh+ECeoS3rRNWD9QCKQ0c/b+n4BAgQIECBAgQIECBAgQF5ApCYMMkxkMnawv/PL4hDNBrAPv2Jt3ZLEdACQNshVC6ssKjbAFQ2zVSqgfr2NBzrKRhAHdgYWwmzPWxiKbj/aEGRvXBfm4Tq83LBQ4nZ2kNCMETjSSCRjAkBmUTyuoSdEgqFgkWf8Ax5WWLpKYOh5gF5Zregj3r+94zwbUTDfD0MCtYWlsscZOkC7MCo9JDIQXg+9GBxPJdrnVBZ9ziHYHUWM3wKzmLhWBFrHbIpbSoNZVggiLMaAegAOoZ7uJKVvU9vxx79iqmFYgQFgTFFCEQNRQKAvIR7GIXhLWYACHbwq4VoMIUAzS1NfkiEBySe/YJ4qHMYUhzY0VitXBgR56YjDGM7AZVQnYCUQG+BDNVePrAm5MIu1Ah6D6I2ADBAEkBXGXSZMxQCQDDKoMgBEIwCBJCAiKsbwoDjEEJDzOvb+MKPabSPtsau+JTIQB1hVF3c4kadZ3VOB/PreDS3ASZJCE1IxJcGuOoDS0Chb6aE4Dc3pUK3MerKjYZA5E83LC4zGBA2LWDwDGAZzisBcwAMWNZrA5lAJ4BDMjm/xxeQyx5ZFYfT8oWQpGpk6wACS0KqA9gexACQIN8BHBF2n4HRtVolhuYNo67jngsAsw0P5WJErAIGwqAez05UEEO2EQcH9t3ZTXEoLsd9oK0ywB5aqD6TxALeIOuB/QOtinkc0ANoRGkPLlIVQLRZBthG7WhLEzzdmtP4waZIqJkQj5Zh9qAE1hAkKICtXMPmkFAJe2xvZ2oBGaEQJBAt4lFiYSm/CrHzwEICMKy4AAHoGCMoXPNCSOjNMYKGQIdxCJmQETYVaCI0XU4QdssLYRSj+49ULEvNEhY/8AyQ5MhCihBzTvX8SLFixYsWLFixYsWLFixYsWKXXoIoSgrEPdKKcjT4/jw9fjuPysWLFixYsWLFixYsWLFixYsWLFixYsUeLaQRYYCCx/CFFxZECFCvrRYsWLFihLr5s9mkGnkCQzVoRwFDEqnPdgPT7GLFixYsWKrKsJeIQ6D3eHUtn4lU3TQ4QC+UfUGyYayLFADA3olZqn64CesVxWTYXAALXXMxQYh0RwLANX8m+SDxE81QDAOA/8JGhbbYJTomgJv2Qs2H+QhNnK9W7hCgZRSU0INJQRxVdxjBevn9loFI+USMGwdtZ3yHfId8h3yHfId8h3yHfId8h3yHfId8h3yHfId8h3yHfId8h3yHfId8h3yHfId8h3yHfId8h3yHfId8h3yHfId8h3yHfId8h3yHfId8h3yHfId8h3yHfId8h3yHfId8h3yBT/AJrJkmodH+EJVNEJREFCxU75DvkO+Q75DvkO+Q75DvkO+Q75DvkO+Q75DvkO+Q75DvkCrfo1PQuhn/4K/9oADAMBAAIAAwAAABCSSSSSSSSSSSSSSSSSSSSSSSSSSSSSSSSSSSSSSSSSSSSSSSSSSSSSSSSSSSSSSSSSSSSSSSSSSSSSSSSSSSSSSSSSSSSSSSSSSSQQSSSSSSSSSSSSSSSSSSSSSSSSSSSSSSSSCQSSQSSSSCQSCSSSSSSSSSSSSSSQSCSSSSSAQASSSSSSCQSQSCSSSQQCSSSSSSSCCSSSSSSSCCSSSSSQSASSSSSSQASSSSSSSSSCCSSSSSSSSSSSSSSSSSSSSSSSSSCSSSSSSSSSSSSSSSSSSSSSSSSSSSSSSSSSSSSSSSSSSSSSSSSQAAAAAACCSSSSSSSAAAAAAAASSSSSSSSSSSSSSSSSSSSSSSSSSSSSSSSSSSSCSSSSSSSCSSSSSSSSQQAAAAAAAASSSSSSSSSSSSSSSSSCSSSSSSSSSSSSSSSSSSSSSSSSSASSSSSSSSSSSSSSSSSCSCSQCSSSSSSSSSSSSSSSSSSSSASSSSSSSSSSSSSSSSSCQCQQQSSSSSSSSSSSSSSSSSSSSASSQSQSASSSSSSSSSSCSCACSSSSSSSSSSSSSSQCSACCSASSSSAASSSSCSSSSCSCSSAQQSSSSSSSSSCSSSQQSCQQSASSSSCQACSSSSSSSQSCSSQCCASSSQCSSSQSSSCAAAASSASSSCSSSSSSQSSSSSSCSSQQQQSSSSAAAAASSSQAQCQCSASSSCQASSSSSSSSQSSCSQQCASSSSSSSSSSSSSQSASQCSASSSASSSSSSSCQQQSSCSCSSCCSSSCSAACSCSSQQACCCSASSSSQASSSSQSCCSCSCSSCQSQSSSSACQQQCSSCSSSSASASSSSSSSSSSSSQQACSCSSASACSSSSQACCASSSQQQSQQSASSSSSSSSSSSSSSSSSCSSCQAASSSSSSSSSSSSSAASQCSASSSSSSSSSSSSSSSSSCSSCSSSSSSSSSSSSSSSSSSSSSSASSSSSSSSSSSSSSSSSCSQSSSSSSSSSSSSSSSSSSSSSSSASAAAAAAACCSSSSSSSCSSSSSSSSSSSSSSSSQSSSSSSSSQSSSSSSSSQSSSSSSSSASSSSSSSQSSSSSSSSQCSSSSSSSSSSSSSSSSSSSSSSSSSSSSSSSSSSSSSSSSSSSSSSSSSSSSSSSCQACSSSSSSSSSSSSSSSSSSSSSSSSSSSSSSSSSSSSSSSQSACASSSSSSSSSSSACSCCACSSSSSSSSSSSSSSSSSSSSSSCACSSSSSSSSSSSSCAACCACSSSSSSSSSSSSSSSSSSSSSASAQASSSSSSSSSSSSSSSSSSSSSSSSSSSSSSSSSSSSSSSSSSSSSSSSSSSSSSSSSSSSSSSSSSSSSSSSSSSSSSSSSQAAAAAAAAACSSAAAAAAAAAAAACSSSSSSSSSAAAASAAACSSSSSSSSSSQSASSSSSSSSSSSSSSSSSSSSSQSSSCQCSSQQAAAAAAAAAAAAAAAAAAAAAAAAASSSSSSSSQAAAAAAAACSSSSSSSSSSSSSSSSSSSSSSSSSSSSSSSSSSSSSSSSSSSSSSSSSSSSSSSSSSSSSSSSSSSSSSSSSSSSSSSSSSSSSSSSSSSSSSSSSSSSSSSSSSSSSSSSSSSSSSSSSSSSSSSSSSSST/xAAUEQEAAAAAAAAAAAAAAAAAAACw/9oACAEDAQE/EEuP/8QAFBEBAAAAAAAAAAAAAAAAAAAAsP/aAAgBAgEBPxBLj//EAC0QAQACAgECAwgDAQEBAQAAAAERIQAxQVFhMMHwECBAUHGBkaGx0fFg4XCA/9oACAEBAAE/EP8A6RIUvsUCX/geZRISjjCnAs3EEGv1dIxxvpmUAN5AfGJyJorIQzplNMHgMGlRJfQ42w/fn1iYykZAo2yEyZxEtdbYTccncPHOAZniyBv0JrBCobZMkCPND1N/62Ip4dKGA9ezs28AshTxIVksTK5MhkQqbaMtsXrz0sn/ADvdYxtZlZDIWCUOgosEIaU3OSZ9csIACaRhiJw+x2VIsCgDkFBLdZkx2PNZh0shQKCVkfDTU/EFCmJGyoO7T6mRCUhLj7SHEBb4ptMDZiHUwdjJkrQjl45U1dUM+IX5QyBJ+hD7sKwY0sX3kaAw6WwJKRCkI8RYKQd8UmMJ9BuBJvDGT2IwcUmJbLCcUPhyp2iNkXIhiECj5RISmJk/QxUAbOEqFlgz1YZpWuSt2oeIpQcwxDLC7GHB5weCLYqDSs6IMXd5JAlxqyuyDVt1dUcUVVWlLzPJwTz02cE+dFayQ4t0Ni9t8sRwVVlmTjxqZ1WVSLGUp3fsk4ynh/BzbxNpOGFwkshzuKW+rwQAhmk3VIESDvZFwynl/qbNyDjaZx65X9kyiZc2hjBcsSOJTsoSVMk0SicU0JbVWDT0EXg8ARa+1dAbPikJU0EoEvylYdzj34stK7nzhyeJVMMGOkZOL3GJQt41yFGnORuTCisukpzwGRCVkzGv46cjm4x5ntEOTJTFwo+FviIUjFyQyVmuuFoKUXLBgcQ9hNE0skkdWmzlqVWReLx1rpZOOwyA4RDhXJojwGttZQBger4tMv7CxAjkzkXtpofUWa7G5aB9AfAfcSnwT5X0kvFL4kfhoUcW2XnIlAUFgyEpilrhJ/WzVW3BjrhEga60gLwKYneVG2HHgQ1VJjx+X9csn+jcWIVFhxhhu/gTmqAP+Dkbgpwx9FdL/oQE1FKDN/h19swlAOATPxxw4cOHDhw4cOHDhw4kHq3TqHhFzBbpG4KxmmbPgEHMHEbS1j7Crj+gvsY/2WP9lj/ZY/2WP9lj/ZY/2WP9lj/ZY/2WP9lj/ZY/2WP9li8NLg6d8nuvQer5D6EHRAf/ACWB+AqAkjFa4bmRxQYgc24/sxf3fBH/AJLkqa39RV3mQ8571L8Afv379+/fv379+/fvz7UXW0CBLMXW3ADMT05s9noPV8ydCKP6fybpkDnoPV8kdCKKE0vRikdQJ/TGIqFhkREmgjrqH913j8OqhDtnRXfnAHbYgK+6mNYn2BLXpZM9KQgqrPI+phST4M5P2RM3EUGRA26Jgdegk1Aede/+n8m6ZA56D1fJHQiipBAlH8RKzvZk9XumR0YkIKsZ0CjHpppyHNnGQ0Cf1e2Noeg3EJJU89gEKVEBxTGJxYSDSPsLJch3Wm4CiOZlZYwfro8Gsw6FtYVjpqyQAQgaH1e9+n8m6ZA56D1e46bW+AcIAL/Q9rFjK2PA6h7WMZN/Aj2SD8iAAiOf59v/APuUpHZIIQ8viBFFYF3HBiEhrRMCQEuqZcNpwiZdzQqndkZpxIORmiH6QrJyVB5srLfF3JnIYma1XTS/CqacOLe2ZnKEk9NkxlFujruSnXgQaDHJDLZn9G+nu/p/DdNyW7GnMBHB/sMXHh8MJkKNCA6MhModAX1DJGAlpTsYO8kYOUVVfoW/mXDFsSxhhZYB7DEzhqb6hU+MSjOiYjDCDc/jOcSWIjeVXmO0K/y94gc9B6vfdIev/wBuf+AcYgJmAXQtupbjf5mAbgfYeDyIDvroz4QiiiiiiiiCSm0Zeo2FwlDZhnyNte6TwRUbS7nSQgkhlOpkx0VnJqsc1dIN5FtxVNbZ0tZKGcKk96jlJmaJG6YbdrmwoVEg4O85LJL51gzzhdd2XZDs1YVbwGDVnu/p+3mHGlu9zzWs9PeeenvPPT3nnp7zz09556e889PeeenvPPT3nkW53dD6ZynBccVGXPqo+08BP1Pp9nGF9/Qorz1a+wc5xTE9skh08muz9HQKow0tHkcKazqOmNGDzEiH9zBlraEszY1fCFgaQKd45FQOMtk8DBgIHPQer3HUB/y23R1DjhF+m1HPU+zL2LHg9PBl0U/ZGs5bPyUQV7fnx4c1Z5Wr/d7wh42qotyWQNnJFthMwxqfv4Ju3bt27du3523QRO/ZwlTpi+4n2Xg0VWukIoXeAP0dMZgTd5WAgO3sMXJoukisIvrH0yb92JHqZxUidiHn+BZY13ezjPtg6zZzB+hhszVn0MofRgiImMEoNhH35e/ufp+3zxUBM6AgkuCU92GNjhCWpB6YMDH28CDBgwYMGDJm3qQ6htuF5mAStcg9/wBz76awcjgo1OwtN+CMWLFixYsWOjm2YkjIHF91N7xA56D1fBuvAh0YCw3kqgL3SFwnPg2oow81QWCsAOtTn36vFspRQDLEMt9miCSg3l5oPlxWkk0KqEsVQ6DPKIuWjPIqHu2O4U2PVoxhlb8DkTwQYE5AhHFoKOe/ufp+36mTV5FiecnfzLp6slrhQb0wiz28HTp06dOnTp23LuiU7L299P8AWz1npkOQx8Ot7yoixWzlLyh6l5EXyYUqcWDrNDjjBTw1QRD6dcZO7agIS/kyN5vKU5/SbfgAJbEQPZQmdCaZnAWcszJSLl4jfTi3vhwgc9B6vfdeKOgcsMmwXub9+9OuoBIKWINHwIgesnV4VHlMBFQjboHXIYVzno9K6SZxU3mGg4GoWGYCRLanFvngYNKArVamBhgveJaNoGodTNYYlPlLuaF7DoTiOS6m6xCk7nGSAmR+cuUc8e7+n8L0/wBbPWemPhggygLmh9gdMOJndYJg6gc7AGWKBkKIIo7sv8AGDFXe+50yV72tMQNA7wYwCW8ISI5Mob0XvTKXYt6w2ovV7ykbtDlPAtHCBz0Hq910FLbMpjQ5ac+zrR8dzRpvIHjXBEEFp9xyNe4jIJ+EGzMrzNXjakBmDmpZ24dsRd5ZI0hE+krTiBu9y1AiQ9AYITO11WO23dOEPF0EtMIJEdDTBsHj6s7ug+p4OizDo9cp7mu1JNQlQoi2Z+0cUH70CbbykvDehjungktVBlBpnkCjoQPVYCgb7rCDaBSoaziDexX6jIqaSxzBCEl3ZQ8m5xz8UgCebU+7+n7e8hliAgmZsDZJGbaz5XVKE6HOjEF8XiSQJVP9AxIMnsoylruBCcJEoSkhtin2G3EEWmtIykhbiQZyf5ec/wCTLSyEgxtfUUjRUQirN2YgqyBgVOFiGrccD4reKRhP3SmcpnZWjzgh6EnJrYW7JmnS+qMU5E1TFDWXl6e8T/Wz1np7JYZbfjBpPJrWYGOWFrNCRhd+WNaxeidR4Smk0QfXb1K7Rkb8SRkqtDIyDm0+yT5gpvCipLBzz4Fo4QOeg9XvulUyZVCEdlz7h48OVUCYZUqk0beCIIwZLtnlnLVWAoSl0CdmAHUBPVUTYfAZliUGTxtwAUEo2wIEKOL4bk7FXAWocUPRfu80lw0ARxHo6fgOOWJL24SRWddHDc0449A4D6SjOtkG9Wf6XhUUrkm4P2lz25MJveOmi720KGDzC7FrEgaLUqZw4Kyk8ItNVyZolnqEFdi5SaT0uUU91XY7VBB2MhV3oWDADqSJxA1maWn+Pc/T9vVwOTW6kiK11N5GmHSErVo5pRModUbmNyEgR6DvA8aGXWnAU9B3jGWBxpUFBRB9kIhXXqMLRb9hUELTaSxdUySY5LScODjFEA3LRcMZoDsmEHV+IX1CTnNcmUlTZdaEW8LaVoATNPpF4ZrCB6nutL8AZ9M0lWSHgpfR95NJHvgCSn5ciqO/Honyz0T5Z6J8s9E+WeifLPRPlnonyz0T5ZY7fwJIkyAx/ZZe8QOeg9XwroQ5gJ3hIRCJDvdcj5/F4Hj6D+7HsynC20woEz/eDGIqIdvgP0HQwUzS+5hyWn7nq5M9W2BRMVRepyjHCu3dpIxU91ochq460OWFMhkt2VLaKXc+FRGhKkDFnUg98kIPHcQqzzSiVMOpeR9RoV57DFgramFRMgnRMZQNDUB1Tte6m8XQPRIw3kJ/fhNEbtj0FwOH5gwViVZz1OHt7n6ft94UkRy44LujS5m/hkiairf1EuPN5wEu4R0d3EhBG5JJB1NclTJnixbxO9XeKckVtBjI/onQAZJ7SrB5upC64RiGwT5wxE9TCtOBp4BDKkPzDIVez9bNZZ1HAA3xVw5dr746YFA51Edrn9iQc/Op2apHvp+p9ObJ0FYEJTzjkFFmfgyaEdLFdhueLLJv2BgybrU6kZIQxhzgsCcFEOYTi8GMkQU43LuBkzkOW8pvix+3J7oAuTmVgIgeMIqI/s++wEDnoPV8ndCKNeCaZGF0BL9Ob3tyn200JbBsQxYogCbhOGlGVwlUxRdBAblBLigkySOQNbGo6O3F00x8NQEcqmJmcTTIVmn33ruFEROWBlnl7n6fw3ToJCKTkJua90xjGBIAuAQrgbYlDgH0MKhndvYyEwciHU+HyQw43iGSPvCBz0Hq+TOhFHchSBXB6Iy3N/6QdAQe3h/p/JumQOeg9XyZ0Ioz7P464tIC1R4f6fybpkDl1mdnOwHwQeDUF3yrM9U+eeqfPPVPnnqnzz1T556p889U+eeqfPPVPnnqnzz1T556p889U+eeqfPCrZ/L2zauR2N4GsdT4AhBOx0p/M+z4B04CUYjDtE5efxUL8EfA/8AD0Nk874EBPP91ge5gdxhzfk8R9sL70t7QfH0aNGjRo0aNGjRo0aJXVL+cE+BBYEi4ZELDnckCuGXj3q8cR48ePHjx48ePHjx487gCUYdposaJlwxP4ZigBoqI+Ce+hEkEOjRQlrpgUa/3FgPgBAgQIECBAgQIECBAgQmFqelKy1FBGz/AJ8KricokLzwXQ4aj0XCxIboyERCnZCzCfkCBJnQgydDVmxgBThEIQnZJsFkLxbAoNNwHGH5HUJGQwB3iWpEXjHMi0nq2Bcqj/j14w3bWJzTa5kxJZUMxI3ZF5mUyy/1ryMsA0H1iDC1qmwyIAg7kIOR68FRBcoNws2k3ZNrsoJqi2M4yMCWXBOxc7wZP4h9zAXA9WWL7SdKtf2QwZPiof8AOCP1l1fh3vfOu7bTnhjLg3PThS0SSpZsOXidPJKgA7DRHFCFhQI1ASjQmiCI5LIFCt/VAzzk3GUBZU6YCrWsJhZY6pNimRWJ6MOSzeRcJg2kuxZm6Q5bpIjdIdsk8qZwmB6FRAmyXNaAHAIhMCMkxMYcfIDPFoSI9pKsdkoYXuOfU+WCPWoIBL/GCSP6WVVOIgawmAGBUEyMajqyrAd98byK0YBiCjKSrYZ3QbcpWWKge26BqKv1XkK8vDMNNInv0QtN8ADY74pQrGEgGZF8pECRPRCdFPQQzB3S2ofDfVrR94A7ISNYd2rbYbbF1crZR4oRqjRHE2sTRnIgwr/DuzAYMOCcpIFkADq0C5i07BKCskqUsmo4Mh8JqK5izJ6KKnC90bA5AliKgKuWyA0r+wY9b2hii5F2WJSJXC68cgz5Hh024cpYpZj5MWl0IwJ0BG1iQeDKJDZvw+WNWg27oEtQrx7rUK8OqiEeBkRRMdBpchOtAq4IyRnvJr4EPeRrUJsCZWIEYCC1h5lZQg0jvgQv/O86fuS1Vkthyj0lbMEekBKJzcoiKRJuIlkwL/4qy4Jomo/+SQ98RdgFoRI+EuXLly5cuXLly5cuXLly5cuFoiAQ/gYZRFhZgDKhu/YVEqYTv574R2GKleE7/wCKXLly5cuXLly5cuXLly5cuXLly5cuXBKh1oYAD9r4KVF6+dTLLj37ly5cuXIGcit1BMDK/IIGZf1EmCkBOLsBGEWsrB9Rj8+BcuXLly5crAPLSzxl+HwwAFJ1Kivfs6ydhJgEkWJHDYYopFiQoJmjYqiBwYnKRfRKGOVJk+IUkalk3jSUUj5lAEcbrBCwAq8+7HJCJAEIt4IDG5okkP2jRFOJqjvpGomuydUxpLxhjhF5jz4Iy/rCA2WBsUPmXTp06dOnTp06dOnTp06dOnTp06dOnTp06dOnTp06dOnTp06dOnTp06dOnQEDc4nEUqN8/BLqeNMAQ6PHHwXTp06dOnTp06dOnTp06dJlx2KFwWT9p/8Agr//2Q==;" parent="1" vertex="1">
                    <mxGeometry x="180" y="40" width="700" height="290" as="geometry"/>
                </mxCell>
            </root>
        </mxGraphModel>
    </diagram>
</mxfile>